<?xml version="1.0" encoding="UTF-8"?>
<svg id="Layer_1" data-name="Layer 1" xmlns="http://www.w3.org/2000/svg" viewBox="0 0 2160 2160">
  <defs>
    <style>
      .cls-1 {
        fill: #403353;
      }
    </style>
  </defs>
  <g>
    <path class="cls-1" d="M-169.98,778.04c-2.66-.05-5.35.04-8,0v-12.01s4.01.02,4.01.02l-.02-4.02,4.02.02-.02-4.02,8.01.02-.02-4.02,4.02.02-.02-4.02,4.02.02-.02-4.02,12.01.02-.02-4.02,4.02.02v-8.01s-4,0-4,0l-.58,4.03-11.43-.03v-3.99s4.01,0,4.01,0l-.02-4.02,4.02.02-.02-4.02,4.02.02-.02-4.02,8.01.02v-4.02s3.99,0,3.99,0v4.02s4,0,4,0v-4.01h16v4s-4.01,0-4.01,0l.02,4.02h-8.01s0,3.99,0,3.99h8.01s0,4,0,4h-4.02s.02,4.01.02,4.01h-8.01s.01-4.02.01-4.02h-8.01s0,8.01,0,8.01h4.02s0,3.99,0,3.99h-4.02s.02,4.01.02,4.01l-16.01-.02.02,4.02-4.02-.02v8.01s-8-.01-8-.01l.02,4.02-4.02-.02.02,8.01h-4.02c-.06,1.32.08,2.66,0,3.99,1.33.03,2.67-.04,4,0l.02,11.43-4.03.58v3.99s8.01,0,8.01,0v-12.01s4,.02,4,.02l-.02-4.02,4.02.02-.02-4.02,8.01.02-.02-4.02,4.02.02v-8.01s8,.01,8,.01l-.02-4.02,4.02.02-.02-4.02,4.02.02-.02-4.02h8.01s0,8.01,0,8.01h3.99s0-4.01,0-4.01h3.99s0,8.01,0,8.01h-8.01s0,8,0,8h3.99s0-4.01,0-4.01l12.01.02v-4.02s8,.02,8,.02l-.02-4.02,4.02.02-.02-4.02,4.02.02-.02-4.02,4.02.02v-4.02s3.99,0,3.99,0v4.02s4,0,4,0v-8.01s8.01.01,8.01.01v-4.02s8,.02,8,.02v-4.02s12,.02,12,.02v-4.02s12,0,12,0l-.02,4.02,4.02-.02v12.01s8,0,8,0v-4.02s3.99,0,3.99,0v4.02s4.01-.02,4.01-.02l-.02,4.02H-2s0-4.02,0-4.02H1.99s0,4.02,0,4.02h8.01s-.01,8-.01,8l4.02-.02-.02,4.02,12.01-.02-.02,4.02,4.02-.02v8.01s-4.02,0-4.02,0v3.99s8.01,0,8.01,0v4.02s8-.01,8-.01v8.01s7.99,0,7.99,0v16h-4.01s.02,4.01.02,4.01l-4.02-.02.02,4.02-4.02-.02.02,4.02-4.02-.02.02,4.02-4.02-.02.02,4.02-8.01-.02.02,4.02-4.02-.02.02,4.02-8.01-.02v4.02s-8-.02-8-.02v4.02s-8,0-8,0v-4.02s-3.99,0-3.99,0v4.02s-8.01-.01-8.01-.01v8.01s-3.99,0-3.99,0v-4.02s-4,0-4,0v4.02s-4,0-4,0v-8h-20v4.01s-12-.02-12-.02v4.02s-8-.02-8-.02l.02,4.02-4.02-.02.02,4.02-4.02-.02.02,4.02h-8.01s.01-4.02.01-4.02c-1.33-.03-2.67.04-4,0,0,1.33.02,2.67,0,4h-8.01s0-4,0-4c2.66.03,5.35-.07,8,0,0-1.33.02-2.67,0-4h-16.01s.01-8,.01-8l-7.43-.02-.57,4.03-4.02-.02.02,4.02-4.02-.02.02,4.02h-12.01s0-12.01,0-12.01l4.03-.57-.03-7.43h-3.99s0,4.01,0,4.01l-4.02-.02.02,4.02-4.02-.02.02,4.02-4.02-.02.02,4.02-4.02-.02.02,4.02-4.02-.02.02,4.02-4.02-.02.02,4.02-12.01-.02v4.02c-1.31.06-2.67-.09-3.99,0,0,2.66,0,5.34,0,8h-8.01s0-4,0-4h4.02s-.02-4.01-.02-4.01c1.33-.06,2.68.09,4.01,0,0-2.66.01-5.34,0-8h-3.99s0,4.01,0,4.01l-4.02-.02.02,4.02-8.01-.02.02,4.02-4.02-.02v4.02s-3.99,0-3.99,0v-4.02s-4,0-4,0v4.02s-4.01-.02-4.01-.02l.02,12.01-4.02-.02.02,4.02h-4.02s0,3.99,0,3.99h4.02s-.02,4.01-.02,4.01l4.02-.02v4.02s3.99,0,3.99,0v-4.02s12.01,0,12.01,0v12.01s-4.01-.01-4.01-.01c-.02,2.66.05,5.34,0,8.01-1.33.07-2.68-.07-4,0v8.01s4,0,4,0c.05-2.66-.04-5.34,0-8,1.33-.07,2.68.07,4.01,0v-4.02s8,.01,8,.01v-8.01s4,0,4,0v-3.99s-4.02,0-4.02,0v-3.99s4.02,0,4.02,0l-.02-8.01h4.02s0-3.99,0-3.99h-4.02s0-8.01,0-8.01h8.01s0,8.01,0,8.01h3.99s0-4.01,0-4.01l4.02.02-.02-4.02,4.02.02-.02-4.02h8.01s0-7.99,0-7.99h3.99s0,8.01,0,8.01h4.02c-.12,2.64.15,5.35,0,7.99-1.33-.08-2.68.07-4,0v-4.02s-3.99,0-3.99,0v8.01s8,0,8,0c.07-1.32-.09-2.68,0-4,1.33.08,2.68-.07,4.01,0v4.02s8,0,8,0v3.99s-4.01,0-4.01,0v3.99s4.02,0,4.02,0v4.02s3.99,0,3.99,0v-4.02s12.01.02,12.01.02l.57-4.03h7.43s-.01,4.03-.01,4.03c4.78.8,14.64-2.55,15.97,3.53.3,1.37-.04,3.03.04,4.47h-8.01s.01,12,.01,12l-4.02-.02.02,4.02-4.02-.02.02,8.01h-4.02s0,3.99,0,3.99h4.02s0,4,0,4h-8.01s.01,8.01.01,8.01l-4.02-.02.02,4.02-4.02-.02.02,4.02-4.02-.02v8.01s-3.99,0-3.99,0v-16h-4.01s-.01-11.42-.01-11.42l4.03-.58v-3.99s-8.01,0-8.01,0v-3.99s4.01,0,4.01,0v-8.01s3.49,0,3.49,0l.51,8.01h3.99s0-12.01,0-12.01h-12.01s.01,8.01.01,8.01l-4.02-.02.02,4.02-4.02-.02.02,4.02-4.02-.02.02,4.02h-8.01s.01,8,.01,8h-4.01s0,19.99,0,19.99h-4s0-4.01,0-4.01h-8.01s.01-12,.01-12h-4.02c-.03-1.32.04-2.66,0-3.99,2.66-.06,5.35.06,8,0v-3.99s-4.01,0-4.01,0v-4.02s-3.99,0-3.99,0c.03,2.66-.07,5.35,0,8-1.33.03-2.68-.04-4.01,0l.02,4.02-4.02-.02.02,8.01-4.02-.02.02,4.02c-1.33.03-2.67-.04-4.01,0-.13-2.18.55-15.85-.57-16.02l-7.43.02v3.99s4.01,0,4.01,0v3.99s-4.02,0-4.02,0l.02,4.02-4.02-.02c-.06,1.33.09,2.68,0,4.01-3.99.05-8.01-.04-12,0v12.01s8.01,0,8.01,0v-8.01s4,.01,4,.01c.06-1.33-.09-2.68,0-4.01,3.99-.05,8.01.1,12,0,.08,1.33-.07,2.68,0,4l7.43.02.57-4.03h8.01s-.01,12.01-.01,12.01h4.02s0,3.99,0,3.99h-4.02s0,8.01,0,8.01l4.02-.02-.02,4.02h4.02s0,3.99,0,3.99h-4.02s.02,12.01.02,12.01h-4.02s0,3.99,0,3.99h4.02s0,4,0,4h-4.02s0,4,0,4h4.02s-.02,4.01-.02,4.01h4.02s0,3.99,0,3.99h-4.02s.02,4.01.02,4.01l-4.02-.02.02,4.02h-8.01s0,8,0,8l4.02-.02v4.02s3.99,0,3.99,0v-4.02s4.01.02,4.01.02l-.02-4.02,8.01.02-.02-4.02,4.02.02v-8.01s8,.01,8,.01l-.02-4.02,4.02.02-.02-4.02c1.33-.01,2.67,0,4.01,0,.05-2.66-.04-5.35,0-8.01l4.02.02-.02-4.02h8.01s-.01-8-.01-8l4.02.02-.02-4.02,4.02.02-.02-8.01,4.02.02-.02-4.02h8.01s0-3.99,0-3.99h-4.02s0-4,0-4h12.01s0-4,0-4h-4.02s0-4,0-4h4.02s-.02-4.01-.02-4.01l4.02.02c0-2.66-.02-5.34,0-8.01-1.33,0-2.67.02-4,0v-8.01s4,0,4,0c.01,2.66.01,5.34,0,8,1.33,0,2.67.02,4,0v-8.01s4,.02,4,.02l-.02-4.02,4.02.02-.02-16.01,4.02.02-.02-4.02,4.02.02-.02-4.02h8.01s0-7.99,0-7.99h3.99s0,4.01,0,4.01l8.01-.02-.02,4.02,4.02-.02-.02,4.02,8.01-.02v4.02s3.99,0,3.99,0v-8.01s4,0,4,0v16h8.01s-.02,4.01-.02,4.01l4.02-.02-.02,4.02,4.02-.02-.02,4.02h4.02s0,3.99,0,3.99h-4.02s0,4.01,0,4.01h-3.99s0-4.02,0-4.02l-4.02.02v-4.02s-3.99,0-3.99,0v8.01s4-.02,4-.02l-.02,4.02,8.01-.02v4.02s3.99,0,3.99,0v-4.02s8.01,0,8.01,0v8.01s-8.01-.01-8.01-.01v8H-2v4s-4.01,0-4.01,0l.02,8.01h-4.02s0,3.99,0,3.99h4.02s0,4,0,4h-32v4.01s-8,0-8,0v-8.01s-3.99,0-3.99,0v4.02s-12.01-.02-12.01-.02v4.02s-8-.02-8-.02v4.02s-12-.02-12-.02v4.02s-3.99,0-3.99,0v-4.02s-12.01,0-12.01,0v4.02s-8-.02-8-.02l.02,4.02-4.02-.02.02,4.02h-12.01s.01-4.02.01-4.02h-8.01s.01,8.01.01,8.01l-4.02-.02.02,4.02h-8.01s.01-4.02.01-4.02c-1.33-.01-2.67,0-4,0-.05,2.66.04,5.35,0,8.01h-4.02s0,3.99,0,3.99h8.01s0,4,0,4h-4.02s0,4,0,4h8.01s-.01,12.01-.01,12.01h8.01s-.01-8.01-.01-8.01l4.02.02-.02-4.02,8.01.02v-4.02s3.99,0,3.99,0v4.02s4,0,4,0v-4.02s4.01.02,4.01.02v-4.02s3.99,0,3.99,0v4.02s4,0,4,0v-4.02s12.01.02,12.01.02v-4.02s3.99,0,3.99,0v12.01s4.02.57,4.02.57v7.43s-4.03,0-4.03,0v3.99s8.01.01,8.01.01v-4.02s3.99,0,3.99,0v8.01s4,0,4,0v-4.02s4,0,4,0v8h20v4h16v8.01s-4.01-.02-4.01-.02l.02,4.02-4.02-.02.02,4.02-4.02-.02.02,4.02-4.02-.02.02,4.02-4.02-.02.02,4.02-4.02-.02.02,4.02h-8.01s0,3.99,0,3.99h4.02s0,4,0,4h-4.02s.02,4.01.02,4.01l-4.02-.02.02,4.02-4.02-.02.02,4.02-4.02-.02.02,4.02h-4.02s0,3.98,0,3.98h8.01s-.02-4-.02-4l4.02.02-.02-4.02,4.02.02-.02-4.02,4.02.02-.02-4.02,4.02.02-.02-4.02,4.02.02v-4.02s3.99,0,3.99,0v4.02s4,0,4,0v-16h4.01s-.02-4.01-.02-4.01l4.02.02-.02-4.02,4.02.02-.02-4.02,4.02.02-.02-4.02,8.01.02-.02-4.02,4.02.02v-4.02s3.99,0,3.99,0v4.02s8.01,0,8.01,0v-8.01s3.99,0,3.99,0v4.02s7.43.01,7.43.01l.57-4.03h8.01l.57,4.03h7.43s0-4.03,0-4.03h3.99s0,8.01,0,8.01h8.01s0,3.99,0,3.99h-4.02s.02,4.01.02,4.01l-4.02-.02v8.01s-8-.01-8-.01v4.02s-8-.02-8-.02v4.02s-12-.02-12-.02v4.02s-3.99,0-3.99,0v-4.02s-8.01,0-8.01,0v12s-27.99,0-27.99,0v4h16v4.01s4,0,4,0v-4.02s8.01,0,8.01,0v4.01s15.99,0,15.99,0v4.01s8,0,8,0v-8.01s3.99,0,3.99,0v4.02s4,0,4,0v-8.01s4,0,4,0v4.02s4,0,4,0v-8.01s7.43-.02,7.43-.02l.57,4.03,4.02-.02v4.02s3.99,0,3.99,0v-4.02s12.01,0,12.01,0l-.02,4.02,4.02-.02-.02,4.02h8.01s0,19.99,0,19.99h4s0-12,0-12h4.02c.06-1.31-.09-2.67,0-3.99,2.64.16,5.36-.11,8.01,0l-.02-4.02h4.02s0-3.99,0-3.99h-8.01s.02,4,.02,4l-4.02-.02c-.06,1.33.09,2.68,0,4.01-1.33-.08-2.68.07-4,0v-8.01s-4,0-4,0v-3.99s8.01,0,8.01,0v-3.99s-4,0-4,0v-24h-4.01s0-4,0-4h4.02s-.01-12.01-.01-12.01h12.01s-.02-4-.02-4l4.02.02-.02-4.02,8.01.02-.02-4.02,4.02.02v-8.01s-4.02,0-4.02,0v-3.99s4.02,0,4.02,0v-3.99s-4.02,0-4.02,0v-3.99s4.02,0,4.02,0l-.02-4.02,4.02.02-.02-4.02,4.02.02v-11.43s-4.02-.58-4.02-.58v-3.99s4.02,0,4.02,0v-3.99s-4.02,0-4.02,0v-3.99s4.02,0,4.02,0v-3.99s-8.01,0-8.01,0v-3.99s8.01,0,8.01,0v-12.01s4,.02,4,.02v-4.02s3.99,0,3.99,0v4.02s4.01-.02,4.01-.02v8.01s8-.01,8-.01v4.02s8,0,8,0c.04-2.66-.07-5.35,0-8-1.33-.08-2.68.07-4.01,0l.02-4.02h-4.02s0-3.99,0-3.99h12.01s0,3.99,0,3.99h-4.02c-.03,1.33.04,2.67,0,4,1.33.08,2.68-.07,4.01,0l-.02,4.02,4.02-.02-.02,4.02,4.02-.02-.02,4.02h8.01s0,3.99,0,3.99h-4.02s.02,4.01.02,4.01l-4.02-.02v4.02s-3.99,0-3.99,0v-4.02s-4,0-4,0v4.02s-4.01,0-4.01,0v4h16.01v4s-4.01,0-4.01,0l.02,4.02-4.02-.02c-.06,1.33.08,2.68,0,4.01-2.66.04-5.34-.04-8,0v3.99s8.01,0,8.01,0c.06-1.33-.08-2.68,0-4,2.66-.04,5.35.03,8.01,0v-4.02s8,.02,8,.02v-4.02s3.99,0,3.99,0v8.01s-8-.01-8-.01v4.02s-8-.02-8-.02l.02,4.02-4.02-.02.02,4.02-8.01-.02.02,4.02h-4.02s0,3.99,0,3.99h8.01s-.01-4-.01-4l8.01.02v-4.02s8,.02,8,.02v-4.02s8,.02,8,.02l-.02-4.02,4.02.02-.02-4.02,4.02.02-.02-4.02,4.02.02-.02-4.02,4.02.02-.02-4.02,4.02.02-.02-4.02,4.02.02-.02-4.02,8.01.02-.02-4.02,4.02.02-.02-4.02h8.01s0,8.01,0,8.01h3.99s0-4.01,0-4.01l8.01.02-.02-4.02,4.02.02-.02-4.02,4.02.02-.02-4.02,4.02.02v-8.01s3.99,0,3.99,0v4.02s4.01-.02,4.01-.02v8.01s7.99,0,7.99,0v3.99s-4.01,0-4.01,0v8h16.01v8.01s4.01-.02,4.01-.02l-.02,4.02,4.02-.02-.02,8.01,4.02-.02-.02,4.02,4.02-.02v8.01s-8.01-.01-8.01-.01l.02,4.02h-4.02s0,3.99,0,3.99h12.01s-.02,4.01-.02,4.01h4.02s0,3.99,0,3.99h-4.02s.02,12.01.02,12.01l-4.02-.02.02,4.02-4.02-.02.02,4.02-4.02-.02.02,4.02-4.02-.02.02,4.02-4.02-.02.02,4.02-4.02-.02.02,4.02-4.02-.02.02,4.02-4.02-.02.02,4.02h-4.02s0,3.98,0,3.98h8.01s-.02-4-.02-4l4.02.02-.02-4.02,4.02.02-.02-4.02,4.02.02-.02-4.02,8.01.02v-4.02s3.99,0,3.99,0v8.01s4.01,0,4.01,0v3.99s-4.02,0-4.02,0l.02,4.02-4.02-.02.02,4.02-4.02-.02.02,4.02-4.02-.02.02,4.02-4.02-.02.02,4.02-4.02-.02.02,4.02-4.02-.02.02,4.02-8.01-.02.02,4.02-4.02-.02.02,4.02-4.02-.02.02,4.02-4.02-.02.02,4.02-4.02-.02.02,4.02-4.02-.02.02,4.02-8.01-.02.02,4.02-4.02-.02.02,4.02-4.02-.02.02,4.02-8.01-.02v4.02s-8-.01-8-.01v8.01s-8-.01-8-.01v4.02s-3.99,0-3.99,0v-4.02s-4,0-4,0v4.02s-8.01-.02-8.01-.02l.02,4.02h-4.02s0,3.99,0,3.99h8.01s-.01-4-.01-4h8.01s0,4,0,4h-4.02s0,4,0,4h8.01s-.02-4-.02-4l4.02.02-.02-4.02,4.02.02-.02-4.02,16.01.02-.02-4.02,4.02.02-.02-4.02,8.01.02-.02-4.02,4.02.02-.02-4.02,8.01.02-.02-4.02,4.02.02-.02-4.02,8.01.02-.02-4.02,4.02.02-.02-4.02,4.02.02-.02-4.02,4.02.02-.02-4.02,4.02.02-.02-4.02,4.02.02-.02-4.02,4.02.02-.02-4.02,8.01.02-.02-4.02,4.02.02-.02-4.02,4.02.02-.02-4.02h8.01s0,8.01,0,8.01h3.99s0-4.01,0-4.01h3.99s0,8.01,0,8.01h-12.01s.01,12,.01,12h-12s0,19.99,0,19.99h4.01s-.02,4.01-.02,4.01h7.43s.58-4.02.58-4.02h3.99s0,4.02,0,4.02h3.99s0-4.02,0-4.02h8.01s-.01,8.01-.01,8.01l4.02-.02-.02,4.02,4.02-.02v8.01s-4.02,0-4.02,0v3.99s4.01,0,4.01,0v16h-4.01s.02,8,.02,8h-4.02s.02,8,.02,8h-4.02s.02,8,.02,8l-4.02-.02.02,4.02-4.02-.02.02,4.02-4.02-.02.02,4.02-4.02-.02.02,4.02-4.02-.02v8.01s-8-.01-8-.01v8.01s-8-.01-8-.01v8.01s-4-.02-4-.02l.02,4.02-4.02-.02.02,4.02h-8.01s.01,8,.01,8l-4.02-.02.02,4.02-4.02-.02.02,4.02-8.01-.02.02,4.02-4.02-.02v8.01s-8-.01-8-.01l.02,4.02-4.02-.02.02,4.02-4.02-.02.02,4.02-4.02-.02.02,4.02-4.02-.02.02,4.02-4.02-.02.02,4.02-4.02-.02.02,4.02-4.02-.02.02,4.02-4.02-.02.02,4.02-4.02-.02.02,4.02-4.02-.02.02,4.02-4.02-.02.02,4.02-4.02-.02.02,4.02-4.02-.02.02,4.02-4.02-.02.02,4.02-4.02-.02.02,4.02-4.02-.02.02,4.02-4.02-.02.02,4.02-4.02-.02.02,4.02-4.02-.02.02,4.02-4.02-.02.02,4.02-4.02-.02.02,4.02-4.02-.02.02,8.01-4.02-.02.02,4.02-4.02-.02.02,4.02-4.02-.02.02,4.02-4.02-.02.02,4.02-4.02-.02.02,4.02-4.02-.02.02,8.01-4.02-.02.02,4.02-4.02-.02.02,8.01-4.02-.02.02,4.02-4.02-.02.02,4.02-4.02-.02.02,4.02-4.02-.02v8.01c-4.07.58-9.36-2.45-7.99,3.99h-20c.32-4.19.47-4.39-4.01-3.99l.02-4.02-4.02.02.02-4.02-4.02.02.02-4.02-4.02.02.02-4.02-4.02.02.02-8.01-4.02.02.02-4.02-4.02.02.02-4.02-4.02.02.02-8.01-4.02.02.02-4.02-4.02.02.02-4.02-4.02.02.02-4.02-4.02.02.02-4.02-4.02.02.02-4.02-4.02.02v-8.01s-8,.01-8,.01v-8.01s-4,.02-4,.02l.02-4.02-4.02.02.02-4.02-4.02.02.02-4.02-4.02.02.02-4.02-4.02.02.02-4.02-4.02.02.02-4.02-4.02.02.02-4.02-4.02.02.02-4.02-4.02.02.02-4.02-4.02.02.02-4.02-4.02.02.02-4.02-4.02.02.02-4.02-4.02.02.02-4.02-4.02.02.02-4.02-4.02.02.02-4.02-8.01.02.02-4.02-4.02.02.02-4.02-4.02.02.02-4.02-4.02.02.02-4.02-4.02.02.02-4.02-4.02.02.02-4.02-4.02.02.02-4.02-4.02.02.02-4.02-4.02.02.02-4.02-8.01.02.02-4.02-4.02.02.02-4.02-4.02.02.02-4.02-4.02.02.02-4.02-4.02.02.02-4.02-4.02.02.02-4.02-4.02.02.02-4.02-4.02.02.02-4.02-8.01.02.02-4.02-4.02.02.02-4.02-4.02.02.02-4.02-4.02.02.02-4.02-8.01.02.02-4.02-4.02.02.02-4.02-4.02.02.02-4.02-4.02.02.02-4.02-4.02.02.02-4.02-4.02.02.02-4.02-4.02.02.02-4.02-4.02.02.02-4.02-4.02.02.02-4.02-8.01.02.02-4.02-4.02.02.02-8.01-4.02.02.02-4.02-4.02.02.02-4.02-4.02.02.02-8.01-4.02.02.02-4.02-4.02.02.02-4.02-4.02.02.02-4.02-4.02.02.02-4.02-4.02.02.02-4.02-4.02.02.02-4.02-4.02.02.02-4.02-4.02.02.02-4.02-4.02.02.02-4.02-4.02.02.02-8.01-4.02.02.02-4.02-4.02.02.02-4.02-4.02.02.02-12.01-4.02.02.02-4.02-4.02.02.02-8.01h-4.02s.02-8,.02-8h-4.02s.02-8,.02-8h-4.02s.02-8,.02-8h-4.02s.02-8,.02-8l-4.02.02.02-4.02-4.02.02.02-8.01h-4.01s0-19.99,0-19.99h-4v-20h4.01s0-4,0-4h-4.01v-16h-4v-32h-8v-4c4.19.32,4.39.47,3.99-4.01l4.02.02-.02-8.01h4.01s0-23.99,0-23.99h4s0,4.01,0,4.01h8.01s0-4,0-4h-4.02s0-4,0-4h8.01s-.02-4.01-.02-4.01l4.02.02-.02-4.02,4.02.02-.02-4.02h12.01s-.01-11.99-.01-11.99h8.01s-.01-8-.01-8h4.02s0-3.99,0-3.99h-8.01s.02,4,.02,4l-4.02-.02v4.02s-3.98,0-3.98,0l-.03-7.43,4.03-.57-.02-4.02,4.02.02-.02-4.02h4.02s0-3.99,0-3.99h-4.02s0-4,0-4h4.02c.13-7.98-.2-16.02,0-24,1.33-.08,2.68.07,4,0v-8.01s-4,0-4,0c-.06,2.66.06,5.35,0,8-2.64.16-5.35-.11-8,0v-20h4.01s-.02-12-.02-12h4.02s-.02-8-.02-8l4.02.02-.02-4.02,4.02.02-.02-8.01,4.02.02-.02-4.02,8.01.02-.02-4.02,4.02.02-.02-4.02h8.01s.57,4.03.57,4.03h7.43s0-4.02,0-4.02h16v-4.01s4,0,4,0v16h-4v16h8s-.01-12-.01-12h4.02s0-3.99,0-3.99h-4.02s0-8.01,0-8.01l4.02.02-.02-4.02h8.01s0,4,0,4h-4.02s.01,12.01.01,12.01h3.99s0-4.01,0-4.01h12.01s0,12.01,0,12.01h-4.02s0,3.99,0,3.99h4.02s0,4,0,4h-4.02c-.06,1.32.09,2.68,0,4-2.66.07-5.35-.05-8.01,0l.02,4.02-4.02-.02.02,4.02-4.02-.02.02,4.02-4.02-.02c-.06,1.33.09,2.68,0,4.01-3.99.1-8.02-.07-12,0v8.01s-4-.02-4-.02l.02,4.02h-8.01s.01,8,.01,8l-4.02-.02.02,4.02-4.02-.02.02,4.02-4.02-.02.02,4.02-8.01-.02.02,4.02-4.02-.02.02,4.02h-4.02s0,3.98,0,3.98h8.01s-.02-4-.02-4l4.02.02v-4.02s3.98,0,3.98,0v8.01s-3.99,0-3.99,0v16h-8s0,8,0,8h4.02s-.02,12-.02,12h4.02s0,12,0,12h-4.02s0,12,0,12h4.02s-.01,12-.01,12h8.01s-.02,4-.02,4l4.02-.02-.02,8.01h4.01s0,23.99,0,23.99h8s0-8,0-8h-4.02s.01-8,.01-8h3.99s0,4.01,0,4.01h4v-36l-4.02-.58v-7.43s4.03,0,4.03,0v-4h-20.01v-4h16v-16h-8s0-12,0-12h4.02s0-3.99,0-3.99h-4.02s0-4,0-4h4.02s-.02-8.01-.02-8.01h4.02s-.02-12-.02-12l4.02.02-.02-4.02,4.02.02v-12.01s-4.02,0-4.02,0v-3.99s4.02,0,4.02,0l-.02-4.02,4.02.02-.02-4.02,4.02.02c.06-1.33-.09-2.68,0-4.01,2.66-.07,5.35.05,8.01,0l-.02-4.02,4.02.02-.02-4.02,4.02.02-.02-4.02,4.02.02c.06-1.33-.09-2.68,0-4.01,2.65-.07,5.35-.05,8,0-.08,1.33.07,2.68,0,4.01l-4.02-.02.02,4.02h-4.02s0,3.98,0,3.98h8.01s-.02-4-.02-4l4.02.02v-8.01c-1.33-.03-2.67.03-4.01,0,.08-1.33-.07-2.68,0-4.01h4.02s-.01-8-.01-8h8.01c.06-1.32-.08-2.67,0-3.99ZM-209.98,794.04c2.66-.05,5.35.04,8.01,0v-4.02s8,.01,8,.01v-12.01s-4,0-4,0v4.02s-4.01-.02-4.01-.02l.02,4.02-4.02-.02.02,4.02-4.02-.02c-.06,1.33.09,2.68,0,4.01-2.66.05-5.35-.04-8.01,0v4.02s-8,0-8,0v3.99s12.01.01,12.01.01l-.02-4.02,4.02.02c.06-1.33-.09-2.68,0-4.01ZM-141.98,898.03h-8.01v3.99h8.01v-3.99ZM-113.99,902.03h-8.01s0,8,0,8h3.99s0-4.01,0-4.01h4.02s0-3.99,0-3.99ZM-257.97,910.02h-8.01s0,4,0,4h4.02s0,4.01,0,4.01h3.99s0-8.01,0-8.01ZM-201.98,914.02h-3.99v8.01h3.99v-8.01ZM-305.97,918.02h-3.99v12.01h3.99s0-4.01,0-4.01h4.02s0-3.99,0-3.99h-4.02s0-4.01,0-4.01ZM-66,946.02h-16v4s4.01,0,4.01,0v4.02s3.99,0,3.99,0v-4.02s4,0,4,0l.51,8.01h3.49s0-12,0-12ZM-189.98,970.02h-8.01v3.99h8.01v-3.99ZM-185.98,978.01h-8.01s0,4,0,4h4.02s0,4.01,0,4.01h3.99s0-8.01,0-8.01ZM225.96,998.01h-3.99s0,4.01,0,4.01h-8.01s0,3.99,0,3.99h12.01s0-8,0-8ZM217.97,1022.02h-8.01s.02,4,.02,4h-4.02s0,3.99,0,3.99h8.01s-.02-4-.02-4h4.02s0-3.99,0-3.99ZM-86,1050h-3.99s0,4.02,0,4.02l-4.02-.02v8.01s-11.99,0-11.99,0v3.99s4.01,0,4.01,0v12.01s8,0,8,0v-8.01s4,.02,4,.02l-.02-4.02h4.02s0-3.99,0-3.99h-4.02s0-4,0-4h8.01s0-4,0-4h-4.02s0-4.01,0-4.01ZM89.99,1062.01h-8.01v3.99h8.01v-3.99ZM81.99,1070.01v20h4s0-4.01,0-4.01h4.02s0-3.99,0-3.99l-4.03-.58v-7.43s4.03,0,4.03,0v-3.99s-8.01,0-8.01,0ZM-61.99,1086.01h-12.01v3.99h12.01v-3.99ZM-77.99,1122h-8.01v3.99h8.01v-3.99ZM273.96,1141.99h-3.99v8.01h3.99v-8.01Z"/>
    <path class="cls-1" d="M-2,878.03c-.07-2.66.05-5.35,0-8.01h-4.02s.02-8,.02-8h-4.02s0-3.99,0-3.99h4.02s-.02-4.01-.02-4.01l4.02.02-.02-4.02,8.01.02-.02-4.02,4.02.02-.02-4.02,4.02.02-.02-4.02,8.01.02v-4.02s8,.02,8,.02v-4.02s8,.02,8,.02v-4.02s12,.02,12,.02l-.02-4.02,4.02.02-.02-12.01,4.02.02-.02-4.02,4.02.02-.02-4.02,4.02.02-.02-4.02h12.01s0,4,0,4h-4.02s.02,4.01.02,4.01l-4.02-.02.02,4.02-8.01-.02.02,4.02-4.02-.02v12.01s8.01,0,8.01,0v-4.01s15.99,0,15.99,0v-4h24v8s-4.02.57-4.02.57l.03,7.43h3.99s0-4.01,0-4.01l4.02.02v-8.01s8,.01,8,.01l-.02-4.02,4.02.02v-8.01s3.99,0,3.99,0v4.02s4,0,4,0v-4.02s4,0,4,0v8.01s-4-.01-4-.01l.02,8.01-4.02-.02.02,4.02-8.01-.02v4.02s-8-.02-8-.02l.02,4.02-4.02-.02.02,4.02-16.01-.02.02,4.02h-4.02s0,3.99,0,3.99h8.01s0,4,0,4h-4.02s.02,4.01.02,4.01l-4.02-.02.02,4.02-4.02-.02.02,4.02-4.02-.02.02,4.02-4.02-.02.02,4.02h-8.01v-20.01h-4s0,8,0,8h-8.01s.02-4.01.02-4.01l-4.02.02v-4.02s-3.99,0-3.99,0v4.02s-8.01-.02-8.01-.02v4.02s-12,0-12,0v-4.02s-3.99,0-3.99,0v4.02s-4.01-.02-4.01-.02l.02,8.01h-4.02s.01,8,.01,8c-5.3.22-10.72-.32-16,0,.1,3.99-.06,8.02,0,12h-3.99s0-12.01,0-12.01c1.32-.07,2.68.09,4,0Z"/>
    <path class="cls-1" d="M217.97,894.03c.08-1.33-.07-2.68,0-4.01l4.02.02-.02-4.02,4.02.02-.02-4.02h8.01s0-3.99,0-3.99h-4.02s0-4,0-4h12.01s0-4,0-4h-4.02s.02-4.01.02-4.01h-8.01s.02,4.02.02,4.02l-4.02-.02.02,4.02-4.02-.02.02,8.01-4.02-.02v4.02s-3.99,0-3.99,0v-8.01s-4,0-4,0v12.01s-4.01-.02-4.01-.02l.02,4.02-4.02-.02.02,4.02-4.02-.02v4.02s-3.99,0-3.99,0v-4.02s-12.01.02-12.01.02v-4.02s-8,.01-8,.01v-20.01s4.01.01,4.01.01l-.02-8.01,4.02.02-.02-4.02,4.02.02-.02-4.02,8.01.02v-4.02s8,.01,8,.01v3.99s-4.01,0-4.01,0v3.99s4.02,0,4.02,0l-.02,4.02,4.02-.02-.02,4.02,4.02-.02v4.02s3.98,0,3.98,0v-8.01s4,0,4,0v4.02s4,0,4,0v-8.01s8.01.01,8.01.01v-4.02s8,.02,8,.02l-.02-4.02,4.02.02v-4.02s3.98,0,3.98,0v8.01s4,0,4,0v-8.01s4,0,4,0v-24h4.01s-.02-4.01-.02-4.01l8.01.02-.02-4.02,4.02.02-.02-4.02h8.01s0-7.99,0-7.99h4v20h-8s.01,8,.01,8h-8.01s.01,8,.01,8h-4.02s0,3.99,0,3.99h4.02s0,4,0,4h-8.01s0,8.01,0,8.01h4.02s0,3.99,0,3.99h-4.02s.02,8.01.02,8.01l-4.02-.02.02,4.02-4.02-.02.02,4.02-4.02-.02v16.01s4.02,0,4.02,0v3.99s-8.01,0-8.01,0v16h-12s0-4,0-4h4.02s0-4,0-4h-4.02s.02-4.01.02-4.01c-2.66-.02-5.34.05-8.01,0,.08-1.33-.07-2.68,0-4h4.02s0-3.99,0-3.99c-2.66-.02-5.34,0-8,0Z"/>
    <path class="cls-1" d="M217.97,894.03c-.08,1.33.07,2.68,0,4h-4.02s0,3.99,0,3.99c2.66.05,5.34-.04,8,0-.08,1.33.07,2.68,0,4.01l-4.02-.02.02,4.02h-8.01s0-16.01,0-16.01c2.66,0,5.34,0,8,0Z"/>
    <path class="cls-1" d="M201.97,818.04c.03,1.33-.04,2.68,0,4h4.02s0,3.99,0,3.99h-4.02s.02,4.01.02,4.01l-4.02-.02.02,4.02-4.02-.02.02,4.02-4.02-.02.02,4.02-12.01-.02v4.02s-12,0-12,0v-8.01s4.01.02,4.01.02l-.02-4.02,4.02.02-.02-12.01,4.02.02-.02-4.02,8.01.02v-4.02s8,.02,8,.02v-4.02s3.99,0,3.99,0v8.01c1.33.01,2.67,0,4,0-.06-2.66.03-5.35,0-8h3.99s0,8.01,0,8.01c-1.33.01-2.67,0-4,0Z"/>
    <path class="cls-1" d="M265.96,798.04c2.64.16,5.36-.11,8.01,0l-.02-4.02,4.02.02v-20.01s-4.02,0-4.02,0v-3.99s8.01,0,8.01,0v-8.01s3.99,0,3.99,0v4.02s4.02.57,4.02.57v11.43s-4.02,0-4.02,0v20h-4.01s.02,4.01.02,4.01l-8.01-.02.02,4.02-4.02-.02.02,4.02-4.02-.02v4.02s-3.98,0-3.98,0l-.03-11.43,4.03-.57c.06-1.33-.09-2.68,0-4.01-1.33-.08-2.68.07-4,0v-8.01s4.01.01,4.01.01v-8.01s3.99,0,3.99,0v12.01s-4-.01-4-.01c-.06,1.33.09,2.68,0,4.01Z"/>
    <polygon class="cls-1" points="161.97 826.03 161.98 834.04 157.97 834.03 157.98 842.04 149.97 842.02 149.99 846.04 145.97 846.02 145.99 850.04 141.97 850.03 141.98 858.04 133.97 858.04 133.97 846.03 137.99 846.04 137.97 842.02 141.99 842.04 141.97 838.02 145.99 838.04 145.97 834.03 153.98 834.04 153.97 830.03 157.99 830.04 157.98 826.03 161.97 826.03"/>
    <polygon class="cls-1" points="329.96 1022.02 329.96 1026.01 325.95 1026 325.96 1030.02 321.95 1030 321.97 1034.02 317.95 1034 317.97 1038.02 313.95 1038 313.95 1042.02 309.96 1042.01 309.95 1034 313.97 1034.02 313.95 1030 317.97 1030.02 317.95 1026 321.97 1026.02 321.95 1022 329.96 1022.02"/>
    <polygon class="cls-1" points="293.96 858.02 293.95 862.04 297.97 862.03 297.96 866.03 289.95 866.02 289.97 870.04 285.95 870.02 285.96 878.03 281.97 878.03 281.95 866.02 285.97 866.04 285.95 862.02 289.97 862.04 289.96 858.02 293.96 858.02"/>
    <polygon class="cls-1" points="257.96 930.02 257.97 942.03 253.95 942.01 253.97 946.03 245.96 946.03 245.96 938.02 249.97 938.03 249.95 934.01 253.97 934.03 253.97 930.01 257.96 930.02"/>
    <polygon class="cls-1" points="117.98 778.04 117.99 786.05 113.97 786.03 113.99 794.05 109.97 794.03 109.98 798.05 105.99 798.04 105.97 790.03 109.99 790.05 109.97 782.04 113.99 782.05 113.99 778.03 117.98 778.04"/>
    <polygon class="cls-1" points="101.99 794.03 101.99 802.04 93.98 802.03 93.98 806.05 89.99 806.04 89.98 798.03 93.99 798.05 93.98 794.03 101.99 794.03"/>
    <path class="cls-1" d="M277.96,890.03c.04-2.66-.04-5.34,0-8h3.99s0,8.01,0,8.01c-1.33.07-2.68-.09-4,0-.04,2.66.03,5.35,0,8.01l-4.02-.02v4.02s-3.99,0-3.99,0v-12.01c2.64-.11,5.35.16,7.99,0Z"/>
    <rect class="cls-1" x="133.98" y="862.03" width="3.99" height="8.01"/>
    <rect class="cls-1" x="93.98" y="974.02" width="8.01" height="3.99"/>
    <rect class="cls-1" x="-2" y="934.02" width="3.99" height="8.01"/>
    <rect class="cls-1" x="297.96" y="762.04" width="3.99" height="8.01"/>
    <path class="cls-1" d="M129.98,766.04c.03-2.66-.04-5.34,0-8h3.99s0,8.01,0,8.01c-1.33.05-2.67-.07-4,0-.03,2.66.04,5.34,0,8h-3.99s0-8.01,0-8.01c1.33-.05,2.67.07,4,0Z"/>
    <rect class="cls-1" x="13.99" y="990.02" width="8.01" height="3.99"/>
    <rect class="cls-1" x="5.99" y="1098.01" width="8.01" height="3.99"/>
    <rect class="cls-1" x="293.95" y="1114" width="8.01" height="3.99"/>
  </g>
  <g>
    <path class="cls-1" d="M910.02-301.96c-2.66-.05-5.35.04-8,0v-12.01s4.01.02,4.01.02l-.02-4.02,4.02.02-.02-4.02,8.01.02-.02-4.02,4.02.02-.02-4.02,4.02.02-.02-4.02,12.01.02-.02-4.02,4.02.02v-8.01s-4,0-4,0l-.58,4.03-11.43-.03v-3.99s4.01,0,4.01,0l-.02-4.02,4.02.02-.02-4.02,4.02.02-.02-4.02,8.01.02v-4.02s3.99,0,3.99,0v4.02s4,0,4,0v-4.01h16v4s-4.01,0-4.01,0l.02,4.02h-8.01s0,3.99,0,3.99h8.01s0,4,0,4h-4.02s.02,4.01.02,4.01h-8.01s.01-4.02.01-4.02h-8.01s0,8.01,0,8.01h4.02s0,3.99,0,3.99h-4.02s.02,4.01.02,4.01l-16.01-.02.02,4.02-4.02-.02v8.01s-8-.01-8-.01l.02,4.02-4.02-.02.02,8.01h-4.02c-.06,1.32.08,2.66,0,3.99,1.33.03,2.67-.04,4,0l.02,11.43-4.03.58v3.99s8.01,0,8.01,0v-12.01s4,.02,4,.02l-.02-4.02,4.02.02-.02-4.02,8.01.02-.02-4.02,4.02.02v-8.01s8,.01,8,.01l-.02-4.02,4.02.02-.02-4.02,4.02.02-.02-4.02h8.01s0,8.01,0,8.01h3.99s0-4.01,0-4.01h3.99s0,8.01,0,8.01h-8.01s0,8,0,8h3.99s0-4.01,0-4.01l12.01.02v-4.02s8,.02,8,.02l-.02-4.02,4.02.02-.02-4.02,4.02.02-.02-4.02,4.02.02v-4.02s3.99,0,3.99,0v4.02s4,0,4,0v-8.01s8.01.01,8.01.01v-4.02s8,.02,8,.02v-4.02s12,.02,12,.02v-4.02s12,0,12,0l-.02,4.02,4.02-.02v12.01s8,0,8,0v-4.02s3.99,0,3.99,0v4.02s4.01-.02,4.01-.02l-.02,4.02h12.01s0-4.02,0-4.02h3.99s0,4.02,0,4.02h8.01s-.01,8-.01,8l4.02-.02-.02,4.02,12.01-.02-.02,4.02,4.02-.02v8.01s-4.02,0-4.02,0v3.99s8.01,0,8.01,0v4.02s8-.01,8-.01v8.01s7.99,0,7.99,0v16h-4.01s.02,4.01.02,4.01l-4.02-.02.02,4.02-4.02-.02.02,4.02-4.02-.02.02,4.02-4.02-.02.02,4.02-8.01-.02.02,4.02-4.02-.02.02,4.02-8.01-.02v4.02s-8-.02-8-.02v4.02s-8,0-8,0v-4.02s-3.99,0-3.99,0v4.02s-8.01-.01-8.01-.01v8.01s-3.99,0-3.99,0v-4.02s-4,0-4,0v4.02s-4,0-4,0v-8h-20v4.01s-12-.02-12-.02v4.02s-8-.02-8-.02l.02,4.02-4.02-.02.02,4.02-4.02-.02.02,4.02h-8.01s.01-4.02.01-4.02c-1.33-.03-2.67.04-4,0,0,1.33.02,2.67,0,4h-8.01s0-4,0-4c2.66.03,5.35-.07,8,0,0-1.33.02-2.67,0-4h-16.01s.01-8,.01-8l-7.43-.02-.57,4.03-4.02-.02.02,4.02-4.02-.02.02,4.02h-12.01s0-12.01,0-12.01l4.03-.57-.03-7.43h-3.99s0,4.01,0,4.01l-4.02-.02.02,4.02-4.02-.02.02,4.02-4.02-.02.02,4.02-4.02-.02.02,4.02-4.02-.02.02,4.02-4.02-.02.02,4.02-12.01-.02v4.02c-1.31.06-2.67-.09-3.99,0,0,2.66,0,5.34,0,8h-8.01s0-4,0-4h4.02s-.02-4.01-.02-4.01c1.33-.06,2.68.09,4.01,0,0-2.66.01-5.34,0-8h-3.99s0,4.01,0,4.01l-4.02-.02.02,4.02-8.01-.02.02,4.02-4.02-.02v4.02s-3.99,0-3.99,0v-4.02s-4,0-4,0v4.02s-4.01-.02-4.01-.02l.02,12.01-4.02-.02.02,4.02h-4.02s0,3.99,0,3.99h4.02s-.02,4.01-.02,4.01l4.02-.02v4.02s3.99,0,3.99,0v-4.02s12.01,0,12.01,0v12.01s-4.01-.01-4.01-.01c-.02,2.66.05,5.34,0,8.01-1.33.07-2.68-.07-4,0v8.01s4,0,4,0c.05-2.66-.04-5.34,0-8,1.33-.07,2.68.07,4.01,0v-4.02s8,.01,8,.01v-8.01s4,0,4,0v-3.99s-4.02,0-4.02,0v-3.99s4.02,0,4.02,0l-.02-8.01h4.02s0-3.99,0-3.99h-4.02s0-8.01,0-8.01h8.01s0,8.01,0,8.01h3.99s0-4.01,0-4.01l4.02.02-.02-4.02,4.02.02-.02-4.02h8.01s0-7.99,0-7.99h3.99s0,8.01,0,8.01h4.02c-.12,2.64.15,5.35,0,7.99-1.33-.08-2.68.07-4,0v-4.02s-3.99,0-3.99,0v8.01s8,0,8,0c.07-1.32-.09-2.68,0-4,1.33.08,2.68-.07,4.01,0v4.02s8,0,8,0v3.99s-4.01,0-4.01,0v3.99s4.02,0,4.02,0v4.02s3.99,0,3.99,0v-4.02s12.01.02,12.01.02l.57-4.03h7.43s-.01,4.03-.01,4.03c4.78.8,14.64-2.55,15.97,3.53.3,1.37-.04,3.03.04,4.47h-8.01s.01,12,.01,12l-4.02-.02.02,4.02-4.02-.02.02,8.01h-4.02s0,3.99,0,3.99h4.02s0,4,0,4h-8.01s.01,8.01.01,8.01l-4.02-.02.02,4.02-4.02-.02.02,4.02-4.02-.02v8.01s-3.99,0-3.99,0v-16h-4.01s-.01-11.42-.01-11.42l4.03-.58v-3.99s-8.01,0-8.01,0v-3.99s4.01,0,4.01,0v-8.01s3.49,0,3.49,0l.51,8.01h3.99s0-12.01,0-12.01h-12.01s.01,8.01.01,8.01l-4.02-.02.02,4.02-4.02-.02.02,4.02-4.02-.02.02,4.02h-8.01s.01,8,.01,8h-4.01s0,19.99,0,19.99h-4s0-4.01,0-4.01h-8.01s.01-12,.01-12h-4.02c-.03-1.32.04-2.66,0-3.99,2.66-.06,5.35.06,8,0v-3.99s-4.01,0-4.01,0v-4.02s-3.99,0-3.99,0c.03,2.66-.07,5.35,0,8-1.33.03-2.68-.04-4.01,0l.02,4.02-4.02-.02.02,8.01-4.02-.02.02,4.02c-1.33.03-2.67-.04-4.01,0-.13-2.18.55-15.85-.57-16.02l-7.43.02v3.99s4.01,0,4.01,0v3.99s-4.02,0-4.02,0l.02,4.02-4.02-.02c-.06,1.33.09,2.68,0,4.01-3.99.05-8.01-.04-12,0v12.01s8.01,0,8.01,0v-8.01s4,.01,4,.01c.06-1.33-.09-2.68,0-4.01,3.99-.05,8.01.1,12,0,.08,1.33-.07,2.68,0,4l7.43.02.57-4.03h8.01s-.01,12.01-.01,12.01h4.02s0,3.99,0,3.99h-4.02s0,8.01,0,8.01l4.02-.02-.02,4.02h4.02s0,3.99,0,3.99h-4.02s.02,12.01.02,12.01h-4.02s0,3.99,0,3.99h4.02s0,4,0,4h-4.02s0,4,0,4h4.02s-.02,4.01-.02,4.01h4.02s0,3.99,0,3.99h-4.02s.02,4.01.02,4.01l-4.02-.02.02,4.02h-8.01s0,8,0,8l4.02-.02v4.02s3.99,0,3.99,0v-4.02s4.01.02,4.01.02l-.02-4.02,8.01.02-.02-4.02,4.02.02v-8.01s8,.01,8,.01l-.02-4.02,4.02.02-.02-4.02c1.33-.01,2.67,0,4.01,0,.05-2.66-.04-5.35,0-8.01l4.02.02-.02-4.02h8.01s-.01-8-.01-8l4.02.02-.02-4.02,4.02.02-.02-8.01,4.02.02-.02-4.02h8.01s0-3.99,0-3.99h-4.02s0-4,0-4h12.01s0-4,0-4h-4.02s0-4,0-4h4.02s-.02-4.01-.02-4.01l4.02.02c0-2.66-.02-5.34,0-8.01-1.33,0-2.67.02-4,0v-8.01s4,0,4,0c.01,2.66.01,5.34,0,8,1.33,0,2.67.02,4,0v-8.01s4,.02,4,.02l-.02-4.02,4.02.02-.02-16.01,4.02.02-.02-4.02,4.02.02-.02-4.02h8.01s0-7.99,0-7.99h3.99s0,4.01,0,4.01l8.01-.02-.02,4.02,4.02-.02-.02,4.02,8.01-.02v4.02s3.99,0,3.99,0v-8.01s4,0,4,0v16h8.01s-.02,4.01-.02,4.01l4.02-.02-.02,4.02,4.02-.02-.02,4.02h4.02s0,3.99,0,3.99h-4.02s0,4.01,0,4.01h-3.99s0-4.02,0-4.02l-4.02.02v-4.02s-3.99,0-3.99,0v8.01s4-.02,4-.02l-.02,4.02,8.01-.02v4.02s3.99,0,3.99,0v-4.02s8.01,0,8.01,0v8.01s-8.01-.01-8.01-.01v8h20v4s-4.01,0-4.01,0l.02,8.01h-4.02s0,3.99,0,3.99h4.02s0,4,0,4h-32v4.01s-8,0-8,0v-8.01s-3.99,0-3.99,0v4.02s-12.01-.02-12.01-.02v4.02s-8-.02-8-.02v4.02s-12-.02-12-.02v4.02s-3.99,0-3.99,0v-4.02s-12.01,0-12.01,0v4.02s-8-.02-8-.02l.02,4.02-4.02-.02.02,4.02h-12.01s.01-4.02.01-4.02h-8.01s.01,8.01.01,8.01l-4.02-.02.02,4.02h-8.01s.01-4.02.01-4.02c-1.33-.01-2.67,0-4,0-.05,2.66.04,5.35,0,8.01h-4.02s0,3.99,0,3.99h8.01s0,4,0,4h-4.02s0,4,0,4h8.01s-.01,12.01-.01,12.01h8.01s-.01-8.01-.01-8.01l4.02.02-.02-4.02,8.01.02v-4.02s3.99,0,3.99,0v4.02s4,0,4,0v-4.02s4.01.02,4.01.02v-4.02s3.99,0,3.99,0v4.02s4,0,4,0v-4.02s12.01.02,12.01.02v-4.02s3.99,0,3.99,0v12.01s4.02.57,4.02.57v7.43s-4.03,0-4.03,0v3.99s8.01.01,8.01.01v-4.02s3.99,0,3.99,0v8.01s4,0,4,0v-4.02s4,0,4,0v8h20v4h16v8.01s-4.01-.02-4.01-.02l.02,4.02-4.02-.02.02,4.02-4.02-.02.02,4.02-4.02-.02.02,4.02-4.02-.02.02,4.02-4.02-.02.02,4.02h-8.01s0,3.99,0,3.99h4.02s0,4,0,4h-4.02s.02,4.01.02,4.01l-4.02-.02.02,4.02-4.02-.02.02,4.02-4.02-.02.02,4.02h-4.02s0,3.98,0,3.98h8.01s-.02-4-.02-4l4.02.02-.02-4.02,4.02.02-.02-4.02,4.02.02-.02-4.02,4.02.02-.02-4.02,4.02.02v-4.02s3.99,0,3.99,0v4.02s4,0,4,0V2h4.01s-.02-4.01-.02-4.01l4.02.02-.02-4.02,4.02.02-.02-4.02,4.02.02-.02-4.02,8.01.02-.02-4.02,4.02.02v-4.02s3.99,0,3.99,0v4.02s8.01,0,8.01,0v-8.01s3.99,0,3.99,0v4.02s7.43.01,7.43.01l.57-4.03h8.01l.57,4.03h7.43s0-4.03,0-4.03h3.99s0,8.01,0,8.01h8.01s0,3.99,0,3.99h-4.02s.02,4.01.02,4.01l-4.02-.02V-1.99s-8-.01-8-.01V2.01s-8-.02-8-.02v4.02s-12-.02-12-.02v4.02s-3.99,0-3.99,0v-4.02s-8.01,0-8.01,0v12s-27.99,0-27.99,0v4h16v4.01s4,0,4,0v-4.02s8.01,0,8.01,0v4.01s15.99,0,15.99,0v4.01s8,0,8,0v-8.01s3.99,0,3.99,0v4.02s4,0,4,0v-8.01s4,0,4,0v4.02s4,0,4,0v-8.01s7.43-.02,7.43-.02l.57,4.03,4.02-.02v4.02s3.99,0,3.99,0v-4.02s12.01,0,12.01,0l-.02,4.02,4.02-.02-.02,4.02h8.01s0,19.99,0,19.99h4s0-12,0-12h4.02c.06-1.31-.09-2.67,0-3.99,2.64.16,5.36-.11,8.01,0l-.02-4.02h4.02s0-3.99,0-3.99h-8.01s.02,4,.02,4l-4.02-.02c-.06,1.33.09,2.68,0,4.01-1.33-.08-2.68.07-4,0v-8.01s-4,0-4,0v-3.99s8.01,0,8.01,0v-3.99s-4,0-4,0V-9.99h-4.01s0-4,0-4h4.02s-.01-12.01-.01-12.01h12.01s-.02-4-.02-4l4.02.02-.02-4.02,8.01.02-.02-4.02,4.02.02v-8.01s-4.02,0-4.02,0v-3.99s4.02,0,4.02,0v-3.99s-4.02,0-4.02,0v-3.99s4.02,0,4.02,0l-.02-4.02,4.02.02-.02-4.02,4.02.02v-11.43s-4.02-.58-4.02-.58v-3.99s4.02,0,4.02,0v-3.99s-4.02,0-4.02,0v-3.99s4.02,0,4.02,0v-3.99s-8.01,0-8.01,0v-3.99s8.01,0,8.01,0v-12.01s4,.02,4,.02v-4.02s3.99,0,3.99,0v4.02s4.01-.02,4.01-.02v8.01s8-.01,8-.01v4.02s8,0,8,0c.04-2.66-.07-5.35,0-8-1.33-.08-2.68.07-4.01,0l.02-4.02h-4.02s0-3.99,0-3.99h12.01s0,3.99,0,3.99h-4.02c-.03,1.33.04,2.67,0,4,1.33.08,2.68-.07,4.01,0l-.02,4.02,4.02-.02-.02,4.02,4.02-.02-.02,4.02h8.01s0,3.99,0,3.99h-4.02s.02,4.01.02,4.01l-4.02-.02v4.02s-3.99,0-3.99,0v-4.02s-4,0-4,0v4.02s-4.01,0-4.01,0v4h16.01v4s-4.01,0-4.01,0l.02,4.02-4.02-.02c-.06,1.33.08,2.68,0,4.01-2.66.04-5.34-.04-8,0v3.99s8.01,0,8.01,0c.06-1.33-.08-2.68,0-4,2.66-.04,5.35.03,8.01,0v-4.02s8,.02,8,.02v-4.02s3.99,0,3.99,0v8.01s-8-.01-8-.01v4.02s-8-.02-8-.02l.02,4.02-4.02-.02.02,4.02-8.01-.02.02,4.02h-4.02s0,3.99,0,3.99h8.01s-.01-4-.01-4l8.01.02v-4.02s8,.02,8,.02v-4.02s8,.02,8,.02l-.02-4.02,4.02.02-.02-4.02,4.02.02-.02-4.02,4.02.02-.02-4.02,4.02.02-.02-4.02,4.02.02-.02-4.02,4.02.02-.02-4.02,8.01.02-.02-4.02,4.02.02-.02-4.02h8.01s0,8.01,0,8.01h3.99s0-4.01,0-4.01l8.01.02-.02-4.02,4.02.02-.02-4.02,4.02.02-.02-4.02,4.02.02v-8.01s3.99,0,3.99,0v4.02s4.01-.02,4.01-.02v8.01s7.99,0,7.99,0v3.99s-4.01,0-4.01,0v8h16.01v8.01s4.01-.02,4.01-.02l-.02,4.02,4.02-.02-.02,8.01,4.02-.02-.02,4.02,4.02-.02v8.01s-8.01-.01-8.01-.01l.02,4.02h-4.02s0,3.99,0,3.99h12.01s-.02,4.01-.02,4.01h4.02s0,3.99,0,3.99h-4.02s.02,12.01.02,12.01l-4.02-.02.02,4.02-4.02-.02.02,4.02-4.02-.02.02,4.02-4.02-.02.02,4.02-4.02-.02.02,4.02-4.02-.02.02,4.02-4.02-.02.02,4.02-4.02-.02.02,4.02h-4.02s0,3.98,0,3.98h8.01s-.02-4-.02-4l4.02.02-.02-4.02,4.02.02-.02-4.02,4.02.02-.02-4.02,8.01.02v-4.02s3.99,0,3.99,0V-1.99s4.01,0,4.01,0v3.99s-4.02,0-4.02,0l.02,4.02-4.02-.02.02,4.02-4.02-.02.02,4.02-4.02-.02.02,4.02-4.02-.02.02,4.02-4.02-.02.02,4.02-4.02-.02.02,4.02-8.01-.02.02,4.02-4.02-.02.02,4.02-4.02-.02.02,4.02-4.02-.02.02,4.02-4.02-.02.02,4.02-4.02-.02.02,4.02-8.01-.02.02,4.02-4.02-.02.02,4.02-4.02-.02.02,4.02-8.01-.02v4.02s-8-.01-8-.01v8.01s-8-.01-8-.01v4.02s-3.99,0-3.99,0v-4.02s-4,0-4,0v4.02s-8.01-.02-8.01-.02l.02,4.02h-4.02s0,3.99,0,3.99h8.01s-.01-4-.01-4h8.01s0,4,0,4h-4.02s0,4,0,4h8.01s-.02-4-.02-4l4.02.02-.02-4.02,4.02.02-.02-4.02,16.01.02-.02-4.02,4.02.02-.02-4.02,8.01.02-.02-4.02,4.02.02-.02-4.02,8.01.02-.02-4.02,4.02.02-.02-4.02,8.01.02-.02-4.02,4.02.02-.02-4.02,4.02.02-.02-4.02,4.02.02-.02-4.02,4.02.02-.02-4.02,4.02.02-.02-4.02,4.02.02-.02-4.02,8.01.02-.02-4.02,4.02.02-.02-4.02,4.02.02-.02-4.02h8.01s0,8.01,0,8.01h3.99s0-4.01,0-4.01h3.99s0,8.01,0,8.01h-12.01s.01,12,.01,12h-12s0,19.99,0,19.99h4.01s-.02,4.01-.02,4.01h7.43s.58-4.02.58-4.02h3.99s0,4.02,0,4.02h3.99s0-4.02,0-4.02h8.01s-.01,8.01-.01,8.01l4.02-.02-.02,4.02,4.02-.02v8.01s-4.02,0-4.02,0v3.99s4.01,0,4.01,0v16h-4.01s.02,8,.02,8h-4.02s.02,8,.02,8h-4.02s.02,8,.02,8l-4.02-.02.02,4.02-4.02-.02.02,4.02-4.02-.02.02,4.02-4.02-.02.02,4.02-4.02-.02v8.01s-8-.01-8-.01v8.01s-8-.01-8-.01v8.01s-4-.02-4-.02l.02,4.02-4.02-.02.02,4.02h-8.01s.01,8,.01,8l-4.02-.02.02,4.02-4.02-.02.02,4.02-8.01-.02.02,4.02-4.02-.02v8.01s-8-.01-8-.01l.02,4.02-4.02-.02.02,4.02-4.02-.02.02,4.02-4.02-.02.02,4.02-4.02-.02.02,4.02-4.02-.02.02,4.02-4.02-.02.02,4.02-4.02-.02.02,4.02-4.02-.02.02,4.02-4.02-.02.02,4.02-4.02-.02.02,4.02-4.02-.02.02,4.02-4.02-.02.02,4.02-4.02-.02.02,4.02-4.02-.02.02,4.02-4.02-.02.02,4.02-4.02-.02.02,4.02-4.02-.02.02,4.02-4.02-.02.02,4.02-4.02-.02.02,4.02-4.02-.02.02,4.02-4.02-.02.02,4.02-4.02-.02.02,8.01-4.02-.02.02,4.02-4.02-.02.02,4.02-4.02-.02.02,4.02-4.02-.02.02,4.02-4.02-.02.02,4.02-4.02-.02.02,8.01-4.02-.02.02,4.02-4.02-.02.02,8.01-4.02-.02.02,4.02-4.02-.02.02,4.02-4.02-.02.02,4.02-4.02-.02v8.01c-4.07.58-9.36-2.45-7.99,3.99h-20c.32-4.19.47-4.39-4.01-3.99l.02-4.02-4.02.02.02-4.02-4.02.02.02-4.02-4.02.02.02-4.02-4.02.02.02-8.01-4.02.02.02-4.02-4.02.02.02-4.02-4.02.02.02-8.01-4.02.02.02-4.02-4.02.02.02-4.02-4.02.02.02-4.02-4.02.02.02-4.02-4.02.02.02-4.02-4.02.02v-8.01s-8,.01-8,.01v-8.01s-4,.02-4,.02l.02-4.02-4.02.02.02-4.02-4.02.02.02-4.02-4.02.02.02-4.02-4.02.02.02-4.02-4.02.02.02-4.02-4.02.02.02-4.02-4.02.02.02-4.02-4.02.02.02-4.02-4.02.02.02-4.02-4.02.02.02-4.02-4.02.02.02-4.02-4.02.02.02-4.02-4.02.02.02-4.02-4.02.02.02-4.02-8.01.02.02-4.02-4.02.02.02-4.02-4.02.02.02-4.02-4.02.02.02-4.02-4.02.02.02-4.02-4.02.02.02-4.02-4.02.02.02-4.02-4.02.02.02-4.02-4.02.02.02-4.02-8.01.02.02-4.02-4.02.02.02-4.02-4.02.02.02-4.02-4.02.02.02-4.02-4.02.02.02-4.02-4.02.02.02-4.02-4.02.02.02-4.02-4.02.02.02-4.02-8.01.02.02-4.02-4.02.02.02-4.02-4.02.02.02-4.02-4.02.02.02-4.02-8.01.02.02-4.02-4.02.02.02-4.02-4.02.02.02-4.02-4.02.02.02-4.02-4.02.02.02-4.02-4.02.02.02-4.02-4.02.02.02-4.02-4.02.02.02-4.02-4.02.02.02-4.02-8.01.02.02-4.02-4.02.02.02-8.01-4.02.02.02-4.02-4.02.02.02-4.02-4.02.02.02-8.01-4.02.02.02-4.02-4.02.02.02-4.02-4.02.02.02-4.02-4.02.02.02-4.02-4.02.02.02-4.02-4.02.02.02-4.02-4.02.02.02-4.02-4.02.02.02-4.02-4.02.02.02-4.02-4.02.02.02-8.01-4.02.02.02-4.02-4.02.02.02-4.02-4.02.02.02-12.01-4.02.02.02-4.02-4.02.02.02-8.01h-4.02s.02-8,.02-8h-4.02s.02-8,.02-8h-4.02s.02-8,.02-8h-4.02s.02-8,.02-8l-4.02.02.02-4.02-4.02.02.02-8.01h-4.01s0-19.99,0-19.99h-4v-20h4.01s0-4,0-4h-4.01v-16h-4v-32h-8v-4c4.19.32,4.39.47,3.99-4.01l4.02.02-.02-8.01h4.01s0-23.99,0-23.99h4s0,4.01,0,4.01h8.01s0-4,0-4h-4.02s0-4,0-4h8.01s-.02-4.01-.02-4.01l4.02.02-.02-4.02,4.02.02-.02-4.02h12.01s-.01-11.99-.01-11.99h8.01s-.01-8-.01-8h4.02s0-3.99,0-3.99h-8.01s.02,4,.02,4l-4.02-.02v4.02s-3.98,0-3.98,0l-.03-7.43,4.03-.57-.02-4.02,4.02.02-.02-4.02h4.02s0-3.99,0-3.99h-4.02s0-4,0-4h4.02c.13-7.98-.2-16.02,0-24,1.33-.08,2.68.07,4,0v-8.01s-4,0-4,0c-.06,2.66.06,5.35,0,8-2.64.16-5.35-.11-8,0v-20h4.01s-.02-12-.02-12h4.02s-.02-8-.02-8l4.02.02-.02-4.02,4.02.02-.02-8.01,4.02.02-.02-4.02,8.01.02-.02-4.02,4.02.02-.02-4.02h8.01s.57,4.03.57,4.03h7.43s0-4.02,0-4.02h16v-4.01s4,0,4,0v16h-4v16h8s-.01-12-.01-12h4.02s0-3.99,0-3.99h-4.02s0-8.01,0-8.01l4.02.02-.02-4.02h8.01s0,4,0,4h-4.02s.01,12.01.01,12.01h3.99s0-4.01,0-4.01h12.01s0,12.01,0,12.01h-4.02s0,3.99,0,3.99h4.02s0,4,0,4h-4.02c-.06,1.32.09,2.68,0,4-2.66.07-5.35-.05-8.01,0l.02,4.02-4.02-.02.02,4.02-4.02-.02.02,4.02-4.02-.02c-.06,1.33.09,2.68,0,4.01-3.99.1-8.02-.07-12,0v8.01s-4-.02-4-.02l.02,4.02h-8.01s.01,8,.01,8l-4.02-.02.02,4.02-4.02-.02.02,4.02-4.02-.02.02,4.02-8.01-.02.02,4.02-4.02-.02.02,4.02h-4.02s0,3.98,0,3.98h8.01s-.02-4-.02-4l4.02.02v-4.02s3.98,0,3.98,0v8.01s-3.99,0-3.99,0v16h-8s0,8,0,8h4.02s-.02,12-.02,12h4.02s0,12,0,12h-4.02s0,12,0,12h4.02s-.01,12-.01,12h8.01s-.02,4-.02,4l4.02-.02-.02,8.01h4.01s0,23.99,0,23.99h8s0-8,0-8h-4.02s.01-8,.01-8h3.99s0,4.01,0,4.01h4v-36l-4.02-.58v-7.43s4.03,0,4.03,0v-4h-20.01v-4h16v-16h-8s0-12,0-12h4.02s0-3.99,0-3.99h-4.02s0-4,0-4h4.02s-.02-8.01-.02-8.01h4.02s-.02-12-.02-12l4.02.02-.02-4.02,4.02.02v-12.01s-4.02,0-4.02,0v-3.99s4.02,0,4.02,0l-.02-4.02,4.02.02-.02-4.02,4.02.02c.06-1.33-.09-2.68,0-4.01,2.66-.07,5.35.05,8.01,0l-.02-4.02,4.02.02-.02-4.02,4.02.02-.02-4.02,4.02.02c.06-1.33-.09-2.68,0-4.01,2.65-.07,5.35-.05,8,0-.08,1.33.07,2.68,0,4.01l-4.02-.02.02,4.02h-4.02s0,3.98,0,3.98h8.01s-.02-4-.02-4l4.02.02v-8.01c-1.33-.03-2.67.03-4.01,0,.08-1.33-.07-2.68,0-4.01h4.02s-.01-8-.01-8h8.01c.06-1.32-.08-2.67,0-3.99ZM870.02-285.96c2.66-.05,5.35.04,8.01,0v-4.02s8,.01,8,.01v-12.01s-4,0-4,0v4.02s-4.01-.02-4.01-.02l.02,4.02-4.02-.02.02,4.02-4.02-.02c-.06,1.33.09,2.68,0,4.01-2.66.05-5.35-.04-8.01,0v4.02s-8,0-8,0v3.99s12.01.01,12.01.01l-.02-4.02,4.02.02c.06-1.33-.09-2.68,0-4.01ZM938.02-181.97h-8.01v3.99h8.01v-3.99ZM966.01-177.97h-8.01s0,8,0,8h3.99s0-4.01,0-4.01h4.02s0-3.99,0-3.99ZM822.03-169.98h-8.01s0,4,0,4h4.02s0,4.01,0,4.01h3.99s0-8.01,0-8.01ZM878.02-165.98h-3.99v8.01h3.99v-8.01ZM774.03-161.98h-3.99v12.01h3.99s0-4.01,0-4.01h4.02s0-3.99,0-3.99h-4.02s0-4.01,0-4.01ZM1014-133.98h-16v4s4.01,0,4.01,0v4.02s3.99,0,3.99,0v-4.02s4,0,4,0l.51,8.01h3.49s0-12,0-12ZM890.02-109.98h-8.01v3.99h8.01v-3.99ZM894.02-101.99h-8.01s0,4,0,4h4.02s0,4.01,0,4.01h3.99s0-8.01,0-8.01ZM1305.96-81.99h-3.99s0,4.01,0,4.01h-8.01s0,3.99,0,3.99h12.01s0-8,0-8ZM1297.97-57.98h-8.01s.02,4,.02,4h-4.02s0,3.99,0,3.99h8.01s-.02-4-.02-4h4.02s0-3.99,0-3.99ZM994-30h-3.99s0,4.02,0,4.02l-4.02-.02v8.01s-11.99,0-11.99,0v3.99s4.01,0,4.01,0V-1.99s8,0,8,0v-8.01s4,.02,4,.02l-.02-4.02h4.02s0-3.99,0-3.99h-4.02s0-4,0-4h8.01s0-4,0-4h-4.02s0-4.01,0-4.01ZM1169.99-17.99h-8.01v3.99h8.01v-3.99ZM1161.99-9.99V10h4s0-4.01,0-4.01h4.02s0-3.99,0-3.99l-4.03-.58v-7.43s4.03,0,4.03,0v-3.99s-8.01,0-8.01,0ZM1018.01,6.01h-12.01v3.99h12.01v-3.99ZM1002.01,42h-8.01v3.99h8.01v-3.99ZM1353.96,61.99h-3.99v8.01h3.99v-8.01Z"/>
    <rect class="cls-1" x="1085.99" y="18.01" width="8.01" height="3.99"/>
    <rect class="cls-1" x="1373.95" y="34" width="8.01" height="3.99"/>
  </g>
  <g>
    <path class="cls-1" d="M910.02,1858.04c-2.66-.05-5.35.04-8,0v-12.01s4.01.02,4.01.02l-.02-4.02,4.02.02-.02-4.02,8.01.02-.02-4.02,4.02.02-.02-4.02,4.02.02-.02-4.02,12.01.02-.02-4.02,4.02.02v-8.01s-4,0-4,0l-.58,4.03-11.43-.03v-3.99s4.01,0,4.01,0l-.02-4.02,4.02.02-.02-4.02,4.02.02-.02-4.02,8.01.02v-4.02s3.99,0,3.99,0v4.02s4,0,4,0v-4.01h16v4s-4.01,0-4.01,0l.02,4.02h-8.01s0,3.99,0,3.99h8.01s0,4,0,4h-4.02s.02,4.01.02,4.01h-8.01s.01-4.02.01-4.02h-8.01s0,8.01,0,8.01h4.02s0,3.99,0,3.99h-4.02s.02,4.01.02,4.01l-16.01-.02.02,4.02-4.02-.02v8.01s-8-.01-8-.01l.02,4.02-4.02-.02.02,8.01h-4.02c-.06,1.32.08,2.66,0,3.99,1.33.03,2.67-.04,4,0l.02,11.43-4.03.58v3.99s8.01,0,8.01,0v-12.01s4,.02,4,.02l-.02-4.02,4.02.02-.02-4.02,8.01.02-.02-4.02,4.02.02v-8.01s8,.01,8,.01l-.02-4.02,4.02.02-.02-4.02,4.02.02-.02-4.02h8.01s0,8.01,0,8.01h3.99s0-4.01,0-4.01h3.99s0,8.01,0,8.01h-8.01s0,8,0,8h3.99s0-4.01,0-4.01l12.01.02v-4.02s8,.02,8,.02l-.02-4.02,4.02.02-.02-4.02,4.02.02-.02-4.02,4.02.02v-4.02s3.99,0,3.99,0v4.02s4,0,4,0v-8.01s8.01.01,8.01.01v-4.02s8,.02,8,.02v-4.02s12,.02,12,.02v-4.02s12,0,12,0l-.02,4.02,4.02-.02v12.01s8,0,8,0v-4.02s3.99,0,3.99,0v4.02s4.01-.02,4.01-.02l-.02,4.02h12.01s0-4.02,0-4.02h3.99s0,4.02,0,4.02h8.01s-.01,8-.01,8l4.02-.02-.02,4.02,12.01-.02-.02,4.02,4.02-.02v8.01s-4.02,0-4.02,0v3.99s8.01,0,8.01,0v4.02s8-.01,8-.01v8.01s7.99,0,7.99,0v16h-4.01s.02,4.01.02,4.01l-4.02-.02.02,4.02-4.02-.02.02,4.02-4.02-.02.02,4.02-4.02-.02.02,4.02-8.01-.02.02,4.02-4.02-.02.02,4.02-8.01-.02v4.02s-8-.02-8-.02v4.02s-8,0-8,0v-4.02s-3.99,0-3.99,0v4.02s-8.01-.01-8.01-.01v8.01s-3.99,0-3.99,0v-4.02s-4,0-4,0v4.02s-4,0-4,0v-8h-20v4.01s-12-.02-12-.02v4.02s-8-.02-8-.02l.02,4.02-4.02-.02.02,4.02-4.02-.02.02,4.02h-8.01s.01-4.02.01-4.02c-1.33-.03-2.67.04-4,0,0,1.33.02,2.67,0,4h-8.01s0-4,0-4c2.66.03,5.35-.07,8,0,0-1.33.02-2.67,0-4h-16.01s.01-8,.01-8l-7.43-.02-.57,4.03-4.02-.02.02,4.02-4.02-.02.02,4.02h-12.01s0-12.01,0-12.01l4.03-.57-.03-7.43h-3.99s0,4.01,0,4.01l-4.02-.02.02,4.02-4.02-.02.02,4.02-4.02-.02.02,4.02-4.02-.02.02,4.02-4.02-.02.02,4.02-4.02-.02.02,4.02-12.01-.02v4.02c-1.31.06-2.67-.09-3.99,0,0,2.66,0,5.34,0,8h-8.01s0-4,0-4h4.02s-.02-4.01-.02-4.01c1.33-.06,2.68.09,4.01,0,0-2.66.01-5.34,0-8h-3.99s0,4.01,0,4.01l-4.02-.02.02,4.02-8.01-.02.02,4.02-4.02-.02v4.02s-3.99,0-3.99,0v-4.02s-4,0-4,0v4.02s-4.01-.02-4.01-.02l.02,12.01-4.02-.02.02,4.02h-4.02s0,3.99,0,3.99h4.02s-.02,4.01-.02,4.01l4.02-.02v4.02s3.99,0,3.99,0v-4.02s12.01,0,12.01,0v12.01s-4.01-.01-4.01-.01c-.02,2.66.05,5.34,0,8.01-1.33.07-2.68-.07-4,0v8.01s4,0,4,0c.05-2.66-.04-5.34,0-8,1.33-.07,2.68.07,4.01,0v-4.02s8,.01,8,.01v-8.01s4,0,4,0v-3.99s-4.02,0-4.02,0v-3.99s4.02,0,4.02,0l-.02-8.01h4.02s0-3.99,0-3.99h-4.02s0-8.01,0-8.01h8.01s0,8.01,0,8.01h3.99s0-4.01,0-4.01l4.02.02-.02-4.02,4.02.02-.02-4.02h8.01s0-7.99,0-7.99h3.99s0,8.01,0,8.01h4.02c-.12,2.64.15,5.35,0,7.99-1.33-.08-2.68.07-4,0v-4.02s-3.99,0-3.99,0v8.01s8,0,8,0c.07-1.32-.09-2.68,0-4,1.33.08,2.68-.07,4.01,0v4.02s8,0,8,0v3.99s-4.01,0-4.01,0v3.99s4.02,0,4.02,0v4.02s3.99,0,3.99,0v-4.02s12.01.02,12.01.02l.57-4.03h7.43s-.01,4.03-.01,4.03c4.78.8,14.64-2.55,15.97,3.53.3,1.37-.04,3.03.04,4.47h-8.01s.01,12,.01,12l-4.02-.02.02,4.02-4.02-.02.02,8.01h-4.02s0,3.99,0,3.99h4.02s0,4,0,4h-8.01s.01,8.01.01,8.01l-4.02-.02.02,4.02-4.02-.02.02,4.02-4.02-.02v8.01s-3.99,0-3.99,0v-16h-4.01s-.01-11.42-.01-11.42l4.03-.58v-3.99s-8.01,0-8.01,0v-3.99s4.01,0,4.01,0v-8.01s3.49,0,3.49,0l.51,8.01h3.99s0-12.01,0-12.01h-12.01s.01,8.01.01,8.01l-4.02-.02.02,4.02-4.02-.02.02,4.02-4.02-.02.02,4.02h-8.01s.01,8,.01,8h-4.01s0,19.99,0,19.99h-4s0-4.01,0-4.01h-8.01s.01-12,.01-12h-4.02c-.03-1.32.04-2.66,0-3.99,2.66-.06,5.35.06,8,0v-3.99s-4.01,0-4.01,0v-4.02s-3.99,0-3.99,0c.03,2.66-.07,5.35,0,8-1.33.03-2.68-.04-4.01,0l.02,4.02-4.02-.02.02,8.01-4.02-.02.02,4.02c-1.33.03-2.67-.04-4.01,0-.13-2.18.55-15.85-.57-16.02l-7.43.02v3.99s4.01,0,4.01,0v3.99s-4.02,0-4.02,0l.02,4.02-4.02-.02c-.06,1.33.09,2.68,0,4.01-3.99.05-8.01-.04-12,0v12.01s8.01,0,8.01,0v-8.01s4,.01,4,.01c.06-1.33-.09-2.68,0-4.01,3.99-.05,8.01.1,12,0,.08,1.33-.07,2.68,0,4l7.43.02.57-4.03h8.01s-.01,12.01-.01,12.01h4.02s0,3.99,0,3.99h-4.02s0,8.01,0,8.01l4.02-.02-.02,4.02h4.02s0,3.99,0,3.99h-4.02s.02,12.01.02,12.01h-4.02s0,3.99,0,3.99h4.02s0,4,0,4h-4.02s0,4,0,4h4.02s-.02,4.01-.02,4.01h4.02s0,3.99,0,3.99h-4.02s.02,4.01.02,4.01l-4.02-.02.02,4.02h-8.01s0,8,0,8l4.02-.02v4.02s3.99,0,3.99,0v-4.02s4.01.02,4.01.02l-.02-4.02,8.01.02-.02-4.02,4.02.02v-8.01s8,.01,8,.01l-.02-4.02,4.02.02-.02-4.02c1.33-.01,2.67,0,4.01,0,.05-2.66-.04-5.35,0-8.01l4.02.02-.02-4.02h8.01s-.01-8-.01-8l4.02.02-.02-4.02,4.02.02-.02-8.01,4.02.02-.02-4.02h8.01s0-3.99,0-3.99h-4.02s0-4,0-4h12.01s0-4,0-4h-4.02s0-4,0-4h4.02s-.02-4.01-.02-4.01l4.02.02c0-2.66-.02-5.34,0-8.01-1.33,0-2.67.02-4,0v-8.01s4,0,4,0c.01,2.66.01,5.34,0,8,1.33,0,2.67.02,4,0v-8.01s4,.02,4,.02l-.02-4.02,4.02.02-.02-16.01,4.02.02-.02-4.02,4.02.02-.02-4.02h8.01s0-7.99,0-7.99h3.99s0,4.01,0,4.01l8.01-.02-.02,4.02,4.02-.02-.02,4.02,8.01-.02v4.02s3.99,0,3.99,0v-8.01s4,0,4,0v16h8.01s-.02,4.01-.02,4.01l4.02-.02-.02,4.02,4.02-.02-.02,4.02h4.02s0,3.99,0,3.99h-4.02s0,4.01,0,4.01h-3.99s0-4.02,0-4.02l-4.02.02v-4.02s-3.99,0-3.99,0v8.01s4-.02,4-.02l-.02,4.02,8.01-.02v4.02s3.99,0,3.99,0v-4.02s8.01,0,8.01,0v8.01s-8.01-.01-8.01-.01v8h20v4s-4.01,0-4.01,0l.02,8.01h-4.02s0,3.99,0,3.99h4.02s0,4,0,4h-32v4.01s-8,0-8,0v-8.01s-3.99,0-3.99,0v4.02s-12.01-.02-12.01-.02v4.02s-8-.02-8-.02v4.02s-12-.02-12-.02v4.02s-3.99,0-3.99,0v-4.02s-12.01,0-12.01,0v4.02s-8-.02-8-.02l.02,4.02-4.02-.02.02,4.02h-12.01s.01-4.02.01-4.02h-8.01s.01,8.01.01,8.01l-4.02-.02.02,4.02h-8.01s.01-4.02.01-4.02c-1.33-.01-2.67,0-4,0-.05,2.66.04,5.35,0,8.01h-4.02s0,3.99,0,3.99h8.01s0,4,0,4h-4.02s0,4,0,4h8.01s-.01,12.01-.01,12.01h8.01s-.01-8.01-.01-8.01l4.02.02-.02-4.02,8.01.02v-4.02s3.99,0,3.99,0v4.02s4,0,4,0v-4.02s4.01.02,4.01.02v-4.02s3.99,0,3.99,0v4.02s4,0,4,0v-4.02s12.01.02,12.01.02v-4.02s3.99,0,3.99,0v12.01s4.02.57,4.02.57v7.43s-4.03,0-4.03,0v3.99s8.01.01,8.01.01v-4.02s3.99,0,3.99,0v8.01s4,0,4,0v-4.02s4,0,4,0v8h20v4h16v8.01s-4.01-.02-4.01-.02l.02,4.02-4.02-.02.02,4.02-4.02-.02.02,4.02-4.02-.02.02,4.02-4.02-.02.02,4.02-4.02-.02.02,4.02h-8.01s0,3.99,0,3.99h4.02s0,4,0,4h-4.02s.02,4.01.02,4.01l-4.02-.02.02,4.02-4.02-.02.02,4.02-4.02-.02.02,4.02h-4.02s0,3.98,0,3.98h8.01s-.02-4-.02-4l4.02.02-.02-4.02,4.02.02-.02-4.02,4.02.02-.02-4.02,4.02.02-.02-4.02,4.02.02v-4.02s3.99,0,3.99,0v4.02s4,0,4,0v-16h4.01s-.02-4.01-.02-4.01l4.02.02-.02-4.02,4.02.02-.02-4.02,4.02.02-.02-4.02,8.01.02-.02-4.02,4.02.02v-4.02s3.99,0,3.99,0v4.02s8.01,0,8.01,0v-8.01s3.99,0,3.99,0v4.02s7.43.01,7.43.01l.57-4.03h8.01l.57,4.03h7.43s0-4.03,0-4.03h3.99s0,8.01,0,8.01h8.01s0,3.99,0,3.99h-4.02s.02,4.01.02,4.01l-4.02-.02v8.01s-8-.01-8-.01v4.02s-8-.02-8-.02v4.02s-12-.02-12-.02v4.02s-3.99,0-3.99,0v-4.02s-8.01,0-8.01,0v12s-27.99,0-27.99,0v4h16v4.01s4,0,4,0v-4.02s8.01,0,8.01,0v4.01s15.99,0,15.99,0v4.01s8,0,8,0v-8.01s3.99,0,3.99,0v4.02s4,0,4,0v-8.01s4,0,4,0v4.02s4,0,4,0v-8.01s7.43-.02,7.43-.02l.57,4.03,4.02-.02v4.02s3.99,0,3.99,0v-4.02s12.01,0,12.01,0l-.02,4.02,4.02-.02-.02,4.02h8.01s0,19.99,0,19.99h4s0-12,0-12h4.02c.06-1.31-.09-2.67,0-3.99,2.64.16,5.36-.11,8.01,0l-.02-4.02h4.02s0-3.99,0-3.99h-8.01s.02,4,.02,4l-4.02-.02c-.06,1.33.09,2.68,0,4.01-1.33-.08-2.68.07-4,0v-8.01s-4,0-4,0v-3.99s8.01,0,8.01,0v-3.99s-4,0-4,0v-24h-4.01s0-4,0-4h4.02s-.01-12.01-.01-12.01h12.01s-.02-4-.02-4l4.02.02-.02-4.02,8.01.02-.02-4.02,4.02.02v-8.01s-4.02,0-4.02,0v-3.99s4.02,0,4.02,0v-3.99s-4.02,0-4.02,0v-3.99s4.02,0,4.02,0l-.02-4.02,4.02.02-.02-4.02,4.02.02v-11.43s-4.02-.58-4.02-.58v-3.99s4.02,0,4.02,0v-3.99s-4.02,0-4.02,0v-3.99s4.02,0,4.02,0v-3.99s-8.01,0-8.01,0v-3.99s8.01,0,8.01,0v-12.01s4,.02,4,.02v-4.02s3.99,0,3.99,0v4.02s4.01-.02,4.01-.02v8.01s8-.01,8-.01v4.02s8,0,8,0c.04-2.66-.07-5.35,0-8-1.33-.08-2.68.07-4.01,0l.02-4.02h-4.02s0-3.99,0-3.99h12.01s0,3.99,0,3.99h-4.02c-.03,1.33.04,2.67,0,4,1.33.08,2.68-.07,4.01,0l-.02,4.02,4.02-.02-.02,4.02,4.02-.02-.02,4.02h8.01s0,3.99,0,3.99h-4.02s.02,4.01.02,4.01l-4.02-.02v4.02s-3.99,0-3.99,0v-4.02s-4,0-4,0v4.02s-4.01,0-4.01,0v4h16.01v4s-4.01,0-4.01,0l.02,4.02-4.02-.02c-.06,1.33.08,2.68,0,4.01-2.66.04-5.34-.04-8,0v3.99s8.01,0,8.01,0c.06-1.33-.08-2.68,0-4,2.66-.04,5.35.03,8.01,0v-4.02s8,.02,8,.02v-4.02s3.99,0,3.99,0v8.01s-8-.01-8-.01v4.02s-8-.02-8-.02l.02,4.02-4.02-.02.02,4.02-8.01-.02.02,4.02h-4.02s0,3.99,0,3.99h8.01s-.01-4-.01-4l8.01.02v-4.02s8,.02,8,.02v-4.02s8,.02,8,.02l-.02-4.02,4.02.02-.02-4.02,4.02.02-.02-4.02,4.02.02-.02-4.02,4.02.02-.02-4.02,4.02.02-.02-4.02,4.02.02-.02-4.02,8.01.02-.02-4.02,4.02.02-.02-4.02h8.01s0,8.01,0,8.01h3.99s0-4.01,0-4.01l8.01.02-.02-4.02,4.02.02-.02-4.02,4.02.02-.02-4.02,4.02.02v-8.01s3.99,0,3.99,0v4.02s4.01-.02,4.01-.02v8.01s7.99,0,7.99,0v3.99s-4.01,0-4.01,0v8h16.01v8.01s4.01-.02,4.01-.02l-.02,4.02,4.02-.02-.02,8.01,4.02-.02-.02,4.02,4.02-.02v8.01s-8.01-.01-8.01-.01l.02,4.02h-4.02s0,3.99,0,3.99h12.01s-.02,4.01-.02,4.01h4.02s0,3.99,0,3.99h-4.02s.02,12.01.02,12.01l-4.02-.02.02,4.02-4.02-.02.02,4.02-4.02-.02.02,4.02-4.02-.02.02,4.02-4.02-.02.02,4.02-4.02-.02.02,4.02-4.02-.02.02,4.02-4.02-.02.02,4.02h-4.02s0,3.98,0,3.98h8.01s-.02-4-.02-4l4.02.02-.02-4.02,4.02.02-.02-4.02,4.02.02-.02-4.02,8.01.02v-4.02s3.99,0,3.99,0v8.01s4.01,0,4.01,0v3.99s-4.02,0-4.02,0l.02,4.02-4.02-.02.02,4.02-4.02-.02.02,4.02-4.02-.02.02,4.02-4.02-.02.02,4.02-4.02-.02.02,4.02-4.02-.02.02,4.02-8.01-.02.02,4.02-4.02-.02.02,4.02-4.02-.02.02,4.02-4.02-.02.02,4.02-4.02-.02.02,4.02-4.02-.02.02,4.02-8.01-.02.02,4.02-4.02-.02.02,4.02-4.02-.02.02,4.02-8.01-.02v4.02s-8-.01-8-.01v8.01s-8-.01-8-.01v4.02s-3.99,0-3.99,0v-4.02s-4,0-4,0v4.02s-8.01-.02-8.01-.02l.02,4.02h-4.02s0,3.99,0,3.99h8.01s-.01-4-.01-4h8.01s0,4,0,4h-4.02s0,4,0,4h8.01s-.02-4-.02-4l4.02.02-.02-4.02,4.02.02-.02-4.02,16.01.02-.02-4.02,4.02.02-.02-4.02,8.01.02-.02-4.02,4.02.02-.02-4.02,8.01.02-.02-4.02,4.02.02-.02-4.02,8.01.02-.02-4.02,4.02.02-.02-4.02,4.02.02-.02-4.02,4.02.02-.02-4.02,4.02.02-.02-4.02,4.02.02-.02-4.02,4.02.02-.02-4.02,8.01.02-.02-4.02,4.02.02-.02-4.02,4.02.02-.02-4.02h8.01s0,8.01,0,8.01h3.99s0-4.01,0-4.01h3.99s0,8.01,0,8.01h-12.01s.01,12,.01,12h-12s0,19.99,0,19.99h4.01s-.02,4.01-.02,4.01h7.43s.58-4.02.58-4.02h3.99s0,4.02,0,4.02h3.99s0-4.02,0-4.02h8.01s-.01,8.01-.01,8.01l4.02-.02-.02,4.02,4.02-.02v8.01s-4.02,0-4.02,0v3.99s4.01,0,4.01,0v16h-4.01s.02,8,.02,8h-4.02s.02,8,.02,8h-4.02s.02,8,.02,8l-4.02-.02.02,4.02-4.02-.02.02,4.02-4.02-.02.02,4.02-4.02-.02.02,4.02-4.02-.02v8.01s-8-.01-8-.01v8.01s-8-.01-8-.01v8.01s-4-.02-4-.02l.02,4.02-4.02-.02.02,4.02h-8.01s.01,8,.01,8l-4.02-.02.02,4.02-4.02-.02.02,4.02-8.01-.02.02,4.02-4.02-.02v8.01s-8-.01-8-.01l.02,4.02-4.02-.02.02,4.02-4.02-.02.02,4.02-4.02-.02.02,4.02-4.02-.02.02,4.02-4.02-.02.02,4.02-4.02-.02.02,4.02-4.02-.02.02,4.02-4.02-.02.02,4.02-4.02-.02.02,4.02-4.02-.02.02,4.02-4.02-.02.02,4.02-4.02-.02.02,4.02-4.02-.02.02,4.02-4.02-.02.02,4.02-4.02-.02.02,4.02-4.02-.02.02,4.02-4.02-.02.02,4.02-4.02-.02.02,4.02-4.02-.02.02,4.02-4.02-.02.02,4.02-4.02-.02.02,4.02-4.02-.02.02,8.01-4.02-.02.02,4.02-4.02-.02.02,4.02-4.02-.02.02,4.02-4.02-.02.02,4.02-4.02-.02.02,4.02-4.02-.02.02,8.01-4.02-.02.02,4.02-4.02-.02.02,8.01-4.02-.02.02,4.02-4.02-.02.02,4.02-4.02-.02.02,4.02-4.02-.02v8.01c-4.07.58-9.36-2.45-7.99,3.99h-20c.32-4.19.47-4.39-4.01-3.99l.02-4.02-4.02.02.02-4.02-4.02.02.02-4.02-4.02.02.02-4.02-4.02.02.02-8.01-4.02.02.02-4.02-4.02.02.02-4.02-4.02.02.02-8.01-4.02.02.02-4.02-4.02.02.02-4.02-4.02.02.02-4.02-4.02.02.02-4.02-4.02.02.02-4.02-4.02.02v-8.01s-8,.01-8,.01v-8.01s-4,.02-4,.02l.02-4.02-4.02.02.02-4.02-4.02.02.02-4.02-4.02.02.02-4.02-4.02.02.02-4.02-4.02.02.02-4.02-4.02.02.02-4.02-4.02.02.02-4.02-4.02.02.02-4.02-4.02.02.02-4.02-4.02.02.02-4.02-4.02.02.02-4.02-4.02.02.02-4.02-4.02.02.02-4.02-4.02.02.02-4.02-8.01.02.02-4.02-4.02.02.02-4.02-4.02.02.02-4.02-4.02.02.02-4.02-4.02.02.02-4.02-4.02.02.02-4.02-4.02.02.02-4.02-4.02.02.02-4.02-4.02.02.02-4.02-8.01.02.02-4.02-4.02.02.02-4.02-4.02.02.02-4.02-4.02.02.02-4.02-4.02.02.02-4.02-4.02.02.02-4.02-4.02.02.02-4.02-4.02.02.02-4.02-8.01.02.02-4.02-4.02.02.02-4.02-4.02.02.02-4.02-4.02.02.02-4.02-8.01.02.02-4.02-4.02.02.02-4.02-4.02.02.02-4.02-4.02.02.02-4.02-4.02.02.02-4.02-4.02.02.02-4.02-4.02.02.02-4.02-4.02.02.02-4.02-4.02.02.02-4.02-8.01.02.02-4.02-4.02.02.02-8.01-4.02.02.02-4.02-4.02.02.02-4.02-4.02.02.02-8.01-4.02.02.02-4.02-4.02.02.02-4.02-4.02.02.02-4.02-4.02.02.02-4.02-4.02.02.02-4.02-4.02.02.02-4.02-4.02.02.02-4.02-4.02.02.02-4.02-4.02.02.02-4.02-4.02.02.02-8.01-4.02.02.02-4.02-4.02.02.02-4.02-4.02.02.02-12.01-4.02.02.02-4.02-4.02.02.02-8.01h-4.02s.02-8,.02-8h-4.02s.02-8,.02-8h-4.02s.02-8,.02-8h-4.02s.02-8,.02-8l-4.02.02.02-4.02-4.02.02.02-8.01h-4.01s0-19.99,0-19.99h-4v-20h4.01s0-4,0-4h-4.01v-16h-4v-32h-8v-4c4.19.32,4.39.47,3.99-4.01l4.02.02-.02-8.01h4.01s0-23.99,0-23.99h4s0,4.01,0,4.01h8.01s0-4,0-4h-4.02s0-4,0-4h8.01s-.02-4.01-.02-4.01l4.02.02-.02-4.02,4.02.02-.02-4.02h12.01s-.01-11.99-.01-11.99h8.01s-.01-8-.01-8h4.02s0-3.99,0-3.99h-8.01s.02,4,.02,4l-4.02-.02v4.02s-3.98,0-3.98,0l-.03-7.43,4.03-.57-.02-4.02,4.02.02-.02-4.02h4.02s0-3.99,0-3.99h-4.02s0-4,0-4h4.02c.13-7.98-.2-16.02,0-24,1.33-.08,2.68.07,4,0v-8.01s-4,0-4,0c-.06,2.66.06,5.35,0,8-2.64.16-5.35-.11-8,0v-20h4.01s-.02-12-.02-12h4.02s-.02-8-.02-8l4.02.02-.02-4.02,4.02.02-.02-8.01,4.02.02-.02-4.02,8.01.02-.02-4.02,4.02.02-.02-4.02h8.01s.57,4.03.57,4.03h7.43s0-4.02,0-4.02h16v-4.01s4,0,4,0v16h-4v16h8s-.01-12-.01-12h4.02s0-3.99,0-3.99h-4.02s0-8.01,0-8.01l4.02.02-.02-4.02h8.01s0,4,0,4h-4.02s.01,12.01.01,12.01h3.99s0-4.01,0-4.01h12.01s0,12.01,0,12.01h-4.02s0,3.99,0,3.99h4.02s0,4,0,4h-4.02c-.06,1.32.09,2.68,0,4-2.66.07-5.35-.05-8.01,0l.02,4.02-4.02-.02.02,4.02-4.02-.02.02,4.02-4.02-.02c-.06,1.33.09,2.68,0,4.01-3.99.1-8.02-.07-12,0v8.01s-4-.02-4-.02l.02,4.02h-8.01s.01,8,.01,8l-4.02-.02.02,4.02-4.02-.02.02,4.02-4.02-.02.02,4.02-8.01-.02.02,4.02-4.02-.02.02,4.02h-4.02s0,3.98,0,3.98h8.01s-.02-4-.02-4l4.02.02v-4.02s3.98,0,3.98,0v8.01s-3.99,0-3.99,0v16h-8s0,8,0,8h4.02s-.02,12-.02,12h4.02s0,12,0,12h-4.02s0,12,0,12h4.02s-.01,12-.01,12h8.01s-.02,4-.02,4l4.02-.02-.02,8.01h4.01s0,23.99,0,23.99h8s0-8,0-8h-4.02s.01-8,.01-8h3.99s0,4.01,0,4.01h4v-36l-4.02-.58v-7.43s4.03,0,4.03,0v-4h-20.01v-4h16v-16h-8s0-12,0-12h4.02s0-3.99,0-3.99h-4.02s0-4,0-4h4.02s-.02-8.01-.02-8.01h4.02s-.02-12-.02-12l4.02.02-.02-4.02,4.02.02v-12.01s-4.02,0-4.02,0v-3.99s4.02,0,4.02,0l-.02-4.02,4.02.02-.02-4.02,4.02.02c.06-1.33-.09-2.68,0-4.01,2.66-.07,5.35.05,8.01,0l-.02-4.02,4.02.02-.02-4.02,4.02.02-.02-4.02,4.02.02c.06-1.33-.09-2.68,0-4.01,2.65-.07,5.35-.05,8,0-.08,1.33.07,2.68,0,4.01l-4.02-.02.02,4.02h-4.02s0,3.98,0,3.98h8.01s-.02-4-.02-4l4.02.02v-8.01c-1.33-.03-2.67.03-4.01,0,.08-1.33-.07-2.68,0-4.01h4.02s-.01-8-.01-8h8.01c.06-1.32-.08-2.67,0-3.99ZM870.02,1874.04c2.66-.05,5.35.04,8.01,0v-4.02s8,.01,8,.01v-12.01s-4,0-4,0v4.02s-4.01-.02-4.01-.02l.02,4.02-4.02-.02.02,4.02-4.02-.02c-.06,1.33.09,2.68,0,4.01-2.66.05-5.35-.04-8.01,0v4.02s-8,0-8,0v3.99s12.01.01,12.01.01l-.02-4.02,4.02.02c.06-1.33-.09-2.68,0-4.01ZM938.02,1978.03h-8.01v3.99h8.01v-3.99ZM966.01,1982.03h-8.01s0,8,0,8h3.99s0-4.01,0-4.01h4.02s0-3.99,0-3.99ZM822.03,1990.02h-8.01s0,4,0,4h4.02s0,4.01,0,4.01h3.99s0-8.01,0-8.01ZM878.02,1994.02h-3.99v8.01h3.99v-8.01ZM774.03,1998.02h-3.99v12.01h3.99s0-4.01,0-4.01h4.02s0-3.99,0-3.99h-4.02s0-4.01,0-4.01ZM1014,2026.02h-16v4s4.01,0,4.01,0v4.02s3.99,0,3.99,0v-4.02s4,0,4,0l.51,8.01h3.49s0-12,0-12ZM890.02,2050.02h-8.01v3.99h8.01v-3.99ZM894.02,2058.01h-8.01s0,4,0,4h4.02s0,4.01,0,4.01h3.99s0-8.01,0-8.01ZM1305.96,2078.01h-3.99s0,4.01,0,4.01h-8.01s0,3.99,0,3.99h12.01s0-8,0-8ZM1297.97,2102.02h-8.01s.02,4,.02,4h-4.02s0,3.99,0,3.99h8.01s-.02-4-.02-4h4.02s0-3.99,0-3.99ZM994,2130h-3.99s0,4.02,0,4.02l-4.02-.02v8.01s-11.99,0-11.99,0v3.99s4.01,0,4.01,0v12.01s8,0,8,0v-8.01s4,.02,4,.02l-.02-4.02h4.02s0-3.99,0-3.99h-4.02s0-4,0-4h8.01s0-4,0-4h-4.02s0-4.01,0-4.01ZM1169.99,2142.01h-8.01v3.99h8.01v-3.99ZM1161.99,2150.01v20h4s0-4.01,0-4.01h4.02s0-3.99,0-3.99l-4.03-.58v-7.43s4.03,0,4.03,0v-3.99s-8.01,0-8.01,0ZM1018.01,2166.01h-12.01v3.99h12.01v-3.99ZM1002.01,2202h-8.01v3.99h8.01v-3.99ZM1353.96,2221.99h-3.99v8.01h3.99v-8.01Z"/>
    <path class="cls-1" d="M1078,1958.03c-.07-2.66.05-5.35,0-8.01h-4.02s.02-8,.02-8h-4.02s0-3.99,0-3.99h4.02s-.02-4.01-.02-4.01l4.02.02-.02-4.02,8.01.02-.02-4.02,4.02.02-.02-4.02,4.02.02-.02-4.02,8.01.02v-4.02s8,.02,8,.02v-4.02s8,.02,8,.02v-4.02s12,.02,12,.02l-.02-4.02,4.02.02-.02-12.01,4.02.02-.02-4.02,4.02.02-.02-4.02,4.02.02-.02-4.02h12.01s0,4,0,4h-4.02s.02,4.01.02,4.01l-4.02-.02.02,4.02-8.01-.02.02,4.02-4.02-.02v12.01s8.01,0,8.01,0v-4.01s15.99,0,15.99,0v-4h24v8s-4.02.57-4.02.57l.03,7.43h3.99s0-4.01,0-4.01l4.02.02v-8.01s8,.01,8,.01l-.02-4.02,4.02.02v-8.01s3.99,0,3.99,0v4.02s4,0,4,0v-4.02s4,0,4,0v8.01s-4-.01-4-.01l.02,8.01-4.02-.02.02,4.02-8.01-.02v4.02s-8-.02-8-.02l.02,4.02-4.02-.02.02,4.02-16.01-.02.02,4.02h-4.02s0,3.99,0,3.99h8.01s0,4,0,4h-4.02s.02,4.01.02,4.01l-4.02-.02.02,4.02-4.02-.02.02,4.02-4.02-.02.02,4.02-4.02-.02.02,4.02h-8.01v-20.01h-4s0,8,0,8h-8.01s.02-4.01.02-4.01l-4.02.02v-4.02s-3.99,0-3.99,0v4.02s-8.01-.02-8.01-.02v4.02s-12,0-12,0v-4.02s-3.99,0-3.99,0v4.02s-4.01-.02-4.01-.02l.02,8.01h-4.02s.01,8,.01,8c-5.3.22-10.72-.32-16,0,.1,3.99-.06,8.02,0,12h-3.99s0-12.01,0-12.01c1.32-.07,2.68.09,4,0Z"/>
    <path class="cls-1" d="M1297.97,1974.03c.08-1.33-.07-2.68,0-4.01l4.02.02-.02-4.02,4.02.02-.02-4.02h8.01s0-3.99,0-3.99h-4.02s0-4,0-4h12.01s0-4,0-4h-4.02s.02-4.01.02-4.01h-8.01s.02,4.02.02,4.02l-4.02-.02.02,4.02-4.02-.02.02,8.01-4.02-.02v4.02s-3.99,0-3.99,0v-8.01s-4,0-4,0v12.01s-4.01-.02-4.01-.02l.02,4.02-4.02-.02.02,4.02-4.02-.02v4.02s-3.99,0-3.99,0v-4.02s-12.01.02-12.01.02v-4.02s-8,.01-8,.01v-20.01s4.01.01,4.01.01l-.02-8.01,4.02.02-.02-4.02,4.02.02-.02-4.02,8.01.02v-4.02s8,.01,8,.01v3.99s-4.01,0-4.01,0v3.99s4.02,0,4.02,0l-.02,4.02,4.02-.02-.02,4.02,4.02-.02v4.02s3.98,0,3.98,0v-8.01s4,0,4,0v4.02s4,0,4,0v-8.01s8.01.01,8.01.01v-4.02s8,.02,8,.02l-.02-4.02,4.02.02v-4.02s3.98,0,3.98,0v8.01s4,0,4,0v-8.01s4,0,4,0v-24h4.01s-.02-4.01-.02-4.01l8.01.02-.02-4.02,4.02.02-.02-4.02h8.01s0-7.99,0-7.99h4v20h-8s.01,8,.01,8h-8.01s.01,8,.01,8h-4.02s0,3.99,0,3.99h4.02s0,4,0,4h-8.01s0,8.01,0,8.01h4.02s0,3.99,0,3.99h-4.02s.02,8.01.02,8.01l-4.02-.02.02,4.02-4.02-.02.02,4.02-4.02-.02v16.01s4.02,0,4.02,0v3.99s-8.01,0-8.01,0v16h-12s0-4,0-4h4.02s0-4,0-4h-4.02s.02-4.01.02-4.01c-2.66-.02-5.34.05-8.01,0,.08-1.33-.07-2.68,0-4h4.02s0-3.99,0-3.99c-2.66-.02-5.34,0-8,0Z"/>
    <path class="cls-1" d="M1297.97,1974.03c-.08,1.33.07,2.68,0,4h-4.02s0,3.99,0,3.99c2.66.05,5.34-.04,8,0-.08,1.33.07,2.68,0,4.01l-4.02-.02.02,4.02h-8.01s0-16.01,0-16.01c2.66,0,5.34,0,8,0Z"/>
    <path class="cls-1" d="M1281.97,1898.04c.03,1.33-.04,2.68,0,4h4.02s0,3.99,0,3.99h-4.02s.02,4.01.02,4.01l-4.02-.02.02,4.02-4.02-.02.02,4.02-4.02-.02.02,4.02-12.01-.02v4.02s-12,0-12,0v-8.01s4.01.02,4.01.02l-.02-4.02,4.02.02-.02-12.01,4.02.02-.02-4.02,8.01.02v-4.02s8,.02,8,.02v-4.02s3.99,0,3.99,0v8.01c1.33.01,2.67,0,4,0-.06-2.66.03-5.35,0-8h3.99s0,8.01,0,8.01c-1.33.01-2.67,0-4,0Z"/>
    <path class="cls-1" d="M1345.96,1878.04c2.64.16,5.36-.11,8.01,0l-.02-4.02,4.02.02v-20.01s-4.02,0-4.02,0v-3.99s8.01,0,8.01,0v-8.01s3.99,0,3.99,0v4.02s4.02.57,4.02.57v11.43s-4.02,0-4.02,0v20h-4.01s.02,4.01.02,4.01l-8.01-.02.02,4.02-4.02-.02.02,4.02-4.02-.02v4.02s-3.98,0-3.98,0l-.03-11.43,4.03-.57c.06-1.33-.09-2.68,0-4.01-1.33-.08-2.68.07-4,0v-8.01s4.01.01,4.01.01v-8.01s3.99,0,3.99,0v12.01s-4-.01-4-.01c-.06,1.33.09,2.68,0,4.01Z"/>
    <polygon class="cls-1" points="942.01 2054.01 942.02 2066.02 938 2066.01 938.02 2070.03 934.01 2070.01 934.02 2078.02 930 2078 930.02 2082.02 922.01 2082 922.03 2086.02 918.01 2086 918.02 2090.02 910.01 2090.02 910.01 2082.01 914.03 2082.02 914.01 2074.01 922.02 2074.02 922.01 2070.01 926.02 2070.03 926.01 2066.01 930.02 2066.03 930 2062.01 934.02 2062.03 934 2058.01 938.02 2058.03 938.02 2054.01 942.01 2054.01"/>
    <polygon class="cls-1" points="1241.97 1906.03 1241.98 1914.04 1237.97 1914.03 1237.98 1922.04 1229.97 1922.02 1229.99 1926.04 1225.97 1926.02 1225.99 1930.04 1221.97 1930.03 1221.98 1938.04 1213.97 1938.04 1213.97 1926.03 1217.99 1926.04 1217.97 1922.02 1221.99 1922.04 1221.97 1918.02 1225.99 1918.04 1225.97 1914.03 1233.98 1914.04 1233.97 1910.03 1237.99 1910.04 1237.98 1906.03 1241.97 1906.03"/>
    <polygon class="cls-1" points="1409.96 2102.02 1409.96 2106.01 1405.95 2106 1405.96 2110.02 1401.95 2110 1401.97 2114.02 1397.95 2114 1397.97 2118.02 1393.95 2118 1393.95 2122.02 1389.96 2122.01 1389.95 2114 1393.97 2114.02 1393.95 2110 1397.97 2110.02 1397.95 2106 1401.97 2106.02 1401.95 2102 1409.96 2102.02"/>
    <polygon class="cls-1" points="1373.96 1938.02 1373.95 1942.04 1377.97 1942.03 1377.96 1946.03 1369.95 1946.02 1369.97 1950.04 1365.95 1950.02 1365.96 1958.03 1361.97 1958.03 1361.95 1946.02 1365.97 1946.04 1365.95 1942.02 1369.97 1942.04 1369.96 1938.02 1373.96 1938.02"/>
    <polygon class="cls-1" points="1337.96 2010.02 1337.97 2022.03 1333.95 2022.01 1333.97 2026.03 1325.96 2026.03 1325.96 2018.02 1329.97 2018.03 1329.95 2014.01 1333.97 2014.03 1333.97 2010.01 1337.96 2010.02"/>
    <polygon class="cls-1" points="1197.98 1858.04 1197.99 1866.05 1193.97 1866.03 1193.99 1874.05 1189.97 1874.03 1189.98 1878.05 1185.99 1878.04 1185.97 1870.03 1189.99 1870.05 1189.97 1862.04 1193.99 1862.05 1193.99 1858.03 1197.98 1858.04"/>
    <polygon class="cls-1" points="1181.99 1874.03 1181.99 1882.04 1173.98 1882.03 1173.98 1886.05 1169.99 1886.04 1169.98 1878.03 1173.99 1878.05 1173.98 1874.03 1181.99 1874.03"/>
    <path class="cls-1" d="M1357.96,1970.03c.04-2.66-.04-5.34,0-8h3.99s0,8.01,0,8.01c-1.33.07-2.68-.09-4,0-.04,2.66.03,5.35,0,8.01l-4.02-.02v4.02s-3.99,0-3.99,0v-12.01c2.64-.11,5.35.16,7.99,0Z"/>
    <rect class="cls-1" x="1213.98" y="1942.03" width="3.99" height="8.01"/>
    <rect class="cls-1" x="1173.98" y="2054.02" width="8.01" height="3.99"/>
    <rect class="cls-1" x="1078" y="2014.02" width="3.99" height="8.01"/>
    <rect class="cls-1" x="1377.96" y="1842.04" width="3.99" height="8.01"/>
    <path class="cls-1" d="M1209.98,1846.04c.03-2.66-.04-5.34,0-8h3.99s0,8.01,0,8.01c-1.33.05-2.67-.07-4,0-.03,2.66.04,5.34,0,8h-3.99s0-8.01,0-8.01c1.33-.05,2.67.07,4,0Z"/>
    <rect class="cls-1" x="1093.99" y="2070.02" width="8.01" height="3.99"/>
    <rect class="cls-1" x="890.02" y="1826.05" width="8.01" height="3.99"/>
    <path class="cls-1" d="M910.02,1818.05c.06-1.33-.06-2.68,0-4h8.01s0,4,0,4c-2.66.04-5.34-.03-8,0-.06,1.33.06,2.68,0,4h-8.01s0-4,0-4c2.66-.04,5.34.03,8,0Z"/>
    <rect class="cls-1" x="850.03" y="2010.02" width="3.99" height="12.01"/>
  </g>
  <g>
    <path class="cls-1" d="M1990.02,778.04c-2.66-.05-5.35.04-8,0v-12.01s4.01.02,4.01.02l-.02-4.02,4.02.02-.02-4.02,8.01.02-.02-4.02,4.02.02-.02-4.02,4.02.02-.02-4.02,12.01.02-.02-4.02,4.02.02v-8.01s-4,0-4,0l-.58,4.03-11.43-.03v-3.99s4.01,0,4.01,0l-.02-4.02,4.02.02-.02-4.02,4.02.02-.02-4.02,8.01.02v-4.02s3.99,0,3.99,0v4.02s4,0,4,0v-4.01h16v4s-4.01,0-4.01,0l.02,4.02h-8.01s0,3.99,0,3.99h8.01s0,4,0,4h-4.02s.02,4.01.02,4.01h-8.01s.01-4.02.01-4.02h-8.01s0,8.01,0,8.01h4.02s0,3.99,0,3.99h-4.02s.02,4.01.02,4.01l-16.01-.02.02,4.02-4.02-.02v8.01s-8-.01-8-.01l.02,4.02-4.02-.02.02,8.01h-4.02c-.06,1.32.08,2.66,0,3.99,1.33.03,2.67-.04,4,0l.02,11.43-4.03.58v3.99s8.01,0,8.01,0v-12.01s4,.02,4,.02l-.02-4.02,4.02.02-.02-4.02,8.01.02-.02-4.02,4.02.02v-8.01s8,.01,8,.01l-.02-4.02,4.02.02-.02-4.02,4.02.02-.02-4.02h8.01s0,8.01,0,8.01h3.99s0-4.01,0-4.01h3.99s0,8.01,0,8.01h-8.01s0,8,0,8h3.99s0-4.01,0-4.01l12.01.02v-4.02s8,.02,8,.02l-.02-4.02,4.02.02-.02-4.02,4.02.02-.02-4.02,4.02.02v-4.02s3.99,0,3.99,0v4.02s4,0,4,0v-8.01s8.01.01,8.01.01v-4.02s8,.02,8,.02v-4.02s12,.02,12,.02v-4.02s12,0,12,0l-.02,4.02,4.02-.02v12.01s8,0,8,0v-4.02s3.99,0,3.99,0v4.02s4.01-.02,4.01-.02l-.02,4.02h12.01s0-4.02,0-4.02h3.99s0,4.02,0,4.02h8.01s-.01,8-.01,8l4.02-.02-.02,4.02,12.01-.02-.02,4.02,4.02-.02v8.01s-4.02,0-4.02,0v3.99s8.01,0,8.01,0v4.02s8-.01,8-.01v8.01s7.99,0,7.99,0v16h-4.01s.02,4.01.02,4.01l-4.02-.02.02,4.02-4.02-.02.02,4.02-4.02-.02.02,4.02-4.02-.02.02,4.02-8.01-.02.02,4.02-4.02-.02.02,4.02-8.01-.02v4.02s-8-.02-8-.02v4.02s-8,0-8,0v-4.02s-3.99,0-3.99,0v4.02s-8.01-.01-8.01-.01v8.01s-3.99,0-3.99,0v-4.02s-4,0-4,0v4.02s-4,0-4,0v-8h-20v4.01s-12-.02-12-.02v4.02s-8-.02-8-.02l.02,4.02-4.02-.02.02,4.02-4.02-.02.02,4.02h-8.01s.01-4.02.01-4.02c-1.33-.03-2.67.04-4,0,0,1.33.02,2.67,0,4h-8.01s0-4,0-4c2.66.03,5.35-.07,8,0,0-1.33.02-2.67,0-4h-16.01s.01-8,.01-8l-7.43-.02-.57,4.03-4.02-.02.02,4.02-4.02-.02.02,4.02h-12.01s0-12.01,0-12.01l4.03-.57-.03-7.43h-3.99s0,4.01,0,4.01l-4.02-.02.02,4.02-4.02-.02.02,4.02-4.02-.02.02,4.02-4.02-.02.02,4.02-4.02-.02.02,4.02-4.02-.02.02,4.02-12.01-.02v4.02c-1.31.06-2.67-.09-3.99,0,0,2.66,0,5.34,0,8h-8.01s0-4,0-4h4.02s-.02-4.01-.02-4.01c1.33-.06,2.68.09,4.01,0,0-2.66.01-5.34,0-8h-3.99s0,4.01,0,4.01l-4.02-.02.02,4.02-8.01-.02.02,4.02-4.02-.02v4.02s-3.99,0-3.99,0v-4.02s-4,0-4,0v4.02s-4.01-.02-4.01-.02l.02,12.01-4.02-.02.02,4.02h-4.02s0,3.99,0,3.99h4.02s-.02,4.01-.02,4.01l4.02-.02v4.02s3.99,0,3.99,0v-4.02s12.01,0,12.01,0v12.01s-4.01-.01-4.01-.01c-.02,2.66.05,5.34,0,8.01-1.33.07-2.68-.07-4,0v8.01s4,0,4,0c.05-2.66-.04-5.34,0-8,1.33-.07,2.68.07,4.01,0v-4.02s8,.01,8,.01v-8.01s4,0,4,0v-3.99s-4.02,0-4.02,0v-3.99s4.02,0,4.02,0l-.02-8.01h4.02s0-3.99,0-3.99h-4.02s0-8.01,0-8.01h8.01s0,8.01,0,8.01h3.99s0-4.01,0-4.01l4.02.02-.02-4.02,4.02.02-.02-4.02h8.01s0-7.99,0-7.99h3.99s0,8.01,0,8.01h4.02c-.12,2.64.15,5.35,0,7.99-1.33-.08-2.68.07-4,0v-4.02s-3.99,0-3.99,0v8.01s8,0,8,0c.07-1.32-.09-2.68,0-4,1.33.08,2.68-.07,4.01,0v4.02s8,0,8,0v3.99s-4.01,0-4.01,0v3.99s4.02,0,4.02,0v4.02s3.99,0,3.99,0v-4.02s12.01.02,12.01.02l.57-4.03h7.43s-.01,4.03-.01,4.03c4.78.8,14.64-2.55,15.97,3.53.3,1.37-.04,3.03.04,4.47h-8.01s.01,12,.01,12l-4.02-.02.02,4.02-4.02-.02.02,8.01h-4.02s0,3.99,0,3.99h4.02s0,4,0,4h-8.01s.01,8.01.01,8.01l-4.02-.02.02,4.02-4.02-.02.02,4.02-4.02-.02v8.01s-3.99,0-3.99,0v-16h-4.01s-.01-11.42-.01-11.42l4.03-.58v-3.99s-8.01,0-8.01,0v-3.99s4.01,0,4.01,0v-8.01s3.49,0,3.49,0l.51,8.01h3.99s0-12.01,0-12.01h-12.01s.01,8.01.01,8.01l-4.02-.02.02,4.02-4.02-.02.02,4.02-4.02-.02.02,4.02h-8.01s.01,8,.01,8h-4.01s0,19.99,0,19.99h-4s0-4.01,0-4.01h-8.01s.01-12,.01-12h-4.02c-.03-1.32.04-2.66,0-3.99,2.66-.06,5.35.06,8,0v-3.99s-4.01,0-4.01,0v-4.02s-3.99,0-3.99,0c.03,2.66-.07,5.35,0,8-1.33.03-2.68-.04-4.01,0l.02,4.02-4.02-.02.02,8.01-4.02-.02.02,4.02c-1.33.03-2.67-.04-4.01,0-.13-2.18.55-15.85-.57-16.02l-7.43.02v3.99s4.01,0,4.01,0v3.99s-4.02,0-4.02,0l.02,4.02-4.02-.02c-.06,1.33.09,2.68,0,4.01-3.99.05-8.01-.04-12,0v12.01s8.01,0,8.01,0v-8.01s4,.01,4,.01c.06-1.33-.09-2.68,0-4.01,3.99-.05,8.01.1,12,0,.08,1.33-.07,2.68,0,4l7.43.02.57-4.03h8.01s-.01,12.01-.01,12.01h4.02s0,3.99,0,3.99h-4.02s0,8.01,0,8.01l4.02-.02-.02,4.02h4.02s0,3.99,0,3.99h-4.02s.02,12.01.02,12.01h-4.02s0,3.99,0,3.99h4.02s0,4,0,4h-4.02s0,4,0,4h4.02s-.02,4.01-.02,4.01h4.02s0,3.99,0,3.99h-4.02s.02,4.01.02,4.01l-4.02-.02.02,4.02h-8.01s0,8,0,8l4.02-.02v4.02s3.99,0,3.99,0v-4.02s4.01.02,4.01.02l-.02-4.02,8.01.02-.02-4.02,4.02.02v-8.01s8,.01,8,.01l-.02-4.02,4.02.02-.02-4.02c1.33-.01,2.67,0,4.01,0,.05-2.66-.04-5.35,0-8.01l4.02.02-.02-4.02h8.01s-.01-8-.01-8l4.02.02-.02-4.02,4.02.02-.02-8.01,4.02.02-.02-4.02h8.01s0-3.99,0-3.99h-4.02s0-4,0-4h12.01s0-4,0-4h-4.02s0-4,0-4h4.02s-.02-4.01-.02-4.01l4.02.02c0-2.66-.02-5.34,0-8.01-1.33,0-2.67.02-4,0v-8.01s4,0,4,0c.01,2.66.01,5.34,0,8,1.33,0,2.67.02,4,0v-8.01s4,.02,4,.02l-.02-4.02,4.02.02-.02-16.01,4.02.02-.02-4.02,4.02.02-.02-4.02h8.01s0-7.99,0-7.99h3.99s0,4.01,0,4.01l8.01-.02-.02,4.02,4.02-.02-.02,4.02,8.01-.02v4.02s3.99,0,3.99,0v-8.01s4,0,4,0v16h8.01s-.02,4.01-.02,4.01l4.02-.02-.02,4.02,4.02-.02-.02,4.02h4.02s0,3.99,0,3.99h-4.02s0,4.01,0,4.01h-3.99s0-4.02,0-4.02l-4.02.02v-4.02s-3.99,0-3.99,0v8.01s4-.02,4-.02l-.02,4.02,8.01-.02v4.02s3.99,0,3.99,0v-4.02s8.01,0,8.01,0v8.01s-8.01-.01-8.01-.01v8h20v4s-4.01,0-4.01,0l.02,8.01h-4.02s0,3.99,0,3.99h4.02s0,4,0,4h-32v4.01s-8,0-8,0v-8.01s-3.99,0-3.99,0v4.02s-12.01-.02-12.01-.02v4.02s-8-.02-8-.02v4.02s-12-.02-12-.02v4.02s-3.99,0-3.99,0v-4.02s-12.01,0-12.01,0v4.02s-8-.02-8-.02l.02,4.02-4.02-.02.02,4.02h-12.01s.01-4.02.01-4.02h-8.01s.01,8.01.01,8.01l-4.02-.02.02,4.02h-8.01s.01-4.02.01-4.02c-1.33-.01-2.67,0-4,0-.05,2.66.04,5.35,0,8.01h-4.02s0,3.99,0,3.99h8.01s0,4,0,4h-4.02s0,4,0,4h8.01s-.01,12.01-.01,12.01h8.01s-.01-8.01-.01-8.01l4.02.02-.02-4.02,8.01.02v-4.02s3.99,0,3.99,0v4.02s4,0,4,0v-4.02s4.01.02,4.01.02v-4.02s3.99,0,3.99,0v4.02s4,0,4,0v-4.02s12.01.02,12.01.02v-4.02s3.99,0,3.99,0v12.01s4.02.57,4.02.57v7.43s-4.03,0-4.03,0v3.99s8.01.01,8.01.01v-4.02s3.99,0,3.99,0v8.01s4,0,4,0v-4.02s4,0,4,0v8h20v4h16v8.01s-4.01-.02-4.01-.02l.02,4.02-4.02-.02.02,4.02-4.02-.02.02,4.02-4.02-.02.02,4.02-4.02-.02.02,4.02-4.02-.02.02,4.02h-8.01s0,3.99,0,3.99h4.02s0,4,0,4h-4.02s.02,4.01.02,4.01l-4.02-.02.02,4.02-4.02-.02.02,4.02-4.02-.02.02,4.02h-4.02s0,3.98,0,3.98h8.01s-.02-4-.02-4l4.02.02-.02-4.02,4.02.02-.02-4.02,4.02.02-.02-4.02,4.02.02-.02-4.02,4.02.02v-4.02s3.99,0,3.99,0v4.02s4,0,4,0v-16h4.01s-.02-4.01-.02-4.01l4.02.02-.02-4.02,4.02.02-.02-4.02,4.02.02-.02-4.02,8.01.02-.02-4.02,4.02.02v-4.02s3.99,0,3.99,0v4.02s8.01,0,8.01,0v-8.01s3.99,0,3.99,0v4.02s7.43.01,7.43.01l.57-4.03h8.01l.57,4.03h7.43s0-4.03,0-4.03h3.99s0,8.01,0,8.01h8.01s0,3.99,0,3.99h-4.02s.02,4.01.02,4.01l-4.02-.02v8.01s-8-.01-8-.01v4.02s-8-.02-8-.02v4.02s-12-.02-12-.02v4.02s-3.99,0-3.99,0v-4.02s-8.01,0-8.01,0v12s-27.99,0-27.99,0v4h16v4.01s4,0,4,0v-4.02s8.01,0,8.01,0v4.01s15.99,0,15.99,0v4.01s8,0,8,0v-8.01s3.99,0,3.99,0v4.02s4,0,4,0v-8.01s4,0,4,0v4.02s4,0,4,0v-8.01s7.43-.02,7.43-.02l.57,4.03,4.02-.02v4.02s3.99,0,3.99,0v-4.02s12.01,0,12.01,0l-.02,4.02,4.02-.02-.02,4.02h8.01s0,19.99,0,19.99h4s0-12,0-12h4.02c.06-1.31-.09-2.67,0-3.99,2.64.16,5.36-.11,8.01,0l-.02-4.02h4.02s0-3.99,0-3.99h-8.01s.02,4,.02,4l-4.02-.02c-.06,1.33.09,2.68,0,4.01-1.33-.08-2.68.07-4,0v-8.01s-4,0-4,0v-3.99s8.01,0,8.01,0v-3.99s-4,0-4,0v-24h-4.01s0-4,0-4h4.02s-.01-12.01-.01-12.01h12.01s-.02-4-.02-4l4.02.02-.02-4.02,8.01.02-.02-4.02,4.02.02v-8.01s-4.02,0-4.02,0v-3.99s4.02,0,4.02,0v-3.99s-4.02,0-4.02,0v-3.99s4.02,0,4.02,0l-.02-4.02,4.02.02-.02-4.02,4.02.02v-11.43s-4.02-.58-4.02-.58v-3.99s4.02,0,4.02,0v-3.99s-4.02,0-4.02,0v-3.99s4.02,0,4.02,0v-3.99s-8.01,0-8.01,0v-3.99s8.01,0,8.01,0v-12.01s4,.02,4,.02v-4.02s3.99,0,3.99,0v4.02s4.01-.02,4.01-.02v8.01s8-.01,8-.01v4.02s8,0,8,0c.04-2.66-.07-5.35,0-8-1.33-.08-2.68.07-4.01,0l.02-4.02h-4.02s0-3.99,0-3.99h12.01s0,3.99,0,3.99h-4.02c-.03,1.33.04,2.67,0,4,1.33.08,2.68-.07,4.01,0l-.02,4.02,4.02-.02-.02,4.02,4.02-.02-.02,4.02h8.01s0,3.99,0,3.99h-4.02s.02,4.01.02,4.01l-4.02-.02v4.02s-3.99,0-3.99,0v-4.02s-4,0-4,0v4.02s-4.01,0-4.01,0v4h16.01v4s-4.01,0-4.01,0l.02,4.02-4.02-.02c-.06,1.33.08,2.68,0,4.01-2.66.04-5.34-.04-8,0v3.99s8.01,0,8.01,0c.06-1.33-.08-2.68,0-4,2.66-.04,5.35.03,8.01,0v-4.02s8,.02,8,.02v-4.02s3.99,0,3.99,0v8.01s-8-.01-8-.01v4.02s-8-.02-8-.02l.02,4.02-4.02-.02.02,4.02-8.01-.02.02,4.02h-4.02s0,3.99,0,3.99h8.01s-.01-4-.01-4l8.01.02v-4.02s8,.02,8,.02v-4.02s8,.02,8,.02l-.02-4.02,4.02.02-.02-4.02,4.02.02-.02-4.02,4.02.02-.02-4.02,4.02.02-.02-4.02,4.02.02-.02-4.02,4.02.02-.02-4.02,8.01.02-.02-4.02,4.02.02-.02-4.02h8.01s0,8.01,0,8.01h3.99s0-4.01,0-4.01l8.01.02-.02-4.02,4.02.02-.02-4.02,4.02.02-.02-4.02,4.02.02v-8.01s3.99,0,3.99,0v4.02s4.01-.02,4.01-.02v8.01s7.99,0,7.99,0v3.99s-4.01,0-4.01,0v8h16.01v8.01s4.01-.02,4.01-.02l-.02,4.02,4.02-.02-.02,8.01,4.02-.02-.02,4.02,4.02-.02v8.01s-8.01-.01-8.01-.01l.02,4.02h-4.02s0,3.99,0,3.99h12.01s-.02,4.01-.02,4.01h4.02s0,3.99,0,3.99h-4.02s.02,12.01.02,12.01l-4.02-.02.02,4.02-4.02-.02.02,4.02-4.02-.02.02,4.02-4.02-.02.02,4.02-4.02-.02.02,4.02-4.02-.02.02,4.02-4.02-.02.02,4.02-4.02-.02.02,4.02h-4.02s0,3.98,0,3.98h8.01s-.02-4-.02-4l4.02.02-.02-4.02,4.02.02-.02-4.02,4.02.02-.02-4.02,8.01.02v-4.02s3.99,0,3.99,0v8.01s4.01,0,4.01,0v3.99s-4.02,0-4.02,0l.02,4.02-4.02-.02.02,4.02-4.02-.02.02,4.02-4.02-.02.02,4.02-4.02-.02.02,4.02-4.02-.02.02,4.02-4.02-.02.02,4.02-8.01-.02.02,4.02-4.02-.02.02,4.02-4.02-.02.02,4.02-4.02-.02.02,4.02-4.02-.02.02,4.02-4.02-.02.02,4.02-8.01-.02.02,4.02-4.02-.02.02,4.02-4.02-.02.02,4.02-8.01-.02v4.02s-8-.01-8-.01v8.01s-8-.01-8-.01v4.02s-3.99,0-3.99,0v-4.02s-4,0-4,0v4.02s-8.01-.02-8.01-.02l.02,4.02h-4.02s0,3.99,0,3.99h8.01s-.01-4-.01-4h8.01s0,4,0,4h-4.02s0,4,0,4h8.01s-.02-4-.02-4l4.02.02-.02-4.02,4.02.02-.02-4.02,16.01.02-.02-4.02,4.02.02-.02-4.02,8.01.02-.02-4.02,4.02.02-.02-4.02,8.01.02-.02-4.02,4.02.02-.02-4.02,8.01.02-.02-4.02,4.02.02-.02-4.02,4.02.02-.02-4.02,4.02.02-.02-4.02,4.02.02-.02-4.02,4.02.02-.02-4.02,4.02.02-.02-4.02,8.01.02-.02-4.02,4.02.02-.02-4.02,4.02.02-.02-4.02h8.01s0,8.01,0,8.01h3.99s0-4.01,0-4.01h3.99s0,8.01,0,8.01h-12.01s.01,12,.01,12h-12s0,19.99,0,19.99h4.01s-.02,4.01-.02,4.01h7.43s.58-4.02.58-4.02h3.99s0,4.02,0,4.02h3.99s0-4.02,0-4.02h8.01s-.01,8.01-.01,8.01l4.02-.02-.02,4.02,4.02-.02v8.01s-4.02,0-4.02,0v3.99s4.01,0,4.01,0v16h-4.01s.02,8,.02,8h-4.02s.02,8,.02,8h-4.02s.02,8,.02,8l-4.02-.02.02,4.02-4.02-.02.02,4.02-4.02-.02.02,4.02-4.02-.02.02,4.02-4.02-.02v8.01s-8-.01-8-.01v8.01s-8-.01-8-.01v8.01s-4-.02-4-.02l.02,4.02-4.02-.02.02,4.02h-8.01s.01,8,.01,8l-4.02-.02.02,4.02-4.02-.02.02,4.02-8.01-.02.02,4.02-4.02-.02v8.01s-8-.01-8-.01l.02,4.02-4.02-.02.02,4.02-4.02-.02.02,4.02-4.02-.02.02,4.02-4.02-.02.02,4.02-4.02-.02.02,4.02-4.02-.02.02,4.02-4.02-.02.02,4.02-4.02-.02.02,4.02-4.02-.02.02,4.02-4.02-.02.02,4.02-4.02-.02.02,4.02-4.02-.02.02,4.02-4.02-.02.02,4.02-4.02-.02.02,4.02-4.02-.02.02,4.02-4.02-.02.02,4.02-4.02-.02.02,4.02-4.02-.02.02,4.02-4.02-.02.02,4.02-4.02-.02.02,4.02-4.02-.02.02,4.02-4.02-.02.02,8.01-4.02-.02.02,4.02-4.02-.02.02,4.02-4.02-.02.02,4.02-4.02-.02.02,4.02-4.02-.02.02,4.02-4.02-.02.02,8.01-4.02-.02.02,4.02-4.02-.02.02,8.01-4.02-.02.02,4.02-4.02-.02.02,4.02-4.02-.02.02,4.02-4.02-.02v8.01c-4.07.58-9.36-2.45-7.99,3.99h-20c.32-4.19.47-4.39-4.01-3.99l.02-4.02-4.02.02.02-4.02-4.02.02.02-4.02-4.02.02.02-4.02-4.02.02.02-8.01-4.02.02.02-4.02-4.02.02.02-4.02-4.02.02.02-8.01-4.02.02.02-4.02-4.02.02.02-4.02-4.02.02.02-4.02-4.02.02.02-4.02-4.02.02.02-4.02-4.02.02v-8.01s-8,.01-8,.01v-8.01s-4,.02-4,.02l.02-4.02-4.02.02.02-4.02-4.02.02.02-4.02-4.02.02.02-4.02-4.02.02.02-4.02-4.02.02.02-4.02-4.02.02.02-4.02-4.02.02.02-4.02-4.02.02.02-4.02-4.02.02.02-4.02-4.02.02.02-4.02-4.02.02.02-4.02-4.02.02.02-4.02-4.02.02.02-4.02-4.02.02.02-4.02-8.01.02.02-4.02-4.02.02.02-4.02-4.02.02.02-4.02-4.02.02.02-4.02-4.02.02.02-4.02-4.02.02.02-4.02-4.02.02.02-4.02-4.02.02.02-4.02-4.02.02.02-4.02-8.01.02.02-4.02-4.02.02.02-4.02-4.02.02.02-4.02-4.02.02.02-4.02-4.02.02.02-4.02-4.02.02.02-4.02-4.02.02.02-4.02-4.02.02.02-4.02-8.01.02.02-4.02-4.02.02.02-4.02-4.02.02.02-4.02-4.02.02.02-4.02-8.01.02.02-4.02-4.02.02.02-4.02-4.02.02.02-4.02-4.02.02.02-4.02-4.02.02.02-4.02-4.02.02.02-4.02-4.02.02.02-4.02-4.02.02.02-4.02-4.02.02.02-4.02-8.01.02.02-4.02-4.02.02.02-8.01-4.02.02.02-4.02-4.02.02.02-4.02-4.02.02.02-8.01-4.02.02.02-4.02-4.02.02.02-4.02-4.02.02.02-4.02-4.02.02.02-4.02-4.02.02.02-4.02-4.02.02.02-4.02-4.02.02.02-4.02-4.02.02.02-4.02-4.02.02.02-4.02-4.02.02.02-8.01-4.02.02.02-4.02-4.02.02.02-4.02-4.02.02.02-12.01-4.02.02.02-4.02-4.02.02.02-8.01h-4.02s.02-8,.02-8h-4.02s.02-8,.02-8h-4.02s.02-8,.02-8h-4.02s.02-8,.02-8l-4.02.02.02-4.02-4.02.02.02-8.01h-4.01s0-19.99,0-19.99h-4v-20h4.01s0-4,0-4h-4.01v-16h-4v-32h-8v-4c4.19.32,4.39.47,3.99-4.01l4.02.02-.02-8.01h4.01s0-23.99,0-23.99h4s0,4.01,0,4.01h8.01s0-4,0-4h-4.02s0-4,0-4h8.01s-.02-4.01-.02-4.01l4.02.02-.02-4.02,4.02.02-.02-4.02h12.01s-.01-11.99-.01-11.99h8.01s-.01-8-.01-8h4.02s0-3.99,0-3.99h-8.01s.02,4,.02,4l-4.02-.02v4.02s-3.98,0-3.98,0l-.03-7.43,4.03-.57-.02-4.02,4.02.02-.02-4.02h4.02s0-3.99,0-3.99h-4.02s0-4,0-4h4.02c.13-7.98-.2-16.02,0-24,1.33-.08,2.68.07,4,0v-8.01s-4,0-4,0c-.06,2.66.06,5.35,0,8-2.64.16-5.35-.11-8,0v-20h4.01s-.02-12-.02-12h4.02s-.02-8-.02-8l4.02.02-.02-4.02,4.02.02-.02-8.01,4.02.02-.02-4.02,8.01.02-.02-4.02,4.02.02-.02-4.02h8.01s.57,4.03.57,4.03h7.43s0-4.02,0-4.02h16v-4.01s4,0,4,0v16h-4v16h8s-.01-12-.01-12h4.02s0-3.99,0-3.99h-4.02s0-8.01,0-8.01l4.02.02-.02-4.02h8.01s0,4,0,4h-4.02s.01,12.01.01,12.01h3.99s0-4.01,0-4.01h12.01s0,12.01,0,12.01h-4.02s0,3.99,0,3.99h4.02s0,4,0,4h-4.02c-.06,1.32.09,2.68,0,4-2.66.07-5.35-.05-8.01,0l.02,4.02-4.02-.02.02,4.02-4.02-.02.02,4.02-4.02-.02c-.06,1.33.09,2.68,0,4.01-3.99.1-8.02-.07-12,0v8.01s-4-.02-4-.02l.02,4.02h-8.01s.01,8,.01,8l-4.02-.02.02,4.02-4.02-.02.02,4.02-4.02-.02.02,4.02-8.01-.02.02,4.02-4.02-.02.02,4.02h-4.02s0,3.98,0,3.98h8.01s-.02-4-.02-4l4.02.02v-4.02s3.98,0,3.98,0v8.01s-3.99,0-3.99,0v16h-8s0,8,0,8h4.02s-.02,12-.02,12h4.02s0,12,0,12h-4.02s0,12,0,12h4.02s-.01,12-.01,12h8.01s-.02,4-.02,4l4.02-.02-.02,8.01h4.01s0,23.99,0,23.99h8s0-8,0-8h-4.02s.01-8,.01-8h3.99s0,4.01,0,4.01h4v-36l-4.02-.58v-7.43s4.03,0,4.03,0v-4h-20.01v-4h16v-16h-8s0-12,0-12h4.02s0-3.99,0-3.99h-4.02s0-4,0-4h4.02s-.02-8.01-.02-8.01h4.02s-.02-12-.02-12l4.02.02-.02-4.02,4.02.02v-12.01s-4.02,0-4.02,0v-3.99s4.02,0,4.02,0l-.02-4.02,4.02.02-.02-4.02,4.02.02c.06-1.33-.09-2.68,0-4.01,2.66-.07,5.35.05,8.01,0l-.02-4.02,4.02.02-.02-4.02,4.02.02-.02-4.02,4.02.02c.06-1.33-.09-2.68,0-4.01,2.65-.07,5.35-.05,8,0-.08,1.33.07,2.68,0,4.01l-4.02-.02.02,4.02h-4.02s0,3.98,0,3.98h8.01s-.02-4-.02-4l4.02.02v-8.01c-1.33-.03-2.67.03-4.01,0,.08-1.33-.07-2.68,0-4.01h4.02s-.01-8-.01-8h8.01c.06-1.32-.08-2.67,0-3.99ZM1950.02,794.04c2.66-.05,5.35.04,8.01,0v-4.02s8,.01,8,.01v-12.01s-4,0-4,0v4.02s-4.01-.02-4.01-.02l.02,4.02-4.02-.02.02,4.02-4.02-.02c-.06,1.33.09,2.68,0,4.01-2.66.05-5.35-.04-8.01,0v4.02s-8,0-8,0v3.99s12.01.01,12.01.01l-.02-4.02,4.02.02c.06-1.33-.09-2.68,0-4.01ZM2018.02,898.03h-8.01v3.99h8.01v-3.99ZM2046.01,902.03h-8.01s0,8,0,8h3.99s0-4.01,0-4.01h4.02s0-3.99,0-3.99ZM1902.03,910.02h-8.01s0,4,0,4h4.02s0,4.01,0,4.01h3.99s0-8.01,0-8.01ZM1958.02,914.02h-3.99v8.01h3.99v-8.01ZM1854.03,918.02h-3.99v12.01h3.99s0-4.01,0-4.01h4.02s0-3.99,0-3.99h-4.02s0-4.01,0-4.01ZM2094,946.02h-16v4s4.01,0,4.01,0v4.02s3.99,0,3.99,0v-4.02s4,0,4,0l.51,8.01h3.49s0-12,0-12ZM1970.02,970.02h-8.01v3.99h8.01v-3.99ZM1974.02,978.01h-8.01s0,4,0,4h4.02s0,4.01,0,4.01h3.99s0-8.01,0-8.01ZM2385.96,998.01h-3.99s0,4.01,0,4.01h-8.01s0,3.99,0,3.99h12.01s0-8,0-8ZM2377.97,1022.02h-8.01s.02,4,.02,4h-4.02s0,3.99,0,3.99h8.01s-.02-4-.02-4h4.02s0-3.99,0-3.99ZM2074,1050h-3.99s0,4.02,0,4.02l-4.02-.02v8.01s-11.99,0-11.99,0v3.99s4.01,0,4.01,0v12.01s8,0,8,0v-8.01s4,.02,4,.02l-.02-4.02h4.02s0-3.99,0-3.99h-4.02s0-4,0-4h8.01s0-4,0-4h-4.02s0-4.01,0-4.01ZM2249.99,1062.01h-8.01v3.99h8.01v-3.99ZM2241.99,1070.01v20h4s0-4.01,0-4.01h4.02s0-3.99,0-3.99l-4.03-.58v-7.43s4.03,0,4.03,0v-3.99s-8.01,0-8.01,0ZM2098.01,1086.01h-12.01v3.99h12.01v-3.99ZM2082.01,1122h-8.01v3.99h8.01v-3.99ZM2433.96,1141.99h-3.99v8.01h3.99v-8.01Z"/>
    <path class="cls-1" d="M2158,878.03c-.07-2.66.05-5.35,0-8.01h-4.02s.02-8,.02-8h-4.02s0-3.99,0-3.99h4.02s-.02-4.01-.02-4.01l4.02.02-.02-4.02,8.01.02-.02-4.02,4.02.02-.02-4.02,4.02.02-.02-4.02,8.01.02v-4.02s8,.02,8,.02v-4.02s8,.02,8,.02v-4.02s12,.02,12,.02l-.02-4.02,4.02.02-.02-12.01,4.02.02-.02-4.02,4.02.02-.02-4.02,4.02.02-.02-4.02h12.01s0,4,0,4h-4.02s.02,4.01.02,4.01l-4.02-.02.02,4.02-8.01-.02.02,4.02-4.02-.02v12.01s8.01,0,8.01,0v-4.01s15.99,0,15.99,0v-4h24v8s-4.02.57-4.02.57l.03,7.43h3.99s0-4.01,0-4.01l4.02.02v-8.01s8,.01,8,.01l-.02-4.02,4.02.02v-8.01s3.99,0,3.99,0v4.02s4,0,4,0v-4.02s4,0,4,0v8.01s-4-.01-4-.01l.02,8.01-4.02-.02.02,4.02-8.01-.02v4.02s-8-.02-8-.02l.02,4.02-4.02-.02.02,4.02-16.01-.02.02,4.02h-4.02s0,3.99,0,3.99h8.01s0,4,0,4h-4.02s.02,4.01.02,4.01l-4.02-.02.02,4.02-4.02-.02.02,4.02-4.02-.02.02,4.02-4.02-.02.02,4.02h-8.01v-20.01h-4s0,8,0,8h-8.01s.02-4.01.02-4.01l-4.02.02v-4.02s-3.99,0-3.99,0v4.02s-8.01-.02-8.01-.02v4.02s-12,0-12,0v-4.02s-3.99,0-3.99,0v4.02s-4.01-.02-4.01-.02l.02,8.01h-4.02s.01,8,.01,8c-5.3.22-10.72-.32-16,0,.1,3.99-.06,8.02,0,12h-3.99s0-12.01,0-12.01c1.32-.07,2.68.09,4,0Z"/>
    <polygon class="cls-1" points="2022.01 974.01 2022.02 986.02 2018 986.01 2018.02 990.03 2014.01 990.01 2014.02 998.02 2010 998 2010.02 1002.02 2002.01 1002 2002.03 1006.02 1998.01 1006 1998.02 1010.02 1990.01 1010.02 1990.01 1002.01 1994.03 1002.02 1994.01 994.01 2002.02 994.02 2002.01 990.01 2006.02 990.03 2006.01 986.01 2010.02 986.03 2010 982.01 2014.02 982.03 2014 978.01 2018.02 978.03 2018.02 974.01 2022.01 974.01"/>
    <rect class="cls-1" x="2158" y="934.02" width="3.99" height="8.01"/>
    <rect class="cls-1" x="1970.02" y="746.05" width="8.01" height="3.99"/>
    <path class="cls-1" d="M1990.02,738.05c.06-1.33-.06-2.68,0-4h8.01s0,4,0,4c-2.66.04-5.34-.03-8,0-.06,1.33.06,2.68,0,4h-8.01s0-4,0-4c2.66-.04,5.34.03,8,0Z"/>
    <rect class="cls-1" x="1930.03" y="930.02" width="3.99" height="12.01"/>
  </g>
</svg>