<?xml version="1.0" encoding="UTF-8"?>
<svg id="Layer_1" data-name="Layer 1" xmlns="http://www.w3.org/2000/svg" viewBox="0 0 1080 1080">
  <defs>
    <style>
      .cls-1 {
        fill: #403353;
      }
    </style>
  </defs>
  <g>
    <path class="cls-1" d="M-171.98,238.04c-2.66-.05-5.35.04-8,0v-12.01s4.01.02,4.01.02l-.02-4.02,4.02.02-.02-4.02,8.01.02-.02-4.02,4.02.02-.02-4.02,4.02.02-.02-4.02,12.01.02-.02-4.02,4.02.02v-8.01s-4,0-4,0l-.58,4.03-11.43-.03v-3.99s4.01,0,4.01,0l-.02-4.02,4.02.02-.02-4.02,4.02.02-.02-4.02,8.01.02v-4.02s3.99,0,3.99,0v4.02s4,0,4,0v-4.01h16v4s-4.01,0-4.01,0l.02,4.02h-8.01s0,3.99,0,3.99h8.01s0,4,0,4h-4.02s.02,4.01.02,4.01h-8.01s.01-4.02.01-4.02h-8.01s0,8.01,0,8.01h4.02s0,3.99,0,3.99h-4.02s.02,4.01.02,4.01l-16.01-.02.02,4.02-4.02-.02v8.01s-8-.01-8-.01l.02,4.02-4.02-.02.02,8.01h-4.02c-.06,1.32.08,2.66,0,3.99,1.33.03,2.67-.04,4,0l.02,11.43-4.03.58v3.99s8.01,0,8.01,0v-12.01s4,.02,4,.02l-.02-4.02,4.02.02-.02-4.02,8.01.02-.02-4.02,4.02.02v-8.01s8,.01,8,.01l-.02-4.02,4.02.02-.02-4.02,4.02.02-.02-4.02h8.01s0,8.01,0,8.01h3.99s0-4.01,0-4.01h3.99s0,8.01,0,8.01h-8.01s0,8,0,8h3.99s0-4.01,0-4.01l12.01.02v-4.02s8,.02,8,.02l-.02-4.02,4.02.02-.02-4.02,4.02.02-.02-4.02,4.02.02v-4.02s3.99,0,3.99,0v4.02s4,0,4,0v-8.01s8.01.01,8.01.01v-4.02s8,.02,8,.02v-4.02s12,.02,12,.02v-4.02s12,0,12,0l-.02,4.02,4.02-.02v12.01s8,0,8,0v-4.02s3.99,0,3.99,0v4.02s4.01-.02,4.01-.02l-.02,4.02H-3.99s0-4.02,0-4.02H0s0,4.02,0,4.02h8.01s-.01,8-.01,8l4.02-.02-.02,4.02,12.01-.02-.02,4.02,4.02-.02v8.01s-4.02,0-4.02,0v3.99s8.01,0,8.01,0v4.02s8-.01,8-.01v8.01s7.99,0,7.99,0v16h-4.01s.02,4.01.02,4.01l-4.02-.02.02,4.02-4.02-.02.02,4.02-4.02-.02.02,4.02-4.02-.02.02,4.02-8.01-.02.02,4.02-4.02-.02.02,4.02-8.01-.02v4.02s-8-.02-8-.02v4.02s-8,0-8,0v-4.02s-3.99,0-3.99,0v4.02s-8.01-.01-8.01-.01v8.01s-3.99,0-3.99,0v-4.02s-4,0-4,0v4.02s-4,0-4,0v-8h-20v4.01s-12-.02-12-.02v4.02s-8-.02-8-.02l.02,4.02-4.02-.02.02,4.02-4.02-.02.02,4.02h-8.01s.01-4.02.01-4.02c-1.33-.03-2.67.04-4,0,0,1.33.02,2.67,0,4h-8.01s0-4,0-4c2.66.03,5.35-.07,8,0,0-1.33.02-2.67,0-4h-16.01s.01-8,.01-8l-7.43-.02-.57,4.03-4.02-.02.02,4.02-4.02-.02.02,4.02h-12.01s0-12.01,0-12.01l4.03-.57-.03-7.43h-3.99s0,4.01,0,4.01l-4.02-.02.02,4.02-4.02-.02.02,4.02-4.02-.02.02,4.02-4.02-.02.02,4.02-4.02-.02.02,4.02-4.02-.02.02,4.02-12.01-.02v4.02c-1.31.06-2.67-.09-3.99,0,0,2.66,0,5.34,0,8h-8.01s0-4,0-4h4.02s-.02-4.01-.02-4.01c1.33-.06,2.68.09,4.01,0,0-2.66.01-5.34,0-8h-3.99s0,4.01,0,4.01l-4.02-.02.02,4.02-8.01-.02.02,4.02-4.02-.02v4.02s-3.99,0-3.99,0v-4.02s-4,0-4,0v4.02s-4.01-.02-4.01-.02l.02,12.01-4.02-.02.02,4.02h-4.02s0,3.99,0,3.99h4.02s-.02,4.01-.02,4.01l4.02-.02v4.02s3.99,0,3.99,0v-4.02s12.01,0,12.01,0v12.01s-4.01-.01-4.01-.01c-.02,2.66.05,5.34,0,8.01-1.33.07-2.68-.07-4,0v8.01s4,0,4,0c.05-2.66-.04-5.34,0-8,1.33-.07,2.68.07,4.01,0v-4.02s8,.01,8,.01v-8.01s4,0,4,0v-3.99s-4.02,0-4.02,0v-3.99s4.02,0,4.02,0l-.02-8.01h4.02s0-3.99,0-3.99h-4.02s0-8.01,0-8.01h8.01s0,8.01,0,8.01h3.99s0-4.01,0-4.01l4.02.02-.02-4.02,4.02.02-.02-4.02h8.01s0-7.99,0-7.99h3.99s0,8.01,0,8.01h4.02c-.12,2.64.15,5.35,0,7.99-1.33-.08-2.68.07-4,0v-4.02s-3.99,0-3.99,0v8.01s8,0,8,0c.07-1.32-.09-2.68,0-4,1.33.08,2.68-.07,4.01,0v4.02s8,0,8,0v3.99s-4.01,0-4.01,0v3.99s4.02,0,4.02,0v4.02s3.99,0,3.99,0v-4.02s12.01.02,12.01.02l.57-4.03h7.43s-.01,4.03-.01,4.03c4.78.8,14.64-2.55,15.97,3.53.3,1.37-.04,3.03.04,4.47h-8.01s.01,12,.01,12l-4.02-.02.02,4.02-4.02-.02.02,8.01h-4.02s0,3.99,0,3.99h4.02s0,4,0,4h-8.01s.01,8.01.01,8.01l-4.02-.02.02,4.02-4.02-.02.02,4.02-4.02-.02v8.01s-3.99,0-3.99,0v-16h-4.01s-.01-11.42-.01-11.42l4.03-.58v-3.99s-8.01,0-8.01,0v-3.99s4.01,0,4.01,0v-8.01s3.49,0,3.49,0l.51,8.01h3.99s0-12.01,0-12.01h-12.01s.01,8.01.01,8.01l-4.02-.02.02,4.02-4.02-.02.02,4.02-4.02-.02.02,4.02h-8.01s.01,8,.01,8h-4.01s0,19.99,0,19.99h-4s0-4.01,0-4.01h-8.01s.01-12,.01-12h-4.02c-.03-1.32.04-2.66,0-3.99,2.66-.06,5.35.06,8,0v-3.99s-4.01,0-4.01,0v-4.02s-3.99,0-3.99,0c.03,2.66-.07,5.35,0,8-1.33.03-2.68-.04-4.01,0l.02,4.02-4.02-.02.02,8.01-4.02-.02.02,4.02c-1.33.03-2.67-.04-4.01,0-.13-2.18.55-15.85-.57-16.02l-7.43.02v3.99s4.01,0,4.01,0v3.99s-4.02,0-4.02,0l.02,4.02-4.02-.02c-.06,1.33.09,2.68,0,4.01-3.99.05-8.01-.04-12,0v12.01s8.01,0,8.01,0v-8.01s4,.01,4,.01c.06-1.33-.09-2.68,0-4.01,3.99-.05,8.01.1,12,0,.08,1.33-.07,2.68,0,4l7.43.02.57-4.03h8.01s-.01,12.01-.01,12.01h4.02s0,3.99,0,3.99h-4.02s0,8.01,0,8.01l4.02-.02-.02,4.02h4.02s0,3.99,0,3.99h-4.02s.02,12.01.02,12.01h-4.02s0,3.99,0,3.99h4.02s0,4,0,4h-4.02s0,4,0,4h4.02s-.02,4.01-.02,4.01h4.02s0,3.99,0,3.99h-4.02s.02,4.01.02,4.01l-4.02-.02.02,4.02h-8.01s0,8,0,8l4.02-.02v4.02s3.99,0,3.99,0v-4.02s4.01.02,4.01.02l-.02-4.02,8.01.02-.02-4.02,4.02.02v-8.01s8,.01,8,.01l-.02-4.02,4.02.02-.02-4.02c1.33-.01,2.67,0,4.01,0,.05-2.66-.04-5.35,0-8.01l4.02.02-.02-4.02h8.01s-.01-8-.01-8l4.02.02-.02-4.02,4.02.02-.02-8.01,4.02.02-.02-4.02h8.01s0-3.99,0-3.99h-4.02s0-4,0-4h12.01s0-4,0-4h-4.02s0-4,0-4h4.02s-.02-4.01-.02-4.01l4.02.02c0-2.66-.02-5.34,0-8.01-1.33,0-2.67.02-4,0v-8.01s4,0,4,0c.01,2.66.01,5.34,0,8,1.33,0,2.67.02,4,0v-8.01s4,.02,4,.02l-.02-4.02,4.02.02-.02-16.01,4.02.02-.02-4.02,4.02.02-.02-4.02h8.01s0-7.99,0-7.99h3.99s0,4.01,0,4.01l8.01-.02-.02,4.02,4.02-.02-.02,4.02,8.01-.02v4.02s3.99,0,3.99,0v-8.01s4,0,4,0v16h8.01s-.02,4.01-.02,4.01l4.02-.02-.02,4.02,4.02-.02-.02,4.02h4.02s0,3.99,0,3.99h-4.02s0,4.01,0,4.01h-3.99s0-4.02,0-4.02l-4.02.02v-4.02s-3.99,0-3.99,0v8.01s4-.02,4-.02l-.02,4.02,8.01-.02v4.02s3.99,0,3.99,0v-4.02s8.01,0,8.01,0v8.01s-8.01-.01-8.01-.01v8H-4v4s-4.01,0-4.01,0l.02,8.01h-4.02s0,3.99,0,3.99h4.02s0,4,0,4h-32v4.01s-8,0-8,0v-8.01s-3.99,0-3.99,0v4.02s-12.01-.02-12.01-.02v4.02s-8-.02-8-.02v4.02s-12-.02-12-.02v4.02s-3.99,0-3.99,0v-4.02s-12.01,0-12.01,0v4.02s-8-.02-8-.02l.02,4.02-4.02-.02.02,4.02h-12.01s.01-4.02.01-4.02h-8.01s.01,8.01.01,8.01l-4.02-.02.02,4.02h-8.01s.01-4.02.01-4.02c-1.33-.01-2.67,0-4,0-.05,2.66.04,5.35,0,8.01h-4.02s0,3.99,0,3.99h8.01s0,4,0,4h-4.02s0,4,0,4h8.01s-.01,12.01-.01,12.01h8.01s-.01-8.01-.01-8.01l4.02.02-.02-4.02,8.01.02v-4.02s3.99,0,3.99,0v4.02s4,0,4,0v-4.02s4.01.02,4.01.02v-4.02s3.99,0,3.99,0v4.02s4,0,4,0v-4.02s12.01.02,12.01.02v-4.02s3.99,0,3.99,0v12.01s4.02.57,4.02.57v7.43s-4.03,0-4.03,0v3.99s8.01.01,8.01.01v-4.02s3.99,0,3.99,0v8.01s4,0,4,0v-4.02s4,0,4,0v8h20v4h16v8.01s-4.01-.02-4.01-.02l.02,4.02-4.02-.02.02,4.02-4.02-.02.02,4.02-4.02-.02.02,4.02-4.02-.02.02,4.02-4.02-.02.02,4.02h-8.01s0,3.99,0,3.99h4.02s0,4,0,4h-4.02s.02,4.01.02,4.01l-4.02-.02.02,4.02-4.02-.02.02,4.02-4.02-.02.02,4.02h-4.02s0,3.98,0,3.98h8.01s-.02-4-.02-4l4.02.02-.02-4.02,4.02.02-.02-4.02,4.02.02-.02-4.02,4.02.02-.02-4.02,4.02.02v-4.02s3.99,0,3.99,0v4.02s4,0,4,0v-16h4.01s-.02-4.01-.02-4.01l4.02.02-.02-4.02,4.02.02-.02-4.02,4.02.02-.02-4.02,8.01.02-.02-4.02,4.02.02v-4.02s3.99,0,3.99,0v4.02s8.01,0,8.01,0v-8.01s3.99,0,3.99,0v4.02s7.43.01,7.43.01l.57-4.03h8.01l.57,4.03h7.43s0-4.03,0-4.03h3.99s0,8.01,0,8.01h8.01s0,3.99,0,3.99h-4.02s.02,4.01.02,4.01l-4.02-.02v8.01s-8-.01-8-.01v4.02s-8-.02-8-.02v4.02s-12-.02-12-.02v4.02s-3.99,0-3.99,0v-4.02s-8.01,0-8.01,0v12s-27.99,0-27.99,0v4h16v4.01s4,0,4,0v-4.02s8.01,0,8.01,0v4.01s15.99,0,15.99,0v4.01s8,0,8,0v-8.01s3.99,0,3.99,0v4.02s4,0,4,0v-8.01s4,0,4,0v4.02s4,0,4,0v-8.01s7.43-.02,7.43-.02l.57,4.03,4.02-.02v4.02s3.99,0,3.99,0v-4.02s12.01,0,12.01,0l-.02,4.02,4.02-.02-.02,4.02h8.01s0,19.99,0,19.99h4s0-12,0-12h4.02c.06-1.31-.09-2.67,0-3.99,2.64.16,5.36-.11,8.01,0l-.02-4.02h4.02s0-3.99,0-3.99h-8.01s.02,4,.02,4l-4.02-.02c-.06,1.33.09,2.68,0,4.01-1.33-.08-2.68.07-4,0v-8.01s-4,0-4,0v-3.99s8.01,0,8.01,0v-3.99s-4,0-4,0v-24h-4.01s0-4,0-4h4.02s-.01-12.01-.01-12.01h12.01s-.02-4-.02-4l4.02.02-.02-4.02,8.01.02-.02-4.02,4.02.02v-8.01s-4.02,0-4.02,0v-3.99s4.02,0,4.02,0v-3.99s-4.02,0-4.02,0v-3.99s4.02,0,4.02,0l-.02-4.02,4.02.02-.02-4.02,4.02.02v-11.43s-4.02-.58-4.02-.58v-3.99s4.02,0,4.02,0v-3.99s-4.02,0-4.02,0v-3.99s4.02,0,4.02,0v-3.99s-8.01,0-8.01,0v-3.99s8.01,0,8.01,0v-12.01s4,.02,4,.02v-4.02s3.99,0,3.99,0v4.02s4.01-.02,4.01-.02v8.01s8-.01,8-.01v4.02s8,0,8,0c.04-2.66-.07-5.35,0-8-1.33-.08-2.68.07-4.01,0l.02-4.02h-4.02s0-3.99,0-3.99h12.01s0,3.99,0,3.99h-4.02c-.03,1.33.04,2.67,0,4,1.33.08,2.68-.07,4.01,0l-.02,4.02,4.02-.02-.02,4.02,4.02-.02-.02,4.02h8.01s0,3.99,0,3.99h-4.02s.02,4.01.02,4.01l-4.02-.02v4.02s-3.99,0-3.99,0v-4.02s-4,0-4,0v4.02s-4.01,0-4.01,0v4h16.01v4s-4.01,0-4.01,0l.02,4.02-4.02-.02c-.06,1.33.08,2.68,0,4.01-2.66.04-5.34-.04-8,0v3.99s8.01,0,8.01,0c.06-1.33-.08-2.68,0-4,2.66-.04,5.35.03,8.01,0v-4.02s8,.02,8,.02v-4.02s3.99,0,3.99,0v8.01s-8-.01-8-.01v4.02s-8-.02-8-.02l.02,4.02-4.02-.02.02,4.02-8.01-.02.02,4.02h-4.02s0,3.99,0,3.99h8.01s-.01-4-.01-4l8.01.02v-4.02s8,.02,8,.02v-4.02s8,.02,8,.02l-.02-4.02,4.02.02-.02-4.02,4.02.02-.02-4.02,4.02.02-.02-4.02,4.02.02-.02-4.02,4.02.02-.02-4.02,4.02.02-.02-4.02,8.01.02-.02-4.02,4.02.02-.02-4.02h8.01s0,8.01,0,8.01h3.99s0-4.01,0-4.01l8.01.02-.02-4.02,4.02.02-.02-4.02,4.02.02-.02-4.02,4.02.02v-8.01s3.99,0,3.99,0v4.02s4.01-.02,4.01-.02v8.01s7.99,0,7.99,0v3.99s-4.01,0-4.01,0v8h16.01v8.01s4.01-.02,4.01-.02l-.02,4.02,4.02-.02-.02,8.01,4.02-.02-.02,4.02,4.02-.02v8.01s-8.01-.01-8.01-.01l.02,4.02h-4.02s0,3.99,0,3.99h12.01s-.02,4.01-.02,4.01h4.02s0,3.99,0,3.99h-4.02s.02,12.01.02,12.01l-4.02-.02.02,4.02-4.02-.02.02,4.02-4.02-.02.02,4.02-4.02-.02.02,4.02-4.02-.02.02,4.02-4.02-.02.02,4.02-4.02-.02.02,4.02-4.02-.02.02,4.02h-4.02s0,3.98,0,3.98h8.01s-.02-4-.02-4l4.02.02-.02-4.02,4.02.02-.02-4.02,4.02.02-.02-4.02,8.01.02v-4.02s3.99,0,3.99,0v8.01s4.01,0,4.01,0v3.99s-4.02,0-4.02,0l.02,4.02-4.02-.02.02,4.02-4.02-.02.02,4.02-4.02-.02.02,4.02-4.02-.02.02,4.02-4.02-.02.02,4.02-4.02-.02.02,4.02-8.01-.02.02,4.02-4.02-.02.02,4.02-4.02-.02.02,4.02-4.02-.02.02,4.02-4.02-.02.02,4.02-4.02-.02.02,4.02-8.01-.02.02,4.02-4.02-.02.02,4.02-4.02-.02.02,4.02-8.01-.02v4.02s-8-.01-8-.01v8.01s-8-.01-8-.01v4.02s-3.99,0-3.99,0v-4.02s-4,0-4,0v4.02s-8.01-.02-8.01-.02l.02,4.02h-4.02s0,3.99,0,3.99h8.01s-.01-4-.01-4h8.01s0,4,0,4h-4.02s0,4,0,4h8.01s-.02-4-.02-4l4.02.02-.02-4.02,4.02.02-.02-4.02,16.01.02-.02-4.02,4.02.02-.02-4.02,8.01.02-.02-4.02,4.02.02-.02-4.02,8.01.02-.02-4.02,4.02.02-.02-4.02,8.01.02-.02-4.02,4.02.02-.02-4.02,4.02.02-.02-4.02,4.02.02-.02-4.02,4.02.02-.02-4.02,4.02.02-.02-4.02,4.02.02-.02-4.02,8.01.02-.02-4.02,4.02.02-.02-4.02,4.02.02-.02-4.02h8.01s0,8.01,0,8.01h3.99s0-4.01,0-4.01h3.99s0,8.01,0,8.01h-12.01s.01,12,.01,12h-12s0,19.99,0,19.99h4.01s-.02,4.01-.02,4.01h7.43s.58-4.02.58-4.02h3.99s0,4.02,0,4.02h3.99s0-4.02,0-4.02h8.01s-.01,8.01-.01,8.01l4.02-.02-.02,4.02,4.02-.02v8.01s-4.02,0-4.02,0v3.99s4.01,0,4.01,0v16h-4.01s.02,8,.02,8h-4.02s.02,8,.02,8h-4.02s.02,8,.02,8l-4.02-.02.02,4.02-4.02-.02.02,4.02-4.02-.02.02,4.02-4.02-.02.02,4.02-4.02-.02v8.01s-8-.01-8-.01v8.01s-8-.01-8-.01v8.01s-4-.02-4-.02l.02,4.02-4.02-.02.02,4.02h-8.01s.01,8,.01,8l-4.02-.02.02,4.02-4.02-.02.02,4.02-8.01-.02.02,4.02-4.02-.02v8.01s-8-.01-8-.01l.02,4.02-4.02-.02.02,4.02-4.02-.02.02,4.02-4.02-.02.02,4.02-4.02-.02.02,4.02-4.02-.02.02,4.02-4.02-.02.02,4.02-4.02-.02.02,4.02-4.02-.02.02,4.02-4.02-.02.02,4.02-4.02-.02.02,4.02-4.02-.02.02,4.02-4.02-.02.02,4.02-4.02-.02.02,4.02-4.02-.02.02,4.02-4.02-.02.02,4.02-4.02-.02.02,4.02-4.02-.02.02,4.02-4.02-.02.02,4.02-4.02-.02.02,4.02-4.02-.02.02,4.02-4.02-.02.02,4.02-4.02-.02.02,8.01-4.02-.02.02,4.02-4.02-.02.02,4.02-4.02-.02.02,4.02-4.02-.02.02,4.02-4.02-.02.02,4.02-4.02-.02.02,8.01-4.02-.02.02,4.02-4.02-.02.02,8.01-4.02-.02.02,4.02-4.02-.02.02,4.02-4.02-.02.02,4.02-4.02-.02v8.01c-4.07.58-9.36-2.45-7.99,3.99h-20c.32-4.19.47-4.39-4.01-3.99l.02-4.02-4.02.02.02-4.02-4.02.02.02-4.02-4.02.02.02-4.02-4.02.02.02-8.01-4.02.02.02-4.02-4.02.02.02-4.02-4.02.02.02-8.01-4.02.02.02-4.02-4.02.02.02-4.02-4.02.02.02-4.02-4.02.02.02-4.02-4.02.02.02-4.02-4.02.02v-8.01s-8,.01-8,.01v-8.01s-4,.02-4,.02l.02-4.02-4.02.02.02-4.02-4.02.02.02-4.02-4.02.02.02-4.02-4.02.02.02-4.02-4.02.02.02-4.02-4.02.02.02-4.02-4.02.02.02-4.02-4.02.02.02-4.02-4.02.02.02-4.02-4.02.02.02-4.02-4.02.02.02-4.02-4.02.02.02-4.02-4.02.02.02-4.02-4.02.02.02-4.02-8.01.02.02-4.02-4.02.02.02-4.02-4.02.02.02-4.02-4.02.02.02-4.02-4.02.02.02-4.02-4.02.02.02-4.02-4.02.02.02-4.02-4.02.02.02-4.02-4.02.02.02-4.02-8.01.02.02-4.02-4.02.02.02-4.02-4.02.02.02-4.02-4.02.02.02-4.02-4.02.02.02-4.02-4.02.02.02-4.02-4.02.02.02-4.02-4.02.02.02-4.02-8.01.02.02-4.02-4.02.02.02-4.02-4.02.02.02-4.02-4.02.02.02-4.02-8.01.02.02-4.02-4.02.02.02-4.02-4.02.02.02-4.02-4.02.02.02-4.02-4.02.02.02-4.02-4.02.02.02-4.02-4.02.02.02-4.02-4.02.02.02-4.02-4.02.02.02-4.02-8.01.02.02-4.02-4.02.02.02-8.01-4.02.02.02-4.02-4.02.02.02-4.02-4.02.02.02-8.01-4.02.02.02-4.02-4.02.02.02-4.02-4.02.02.02-4.02-4.02.02.02-4.02-4.02.02.02-4.02-4.02.02.02-4.02-4.02.02.02-4.02-4.02.02.02-4.02-4.02.02.02-4.02-4.02.02.02-8.01-4.02.02.02-4.02-4.02.02.02-4.02-4.02.02.02-12.01-4.02.02.02-4.02-4.02.02.02-8.01h-4.02s.02-8,.02-8h-4.02s.02-8,.02-8h-4.02s.02-8,.02-8h-4.02s.02-8,.02-8l-4.02.02.02-4.02-4.02.02.02-8.01h-4.01s0-19.99,0-19.99h-4v-20h4.01s0-4,0-4h-4.01v-16h-4v-32h-8v-4c4.19.32,4.39.47,3.99-4.01l4.02.02-.02-8.01h4.01s0-23.99,0-23.99h4s0,4.01,0,4.01h8.01s0-4,0-4h-4.02s0-4,0-4h8.01s-.02-4.01-.02-4.01l4.02.02-.02-4.02,4.02.02-.02-4.02h12.01s-.01-11.99-.01-11.99h8.01s-.01-8-.01-8h4.02s0-3.99,0-3.99h-8.01s.02,4,.02,4l-4.02-.02v4.02s-3.98,0-3.98,0l-.03-7.43,4.03-.57-.02-4.02,4.02.02-.02-4.02h4.02s0-3.99,0-3.99h-4.02s0-4,0-4h4.02c.13-7.98-.2-16.02,0-24,1.33-.08,2.68.07,4,0v-8.01s-4,0-4,0c-.06,2.66.06,5.35,0,8-2.64.16-5.35-.11-8,0v-20h4.01s-.02-12-.02-12h4.02s-.02-8-.02-8l4.02.02-.02-4.02,4.02.02-.02-8.01,4.02.02-.02-4.02,8.01.02-.02-4.02,4.02.02-.02-4.02h8.01s.57,4.03.57,4.03h7.43s0-4.02,0-4.02h16v-4.01s4,0,4,0v16h-4v16h8s-.01-12-.01-12h4.02s0-3.99,0-3.99h-4.02s0-8.01,0-8.01l4.02.02-.02-4.02h8.01s0,4,0,4h-4.02s.01,12.01.01,12.01h3.99s0-4.01,0-4.01h12.01s0,12.01,0,12.01h-4.02s0,3.99,0,3.99h4.02s0,4,0,4h-4.02c-.06,1.32.09,2.68,0,4-2.66.07-5.35-.05-8.01,0l.02,4.02-4.02-.02.02,4.02-4.02-.02.02,4.02-4.02-.02c-.06,1.33.09,2.68,0,4.01-3.99.1-8.02-.07-12,0v8.01s-4-.02-4-.02l.02,4.02h-8.01s.01,8,.01,8l-4.02-.02.02,4.02-4.02-.02.02,4.02-4.02-.02.02,4.02-8.01-.02.02,4.02-4.02-.02.02,4.02h-4.02s0,3.98,0,3.98h8.01s-.02-4-.02-4l4.02.02v-4.02s3.98,0,3.98,0v8.01s-3.99,0-3.99,0v16h-8s0,8,0,8h4.02s-.02,12-.02,12h4.02s0,12,0,12h-4.02s0,12,0,12h4.02s-.01,12-.01,12h8.01s-.02,4-.02,4l4.02-.02-.02,8.01h4.01s0,23.99,0,23.99h8s0-8,0-8h-4.02s.01-8,.01-8h3.99s0,4.01,0,4.01h4v-36l-4.02-.58v-7.43s4.03,0,4.03,0v-4h-20.01v-4h16v-16h-8s0-12,0-12h4.02s0-3.99,0-3.99h-4.02s0-4,0-4h4.02s-.02-8.01-.02-8.01h4.02s-.02-12-.02-12l4.02.02-.02-4.02,4.02.02v-12.01s-4.02,0-4.02,0v-3.99s4.02,0,4.02,0l-.02-4.02,4.02.02-.02-4.02,4.02.02c.06-1.33-.09-2.68,0-4.01,2.66-.07,5.35.05,8.01,0l-.02-4.02,4.02.02-.02-4.02,4.02.02-.02-4.02,4.02.02c.06-1.33-.09-2.68,0-4.01,2.65-.07,5.35-.05,8,0-.08,1.33.07,2.68,0,4.01l-4.02-.02.02,4.02h-4.02s0,3.98,0,3.98h8.01s-.02-4-.02-4l4.02.02v-8.01c-1.33-.03-2.67.03-4.01,0,.08-1.33-.07-2.68,0-4.01h4.02s-.01-8-.01-8h8.01c.06-1.32-.08-2.67,0-3.99ZM-211.97,254.04c2.66-.05,5.35.04,8.01,0v-4.02s8,.01,8,.01v-12.01s-4,0-4,0v4.02s-4.01-.02-4.01-.02l.02,4.02-4.02-.02.02,4.02-4.02-.02c-.06,1.33.09,2.68,0,4.01-2.66.05-5.35-.04-8.01,0v4.02s-8,0-8,0v3.99s12.01.01,12.01.01l-.02-4.02,4.02.02c.06-1.33-.09-2.68,0-4.01ZM-143.98,358.03h-8.01v3.99h8.01v-3.99ZM-115.98,362.03h-8.01s0,8,0,8h3.99s0-4.01,0-4.01h4.02s0-3.99,0-3.99ZM-259.96,370.02h-8.01s0,4,0,4h4.02s0,4.01,0,4.01h3.99s0-8.01,0-8.01ZM-203.98,374.02h-3.99v8.01h3.99v-8.01ZM-307.97,378.02h-3.99v12.01h3.99s0-4.01,0-4.01h4.02s0-3.99,0-3.99h-4.02s0-4.01,0-4.01ZM-67.99,406.02h-16v4s4.01,0,4.01,0v4.02s3.99,0,3.99,0v-4.02s4,0,4,0l.51,8.01h3.49s0-12,0-12ZM-191.97,430.02h-8.01v3.99h8.01v-3.99ZM-187.97,438.01h-8.01s0,4,0,4h4.02s0,4.01,0,4.01h3.99s0-8.01,0-8.01ZM223.97,458.01h-3.99s0,4.01,0,4.01h-8.01s0,3.99,0,3.99h12.01s0-8,0-8ZM215.98,482.02h-8.01s.02,4,.02,4h-4.02s0,3.99,0,3.99h8.01s-.02-4-.02-4h4.02s0-3.99,0-3.99ZM-87.99,510h-3.99s0,4.02,0,4.02l-4.02-.02v8.01s-11.99,0-11.99,0v3.99s4.01,0,4.01,0v12.01s8,0,8,0v-8.01s4,.02,4,.02l-.02-4.02h4.02s0-3.99,0-3.99h-4.02s0-4,0-4h8.01s0-4,0-4h-4.02s0-4.01,0-4.01ZM87.99,522.01h-8.01v3.99h8.01v-3.99ZM79.99,530.01v20h4s0-4.01,0-4.01h4.02s0-3.99,0-3.99l-4.03-.58v-7.43s4.03,0,4.03,0v-3.99s-8.01,0-8.01,0ZM-63.99,546.01h-12.01v3.99h12.01v-3.99ZM-79.99,582h-8.01v3.99h8.01v-3.99ZM271.96,601.99h-3.99v8.01h3.99v-8.01Z"/>
    <path class="cls-1" d="M-4,338.03c-.07-2.66.05-5.35,0-8.01h-4.02s.02-8,.02-8h-4.02s0-3.99,0-3.99h4.02s-.02-4.01-.02-4.01l4.02.02-.02-4.02,8.01.02-.02-4.02,4.02.02-.02-4.02,4.02.02-.02-4.02,8.01.02v-4.02s8,.02,8,.02v-4.02s8,.02,8,.02v-4.02s12,.02,12,.02l-.02-4.02,4.02.02-.02-12.01,4.02.02-.02-4.02,4.02.02-.02-4.02,4.02.02-.02-4.02h12.01s0,4,0,4h-4.02s.02,4.01.02,4.01l-4.02-.02.02,4.02-8.01-.02.02,4.02-4.02-.02v12.01s8.01,0,8.01,0v-4.01s15.99,0,15.99,0v-4h24v8s-4.02.57-4.02.57l.03,7.43h3.99s0-4.01,0-4.01l4.02.02v-8.01s8,.01,8,.01l-.02-4.02,4.02.02v-8.01s3.99,0,3.99,0v4.02s4,0,4,0v-4.02s4,0,4,0v8.01s-4-.01-4-.01l.02,8.01-4.02-.02.02,4.02-8.01-.02v4.02s-8-.02-8-.02l.02,4.02-4.02-.02.02,4.02-16.01-.02.02,4.02h-4.02s0,3.99,0,3.99h8.01s0,4,0,4h-4.02s.02,4.01.02,4.01l-4.02-.02.02,4.02-4.02-.02.02,4.02-4.02-.02.02,4.02-4.02-.02.02,4.02h-8.01v-20.01h-4s0,8,0,8h-8.01s.02-4.01.02-4.01l-4.02.02v-4.02s-3.99,0-3.99,0v4.02s-8.01-.02-8.01-.02v4.02s-12,0-12,0v-4.02s-3.99,0-3.99,0v4.02s-4.01-.02-4.01-.02l.02,8.01h-4.02s.01,8,.01,8c-5.3.22-10.72-.32-16,0,.1,3.99-.06,8.02,0,12h-3.99s0-12.01,0-12.01c1.32-.07,2.68.09,4,0Z"/>
    <path class="cls-1" d="M215.97,354.03c.08-1.33-.07-2.68,0-4.01l4.02.02-.02-4.02,4.02.02-.02-4.02h8.01s0-3.99,0-3.99h-4.02s0-4,0-4h12.01s0-4,0-4h-4.02s.02-4.01.02-4.01h-8.01s.02,4.02.02,4.02l-4.02-.02.02,4.02-4.02-.02.02,8.01-4.02-.02v4.02s-3.99,0-3.99,0v-8.01s-4,0-4,0v12.01s-4.01-.02-4.01-.02l.02,4.02-4.02-.02.02,4.02-4.02-.02v4.02s-3.99,0-3.99,0v-4.02s-12.01.02-12.01.02v-4.02s-8,.01-8,.01v-20.01s4.01.01,4.01.01l-.02-8.01,4.02.02-.02-4.02,4.02.02-.02-4.02,8.01.02v-4.02s8,.01,8,.01v3.99s-4.01,0-4.01,0v3.99s4.02,0,4.02,0l-.02,4.02,4.02-.02-.02,4.02,4.02-.02v4.02s3.98,0,3.98,0v-8.01s4,0,4,0v4.02s4,0,4,0v-8.01s8.01.01,8.01.01v-4.02s8,.02,8,.02l-.02-4.02,4.02.02v-4.02s3.98,0,3.98,0v8.01s4,0,4,0v-8.01s4,0,4,0v-24h4.01s-.02-4.01-.02-4.01l8.01.02-.02-4.02,4.02.02-.02-4.02h8.01s0-7.99,0-7.99h4v20h-8s.01,8,.01,8h-8.01s.01,8,.01,8h-4.02s0,3.99,0,3.99h4.02s0,4,0,4h-8.01s0,8.01,0,8.01h4.02s0,3.99,0,3.99h-4.02s.02,8.01.02,8.01l-4.02-.02.02,4.02-4.02-.02.02,4.02-4.02-.02v16.01s4.02,0,4.02,0v3.99s-8.01,0-8.01,0v16h-12s0-4,0-4h4.02s0-4,0-4h-4.02s.02-4.01.02-4.01c-2.66-.02-5.34.05-8.01,0,.08-1.33-.07-2.68,0-4h4.02s0-3.99,0-3.99c-2.66-.02-5.34,0-8,0Z"/>
    <path class="cls-1" d="M215.97,354.03c-.08,1.33.07,2.68,0,4h-4.02s0,3.99,0,3.99c2.66.05,5.34-.04,8,0-.08,1.33.07,2.68,0,4.01l-4.02-.02.02,4.02h-8.01s0-16.01,0-16.01c2.66,0,5.34,0,8,0Z"/>
    <path class="cls-1" d="M199.97,278.04c.03,1.33-.04,2.68,0,4h4.02s0,3.99,0,3.99h-4.02s.02,4.01.02,4.01l-4.02-.02.02,4.02-4.02-.02.02,4.02-4.02-.02.02,4.02-12.01-.02v4.02s-12,0-12,0v-8.01s4.01.02,4.01.02l-.02-4.02,4.02.02-.02-12.01,4.02.02-.02-4.02,8.01.02v-4.02s8,.02,8,.02v-4.02s3.99,0,3.99,0v8.01c1.33.01,2.67,0,4,0-.06-2.66.03-5.35,0-8h3.99s0,8.01,0,8.01c-1.33.01-2.67,0-4,0Z"/>
    <path class="cls-1" d="M263.97,258.04c2.64.16,5.36-.11,8.01,0l-.02-4.02,4.02.02v-20.01s-4.02,0-4.02,0v-3.99s8.01,0,8.01,0v-8.01s3.99,0,3.99,0v4.02s4.02.57,4.02.57v11.43s-4.02,0-4.02,0v20h-4.01s.02,4.01.02,4.01l-8.01-.02.02,4.02-4.02-.02.02,4.02-4.02-.02v4.02s-3.98,0-3.98,0l-.03-11.43,4.03-.57c.06-1.33-.09-2.68,0-4.01-1.33-.08-2.68.07-4,0v-8.01s4.01.01,4.01.01v-8.01s3.99,0,3.99,0v12.01s-4-.01-4-.01c-.06,1.33.09,2.68,0,4.01Z"/>
    <polygon class="cls-1" points="159.98 286.03 159.99 294.04 155.97 294.03 155.99 302.04 147.98 302.02 147.99 306.04 143.97 306.02 143.99 310.04 139.97 310.03 139.99 318.04 131.98 318.04 131.97 306.03 135.99 306.04 135.97 302.02 139.99 302.04 139.97 298.02 143.99 298.04 143.98 294.03 151.99 294.04 151.97 290.03 155.99 290.04 155.98 286.03 159.98 286.03"/>
    <polygon class="cls-1" points="327.96 482.02 327.97 486.01 323.95 486 323.97 490.02 319.95 490 319.97 494.02 315.95 494 315.97 498.02 311.95 498 311.96 502.02 307.97 502.01 307.95 494 311.97 494.02 311.95 490 315.97 490.02 315.95 486 319.97 486.02 319.95 482 327.96 482.02"/>
    <polygon class="cls-1" points="291.96 318.02 291.95 322.04 295.97 322.03 295.97 326.03 287.96 326.02 287.97 330.04 283.96 330.02 283.96 338.03 279.97 338.03 279.96 326.02 283.97 326.04 283.95 322.02 287.97 322.04 287.97 318.02 291.96 318.02"/>
    <polygon class="cls-1" points="255.96 390.02 255.98 402.03 251.96 402.01 251.97 406.03 243.96 406.03 243.96 398.02 247.98 398.03 247.96 394.01 251.98 394.03 251.97 390.01 255.96 390.02"/>
    <polygon class="cls-1" points="115.98 238.04 115.99 246.05 111.98 246.03 111.99 254.05 107.98 254.03 107.98 258.05 103.99 258.04 103.98 250.03 108 250.05 107.98 242.04 112 242.05 111.99 238.03 115.98 238.04"/>
    <polygon class="cls-1" points="99.99 254.03 99.99 262.04 91.98 262.03 91.98 266.05 87.99 266.04 87.98 258.03 92 258.05 91.98 254.03 99.99 254.03"/>
    <path class="cls-1" d="M275.97,350.03c.04-2.66-.04-5.34,0-8h3.99s0,8.01,0,8.01c-1.33.07-2.68-.09-4,0-.04,2.66.03,5.35,0,8.01l-4.02-.02v4.02s-3.99,0-3.99,0v-12.01c2.64-.11,5.35.16,7.99,0Z"/>
    <rect class="cls-1" x="131.99" y="322.03" width="3.99" height="8.01"/>
    <rect class="cls-1" x="91.98" y="434.02" width="8.01" height="3.99"/>
    <rect class="cls-1" x="295.97" y="222.04" width="3.99" height="8.01"/>
    <path class="cls-1" d="M127.98,226.04c.03-2.66-.04-5.34,0-8h3.99s0,8.01,0,8.01c-1.33.05-2.67-.07-4,0-.03,2.66.04,5.34,0,8h-3.99s0-8.01,0-8.01c1.33-.05,2.67.07,4,0Z"/>
    <rect class="cls-1" x="11.99" y="450.02" width="8.01" height="3.99"/>
    <rect class="cls-1" x="3.99" y="558.01" width="8.01" height="3.99"/>
    <rect class="cls-1" x="291.96" y="574" width="8.01" height="3.99"/>
  </g>
  <g>
    <path class="cls-1" d="M370.02-301.96c-2.66-.05-5.35.04-8,0v-12.01s4.01.02,4.01.02l-.02-4.02,4.02.02-.02-4.02,8.01.02-.02-4.02,4.02.02-.02-4.02,4.02.02-.02-4.02,12.01.02-.02-4.02,4.02.02v-8.01s-4,0-4,0l-.58,4.03-11.43-.03v-3.99s4.01,0,4.01,0l-.02-4.02,4.02.02-.02-4.02,4.02.02-.02-4.02,8.01.02v-4.02s3.99,0,3.99,0v4.02s4,0,4,0v-4.01h16v4s-4.01,0-4.01,0l.02,4.02h-8.01s0,3.99,0,3.99h8.01s0,4,0,4h-4.02s.02,4.01.02,4.01h-8.01s.01-4.02.01-4.02h-8.01s0,8.01,0,8.01h4.02s0,3.99,0,3.99h-4.02s.02,4.01.02,4.01l-16.01-.02.02,4.02-4.02-.02v8.01s-8-.01-8-.01l.02,4.02-4.02-.02.02,8.01h-4.02c-.06,1.32.08,2.66,0,3.99,1.33.03,2.67-.04,4,0l.02,11.43-4.03.58v3.99s8.01,0,8.01,0v-12.01s4,.02,4,.02l-.02-4.02,4.02.02-.02-4.02,8.01.02-.02-4.02,4.02.02v-8.01s8,.01,8,.01l-.02-4.02,4.02.02-.02-4.02,4.02.02-.02-4.02h8.01s0,8.01,0,8.01h3.99s0-4.01,0-4.01h3.99s0,8.01,0,8.01h-8.01s0,8,0,8h3.99s0-4.01,0-4.01l12.01.02v-4.02s8,.02,8,.02l-.02-4.02,4.02.02-.02-4.02,4.02.02-.02-4.02,4.02.02v-4.02s3.99,0,3.99,0v4.02s4,0,4,0v-8.01s8.01.01,8.01.01v-4.02s8,.02,8,.02v-4.02s12,.02,12,.02v-4.02s12,0,12,0l-.02,4.02,4.02-.02v12.01s8,0,8,0v-4.02s3.99,0,3.99,0v4.02s4.01-.02,4.01-.02l-.02,4.02h12.01s0-4.02,0-4.02h3.99s0,4.02,0,4.02h8.01s-.01,8-.01,8l4.02-.02-.02,4.02,12.01-.02-.02,4.02,4.02-.02v8.01s-4.02,0-4.02,0v3.99s8.01,0,8.01,0v4.02s8-.01,8-.01v8.01s7.99,0,7.99,0v16h-4.01s.02,4.01.02,4.01l-4.02-.02.02,4.02-4.02-.02.02,4.02-4.02-.02.02,4.02-4.02-.02.02,4.02-8.01-.02.02,4.02-4.02-.02.02,4.02-8.01-.02v4.02s-8-.02-8-.02v4.02s-8,0-8,0v-4.02s-3.99,0-3.99,0v4.02s-8.01-.01-8.01-.01v8.01s-3.99,0-3.99,0v-4.02s-4,0-4,0v4.02s-4,0-4,0v-8h-20v4.01s-12-.02-12-.02v4.02s-8-.02-8-.02l.02,4.02-4.02-.02.02,4.02-4.02-.02.02,4.02h-8.01s.01-4.02.01-4.02c-1.33-.03-2.67.04-4,0,0,1.33.02,2.67,0,4h-8.01s0-4,0-4c2.66.03,5.35-.07,8,0,0-1.33.02-2.67,0-4h-16.01s.01-8,.01-8l-7.43-.02-.57,4.03-4.02-.02.02,4.02-4.02-.02.02,4.02h-12.01s0-12.01,0-12.01l4.03-.57-.03-7.43h-3.99s0,4.01,0,4.01l-4.02-.02.02,4.02-4.02-.02.02,4.02-4.02-.02.02,4.02-4.02-.02.02,4.02-4.02-.02.02,4.02-4.02-.02.02,4.02-12.01-.02v4.02c-1.31.06-2.67-.09-3.99,0,0,2.66,0,5.34,0,8h-8.01s0-4,0-4h4.02s-.02-4.01-.02-4.01c1.33-.06,2.68.09,4.01,0,0-2.66.01-5.34,0-8h-3.99s0,4.01,0,4.01l-4.02-.02.02,4.02-8.01-.02.02,4.02-4.02-.02v4.02s-3.99,0-3.99,0v-4.02s-4,0-4,0v4.02s-4.01-.02-4.01-.02l.02,12.01-4.02-.02.02,4.02h-4.02s0,3.99,0,3.99h4.02s-.02,4.01-.02,4.01l4.02-.02v4.02s3.99,0,3.99,0v-4.02s12.01,0,12.01,0v12.01s-4.01-.01-4.01-.01c-.02,2.66.05,5.34,0,8.01-1.33.07-2.68-.07-4,0v8.01s4,0,4,0c.05-2.66-.04-5.34,0-8,1.33-.07,2.68.07,4.01,0v-4.02s8,.01,8,.01v-8.01s4,0,4,0v-3.99s-4.02,0-4.02,0v-3.99s4.02,0,4.02,0l-.02-8.01h4.02s0-3.99,0-3.99h-4.02s0-8.01,0-8.01h8.01s0,8.01,0,8.01h3.99s0-4.01,0-4.01l4.02.02-.02-4.02,4.02.02-.02-4.02h8.01s0-7.99,0-7.99h3.99s0,8.01,0,8.01h4.02c-.12,2.64.15,5.35,0,7.99-1.33-.08-2.68.07-4,0v-4.02s-3.99,0-3.99,0v8.01s8,0,8,0c.07-1.32-.09-2.68,0-4,1.33.08,2.68-.07,4.01,0v4.02s8,0,8,0v3.99s-4.01,0-4.01,0v3.99s4.02,0,4.02,0v4.02s3.99,0,3.99,0v-4.02s12.01.02,12.01.02l.57-4.03h7.43s-.01,4.03-.01,4.03c4.78.8,14.64-2.55,15.97,3.53.3,1.37-.04,3.03.04,4.47h-8.01s.01,12,.01,12l-4.02-.02.02,4.02-4.02-.02.02,8.01h-4.02s0,3.99,0,3.99h4.02s0,4,0,4h-8.01s.01,8.01.01,8.01l-4.02-.02.02,4.02-4.02-.02.02,4.02-4.02-.02v8.01s-3.99,0-3.99,0v-16h-4.01s-.01-11.42-.01-11.42l4.03-.58v-3.99s-8.01,0-8.01,0v-3.99s4.01,0,4.01,0v-8.01s3.49,0,3.49,0l.51,8.01h3.99s0-12.01,0-12.01h-12.01s.01,8.01.01,8.01l-4.02-.02.02,4.02-4.02-.02.02,4.02-4.02-.02.02,4.02h-8.01s.01,8,.01,8h-4.01s0,19.99,0,19.99h-4s0-4.01,0-4.01h-8.01s.01-12,.01-12h-4.02c-.03-1.32.04-2.66,0-3.99,2.66-.06,5.35.06,8,0v-3.99s-4.01,0-4.01,0v-4.02s-3.99,0-3.99,0c.03,2.66-.07,5.35,0,8-1.33.03-2.68-.04-4.01,0l.02,4.02-4.02-.02.02,8.01-4.02-.02.02,4.02c-1.33.03-2.67-.04-4.01,0-.13-2.18.55-15.85-.57-16.02l-7.43.02v3.99s4.01,0,4.01,0v3.99s-4.02,0-4.02,0l.02,4.02-4.02-.02c-.06,1.33.09,2.68,0,4.01-3.99.05-8.01-.04-12,0v12.01s8.01,0,8.01,0v-8.01s4,.01,4,.01c.06-1.33-.09-2.68,0-4.01,3.99-.05,8.01.1,12,0,.08,1.33-.07,2.68,0,4l7.43.02.57-4.03h8.01s-.01,12.01-.01,12.01h4.02s0,3.99,0,3.99h-4.02s0,8.01,0,8.01l4.02-.02-.02,4.02h4.02s0,3.99,0,3.99h-4.02s.02,12.01.02,12.01h-4.02s0,3.99,0,3.99h4.02s0,4,0,4h-4.02s0,4,0,4h4.02s-.02,4.01-.02,4.01h4.02s0,3.99,0,3.99h-4.02s.02,4.01.02,4.01l-4.02-.02.02,4.02h-8.01s0,8,0,8l4.02-.02v4.02s3.99,0,3.99,0v-4.02s4.01.02,4.01.02l-.02-4.02,8.01.02-.02-4.02,4.02.02v-8.01s8,.01,8,.01l-.02-4.02,4.02.02-.02-4.02c1.33-.01,2.67,0,4.01,0,.05-2.66-.04-5.35,0-8.01l4.02.02-.02-4.02h8.01s-.01-8-.01-8l4.02.02-.02-4.02,4.02.02-.02-8.01,4.02.02-.02-4.02h8.01s0-3.99,0-3.99h-4.02s0-4,0-4h12.01s0-4,0-4h-4.02s0-4,0-4h4.02s-.02-4.01-.02-4.01l4.02.02c0-2.66-.02-5.34,0-8.01-1.33,0-2.67.02-4,0v-8.01s4,0,4,0c.01,2.66.01,5.34,0,8,1.33,0,2.67.02,4,0v-8.01s4,.02,4,.02l-.02-4.02,4.02.02-.02-16.01,4.02.02-.02-4.02,4.02.02-.02-4.02h8.01s0-7.99,0-7.99h3.99s0,4.01,0,4.01l8.01-.02-.02,4.02,4.02-.02-.02,4.02,8.01-.02v4.02s3.99,0,3.99,0v-8.01s4,0,4,0v16h8.01s-.02,4.01-.02,4.01l4.02-.02-.02,4.02,4.02-.02-.02,4.02h4.02s0,3.99,0,3.99h-4.02s0,4.01,0,4.01h-3.99s0-4.02,0-4.02l-4.02.02v-4.02s-3.99,0-3.99,0v8.01s4-.02,4-.02l-.02,4.02,8.01-.02v4.02s3.99,0,3.99,0v-4.02s8.01,0,8.01,0v8.01s-8.01-.01-8.01-.01v8h20v4s-4.01,0-4.01,0l.02,8.01h-4.02s0,3.99,0,3.99h4.02s0,4,0,4h-32v4.01s-8,0-8,0v-8.01s-3.99,0-3.99,0v4.02s-12.01-.02-12.01-.02v4.02s-8-.02-8-.02v4.02s-12-.02-12-.02v4.02s-3.99,0-3.99,0v-4.02s-12.01,0-12.01,0v4.02s-8-.02-8-.02l.02,4.02-4.02-.02.02,4.02h-12.01s.01-4.02.01-4.02h-8.01s.01,8.01.01,8.01l-4.02-.02.02,4.02h-8.01s.01-4.02.01-4.02c-1.33-.01-2.67,0-4,0-.05,2.66.04,5.35,0,8.01h-4.02s0,3.99,0,3.99h8.01s0,4,0,4h-4.02s0,4,0,4h8.01s-.01,12.01-.01,12.01h8.01s-.01-8.01-.01-8.01l4.02.02-.02-4.02,8.01.02v-4.02s3.99,0,3.99,0v4.02s4,0,4,0v-4.02s4.01.02,4.01.02v-4.02s3.99,0,3.99,0v4.02s4,0,4,0v-4.02s12.01.02,12.01.02v-4.02s3.99,0,3.99,0v12.01s4.02.57,4.02.57v7.43s-4.03,0-4.03,0v3.99s8.01.01,8.01.01v-4.02s3.99,0,3.99,0v8.01s4,0,4,0v-4.02s4,0,4,0v8h20v4h16v8.01s-4.01-.02-4.01-.02l.02,4.02-4.02-.02.02,4.02-4.02-.02.02,4.02-4.02-.02.02,4.02-4.02-.02.02,4.02-4.02-.02.02,4.02h-8.01s0,3.99,0,3.99h4.02s0,4,0,4h-4.02s.02,4.01.02,4.01l-4.02-.02.02,4.02-4.02-.02.02,4.02-4.02-.02.02,4.02h-4.02s0,3.98,0,3.98h8.01s-.02-4-.02-4l4.02.02-.02-4.02,4.02.02-.02-4.02,4.02.02-.02-4.02,4.02.02-.02-4.02,4.02.02v-4.02s3.99,0,3.99,0v4.02s4,0,4,0V2h4.01s-.02-4.01-.02-4.01l4.02.02-.02-4.02,4.02.02-.02-4.02,4.02.02-.02-4.02,8.01.02-.02-4.02,4.02.02v-4.02s3.99,0,3.99,0v4.02s8.01,0,8.01,0v-8.01s3.99,0,3.99,0v4.02s7.43.01,7.43.01l.57-4.03h8.01l.57,4.03h7.43s0-4.03,0-4.03h3.99s0,8.01,0,8.01h8.01s0,3.99,0,3.99h-4.02s.02,4.01.02,4.01l-4.02-.02V-1.99s-8-.01-8-.01V2.01s-8-.02-8-.02v4.02s-12-.02-12-.02v4.02s-3.99,0-3.99,0v-4.02s-8.01,0-8.01,0v12s-27.99,0-27.99,0v4h16v4.01s4,0,4,0v-4.02s8.01,0,8.01,0v4.01s15.99,0,15.99,0v4.01s8,0,8,0v-8.01s3.99,0,3.99,0v4.02s4,0,4,0v-8.01s4,0,4,0v4.02s4,0,4,0v-8.01s7.43-.02,7.43-.02l.57,4.03,4.02-.02v4.02s3.99,0,3.99,0v-4.02s12.01,0,12.01,0l-.02,4.02,4.02-.02-.02,4.02h8.01s0,19.99,0,19.99h4s0-12,0-12h4.02c.06-1.31-.09-2.67,0-3.99,2.64.16,5.36-.11,8.01,0l-.02-4.02h4.02s0-3.99,0-3.99h-8.01s.02,4,.02,4l-4.02-.02c-.06,1.33.09,2.68,0,4.01-1.33-.08-2.68.07-4,0v-8.01s-4,0-4,0v-3.99s8.01,0,8.01,0v-3.99s-4,0-4,0V-9.99h-4.01s0-4,0-4h4.02s-.01-12.01-.01-12.01h12.01s-.02-4-.02-4l4.02.02-.02-4.02,8.01.02-.02-4.02,4.02.02v-8.01s-4.02,0-4.02,0v-3.99s4.02,0,4.02,0v-3.99s-4.02,0-4.02,0v-3.99s4.02,0,4.02,0l-.02-4.02,4.02.02-.02-4.02,4.02.02v-11.43s-4.02-.58-4.02-.58v-3.99s4.02,0,4.02,0v-3.99s-4.02,0-4.02,0v-3.99s4.02,0,4.02,0v-3.99s-8.01,0-8.01,0v-3.99s8.01,0,8.01,0v-12.01s4,.02,4,.02v-4.02s3.99,0,3.99,0v4.02s4.01-.02,4.01-.02v8.01s8-.01,8-.01v4.02s8,0,8,0c.04-2.66-.07-5.35,0-8-1.33-.08-2.68.07-4.01,0l.02-4.02h-4.02s0-3.99,0-3.99h12.01s0,3.99,0,3.99h-4.02c-.03,1.33.04,2.67,0,4,1.33.08,2.68-.07,4.01,0l-.02,4.02,4.02-.02-.02,4.02,4.02-.02-.02,4.02h8.01s0,3.99,0,3.99h-4.02s.02,4.01.02,4.01l-4.02-.02v4.02s-3.99,0-3.99,0v-4.02s-4,0-4,0v4.02s-4.01,0-4.01,0v4h16.01v4s-4.01,0-4.01,0l.02,4.02-4.02-.02c-.06,1.33.08,2.68,0,4.01-2.66.04-5.34-.04-8,0v3.99s8.01,0,8.01,0c.06-1.33-.08-2.68,0-4,2.66-.04,5.35.03,8.01,0v-4.02s8,.02,8,.02v-4.02s3.99,0,3.99,0v8.01s-8-.01-8-.01v4.02s-8-.02-8-.02l.02,4.02-4.02-.02.02,4.02-8.01-.02.02,4.02h-4.02s0,3.99,0,3.99h8.01s-.01-4-.01-4l8.01.02v-4.02s8,.02,8,.02v-4.02s8,.02,8,.02l-.02-4.02,4.02.02-.02-4.02,4.02.02-.02-4.02,4.02.02-.02-4.02,4.02.02-.02-4.02,4.02.02-.02-4.02,4.02.02-.02-4.02,8.01.02-.02-4.02,4.02.02-.02-4.02h8.01s0,8.01,0,8.01h3.99s0-4.01,0-4.01l8.01.02-.02-4.02,4.02.02-.02-4.02,4.02.02-.02-4.02,4.02.02v-8.01s3.99,0,3.99,0v4.02s4.01-.02,4.01-.02v8.01s7.99,0,7.99,0v3.99s-4.01,0-4.01,0v8h16.01v8.01s4.01-.02,4.01-.02l-.02,4.02,4.02-.02-.02,8.01,4.02-.02-.02,4.02,4.02-.02v8.01s-8.01-.01-8.01-.01l.02,4.02h-4.02s0,3.99,0,3.99h12.01s-.02,4.01-.02,4.01h4.02s0,3.99,0,3.99h-4.02s.02,12.01.02,12.01l-4.02-.02.02,4.02-4.02-.02.02,4.02-4.02-.02.02,4.02-4.02-.02.02,4.02-4.02-.02.02,4.02-4.02-.02.02,4.02-4.02-.02.02,4.02-4.02-.02.02,4.02h-4.02s0,3.98,0,3.98h8.01s-.02-4-.02-4l4.02.02-.02-4.02,4.02.02-.02-4.02,4.02.02-.02-4.02,8.01.02v-4.02s3.99,0,3.99,0V-1.99s4.01,0,4.01,0v3.99s-4.02,0-4.02,0l.02,4.02-4.02-.02.02,4.02-4.02-.02.02,4.02-4.02-.02.02,4.02-4.02-.02.02,4.02-4.02-.02.02,4.02-4.02-.02.02,4.02-8.01-.02.02,4.02-4.02-.02.02,4.02-4.02-.02.02,4.02-4.02-.02.02,4.02-4.02-.02.02,4.02-4.02-.02.02,4.02-8.01-.02.02,4.02-4.02-.02.02,4.02-4.02-.02.02,4.02-8.01-.02v4.02s-8-.01-8-.01v8.01s-8-.01-8-.01v4.02s-3.99,0-3.99,0v-4.02s-4,0-4,0v4.02s-8.01-.02-8.01-.02l.02,4.02h-4.02s0,3.99,0,3.99h8.01s-.01-4-.01-4h8.01s0,4,0,4h-4.02s0,4,0,4h8.01s-.02-4-.02-4l4.02.02-.02-4.02,4.02.02-.02-4.02,16.01.02-.02-4.02,4.02.02-.02-4.02,8.01.02-.02-4.02,4.02.02-.02-4.02,8.01.02-.02-4.02,4.02.02-.02-4.02,8.01.02-.02-4.02,4.02.02-.02-4.02,4.02.02-.02-4.02,4.02.02-.02-4.02,4.02.02-.02-4.02,4.02.02-.02-4.02,4.02.02-.02-4.02,8.01.02-.02-4.02,4.02.02-.02-4.02,4.02.02-.02-4.02h8.01s0,8.01,0,8.01h3.99s0-4.01,0-4.01h3.99s0,8.01,0,8.01h-12.01s.01,12,.01,12h-12s0,19.99,0,19.99h4.01s-.02,4.01-.02,4.01h7.43s.58-4.02.58-4.02h3.99s0,4.02,0,4.02h3.99s0-4.02,0-4.02h8.01s-.01,8.01-.01,8.01l4.02-.02-.02,4.02,4.02-.02v8.01s-4.02,0-4.02,0v3.99s4.01,0,4.01,0v16h-4.01s.02,8,.02,8h-4.02s.02,8,.02,8h-4.02s.02,8,.02,8l-4.02-.02.02,4.02-4.02-.02.02,4.02-4.02-.02.02,4.02-4.02-.02.02,4.02-4.02-.02v8.01s-8-.01-8-.01v8.01s-8-.01-8-.01v8.01s-4-.02-4-.02l.02,4.02-4.02-.02.02,4.02h-8.01s.01,8,.01,8l-4.02-.02.02,4.02-4.02-.02.02,4.02-8.01-.02.02,4.02-4.02-.02v8.01s-8-.01-8-.01l.02,4.02-4.02-.02.02,4.02-4.02-.02.02,4.02-4.02-.02.02,4.02-4.02-.02.02,4.02-4.02-.02.02,4.02-4.02-.02.02,4.02-4.02-.02.02,4.02-4.02-.02.02,4.02-4.02-.02.02,4.02-4.02-.02.02,4.02-4.02-.02.02,4.02-4.02-.02.02,4.02-4.02-.02.02,4.02-4.02-.02.02,4.02-4.02-.02.02,4.02-4.02-.02.02,4.02-4.02-.02.02,4.02-4.02-.02.02,4.02-4.02-.02.02,4.02-4.02-.02.02,4.02-4.02-.02.02,4.02-4.02-.02.02,8.01-4.02-.02.02,4.02-4.02-.02.02,4.02-4.02-.02.02,4.02-4.02-.02.02,4.02-4.02-.02.02,4.02-4.02-.02.02,8.01-4.02-.02.02,4.02-4.02-.02.02,8.01-4.02-.02.02,4.02-4.02-.02.02,4.02-4.02-.02.02,4.02-4.02-.02v8.01c-4.07.58-9.36-2.45-7.99,3.99h-20c.32-4.19.47-4.39-4.01-3.99l.02-4.02-4.02.02.02-4.02-4.02.02.02-4.02-4.02.02.02-4.02-4.02.02.02-8.01-4.02.02.02-4.02-4.02.02.02-4.02-4.02.02.02-8.01-4.02.02.02-4.02-4.02.02.02-4.02-4.02.02.02-4.02-4.02.02.02-4.02-4.02.02.02-4.02-4.02.02v-8.01s-8,.01-8,.01v-8.01s-4,.02-4,.02l.02-4.02-4.02.02.02-4.02-4.02.02.02-4.02-4.02.02.02-4.02-4.02.02.02-4.02-4.02.02.02-4.02-4.02.02.02-4.02-4.02.02.02-4.02-4.02.02.02-4.02-4.02.02.02-4.02-4.02.02.02-4.02-4.02.02.02-4.02-4.02.02.02-4.02-4.02.02.02-4.02-4.02.02.02-4.02-8.01.02.02-4.02-4.02.02.02-4.02-4.02.02.02-4.02-4.02.02.02-4.02-4.02.02.02-4.02-4.02.02.02-4.02-4.02.02.02-4.02-4.02.02.02-4.02-4.02.02.02-4.02-8.01.02.02-4.02-4.02.02.02-4.02-4.02.02.02-4.02-4.02.02.02-4.02-4.02.02.02-4.02-4.02.02.02-4.02-4.02.02.02-4.02-4.02.02.02-4.02-8.01.02.02-4.02-4.02.02.02-4.02-4.02.02.02-4.02-4.02.02.02-4.02-8.01.02.02-4.02-4.02.02.02-4.02-4.02.02.02-4.02-4.02.02.02-4.02-4.02.02.02-4.02-4.02.02.02-4.02-4.02.02.02-4.02-4.02.02.02-4.02-4.02.02.02-4.02-8.01.02.02-4.02-4.02.02.02-8.01-4.02.02.02-4.02-4.02.02.02-4.02-4.02.02.02-8.01-4.02.02.02-4.02-4.02.02.02-4.02-4.02.02.02-4.02-4.02.02.02-4.02-4.02.02.02-4.02-4.02.02.02-4.02-4.02.02.02-4.02-4.02.02.02-4.02-4.02.02.02-4.02-4.02.02.02-8.01-4.02.02.02-4.02-4.02.02.02-4.02-4.02.02.02-12.01-4.02.02.02-4.02-4.02.02.02-8.01h-4.02s.02-8,.02-8h-4.02s.02-8,.02-8h-4.02s.02-8,.02-8h-4.02s.02-8,.02-8l-4.02.02.02-4.02-4.02.02.02-8.01h-4.01s0-19.99,0-19.99h-4v-20h4.01s0-4,0-4h-4.01v-16h-4v-32h-8v-4c4.19.32,4.39.47,3.99-4.01l4.02.02-.02-8.01h4.01s0-23.99,0-23.99h4s0,4.01,0,4.01h8.01s0-4,0-4h-4.02s0-4,0-4h8.01s-.02-4.01-.02-4.01l4.02.02-.02-4.02,4.02.02-.02-4.02h12.01s-.01-11.99-.01-11.99h8.01s-.01-8-.01-8h4.02s0-3.99,0-3.99h-8.01s.02,4,.02,4l-4.02-.02v4.02s-3.98,0-3.98,0l-.03-7.43,4.03-.57-.02-4.02,4.02.02-.02-4.02h4.02s0-3.99,0-3.99h-4.02s0-4,0-4h4.02c.13-7.98-.2-16.02,0-24,1.33-.08,2.68.07,4,0v-8.01s-4,0-4,0c-.06,2.66.06,5.35,0,8-2.64.16-5.35-.11-8,0v-20h4.01s-.02-12-.02-12h4.02s-.02-8-.02-8l4.02.02-.02-4.02,4.02.02-.02-8.01,4.02.02-.02-4.02,8.01.02-.02-4.02,4.02.02-.02-4.02h8.01s.57,4.03.57,4.03h7.43s0-4.02,0-4.02h16v-4.01s4,0,4,0v16h-4v16h8s-.01-12-.01-12h4.02s0-3.99,0-3.99h-4.02s0-8.01,0-8.01l4.02.02-.02-4.02h8.01s0,4,0,4h-4.02s.01,12.01.01,12.01h3.99s0-4.01,0-4.01h12.01s0,12.01,0,12.01h-4.02s0,3.99,0,3.99h4.02s0,4,0,4h-4.02c-.06,1.32.09,2.68,0,4-2.66.07-5.35-.05-8.01,0l.02,4.02-4.02-.02.02,4.02-4.02-.02.02,4.02-4.02-.02c-.06,1.33.09,2.68,0,4.01-3.99.1-8.02-.07-12,0v8.01s-4-.02-4-.02l.02,4.02h-8.01s.01,8,.01,8l-4.02-.02.02,4.02-4.02-.02.02,4.02-4.02-.02.02,4.02-8.01-.02.02,4.02-4.02-.02.02,4.02h-4.02s0,3.98,0,3.98h8.01s-.02-4-.02-4l4.02.02v-4.02s3.98,0,3.98,0v8.01s-3.99,0-3.99,0v16h-8s0,8,0,8h4.02s-.02,12-.02,12h4.02s0,12,0,12h-4.02s0,12,0,12h4.02s-.01,12-.01,12h8.01s-.02,4-.02,4l4.02-.02-.02,8.01h4.01s0,23.99,0,23.99h8s0-8,0-8h-4.02s.01-8,.01-8h3.99s0,4.01,0,4.01h4v-36l-4.02-.58v-7.43s4.03,0,4.03,0v-4h-20.01v-4h16v-16h-8s0-12,0-12h4.02s0-3.99,0-3.99h-4.02s0-4,0-4h4.02s-.02-8.01-.02-8.01h4.02s-.02-12-.02-12l4.02.02-.02-4.02,4.02.02v-12.01s-4.02,0-4.02,0v-3.99s4.02,0,4.02,0l-.02-4.02,4.02.02-.02-4.02,4.02.02c.06-1.33-.09-2.68,0-4.01,2.66-.07,5.35.05,8.01,0l-.02-4.02,4.02.02-.02-4.02,4.02.02-.02-4.02,4.02.02c.06-1.33-.09-2.68,0-4.01,2.65-.07,5.35-.05,8,0-.08,1.33.07,2.68,0,4.01l-4.02-.02.02,4.02h-4.02s0,3.98,0,3.98h8.01s-.02-4-.02-4l4.02.02v-8.01c-1.33-.03-2.67.03-4.01,0,.08-1.33-.07-2.68,0-4.01h4.02s-.01-8-.01-8h8.01c.06-1.32-.08-2.67,0-3.99ZM330.02-285.96c2.66-.05,5.35.04,8.01,0v-4.02s8,.01,8,.01v-12.01s-4,0-4,0v4.02s-4.01-.02-4.01-.02l.02,4.02-4.02-.02.02,4.02-4.02-.02c-.06,1.33.09,2.68,0,4.01-2.66.05-5.35-.04-8.01,0v4.02s-8,0-8,0v3.99s12.01.01,12.01.01l-.02-4.02,4.02.02c.06-1.33-.09-2.68,0-4.01ZM398.02-181.97h-8.01v3.99h8.01v-3.99ZM426.01-177.97h-8.01s0,8,0,8h3.99s0-4.01,0-4.01h4.02s0-3.99,0-3.99ZM282.03-169.98h-8.01s0,4,0,4h4.02s0,4.01,0,4.01h3.99s0-8.01,0-8.01ZM338.02-165.98h-3.99v8.01h3.99v-8.01ZM234.03-161.98h-3.99v12.01h3.99s0-4.01,0-4.01h4.02s0-3.99,0-3.99h-4.02s0-4.01,0-4.01ZM474-133.98h-16v4s4.01,0,4.01,0v4.02s3.99,0,3.99,0v-4.02s4,0,4,0l.51,8.01h3.49s0-12,0-12ZM350.02-109.98h-8.01v3.99h8.01v-3.99ZM354.02-101.99h-8.01s0,4,0,4h4.02s0,4.01,0,4.01h3.99s0-8.01,0-8.01ZM765.96-81.99h-3.99s0,4.01,0,4.01h-8.01s0,3.99,0,3.99h12.01s0-8,0-8ZM757.97-57.98h-8.01s.02,4,.02,4h-4.02s0,3.99,0,3.99h8.01s-.02-4-.02-4h4.02s0-3.99,0-3.99ZM454-30h-3.99s0,4.02,0,4.02l-4.02-.02v8.01s-11.99,0-11.99,0v3.99s4.01,0,4.01,0V-1.99s8,0,8,0v-8.01s4,.02,4,.02l-.02-4.02h4.02s0-3.99,0-3.99h-4.02s0-4,0-4h8.01s0-4,0-4h-4.02s0-4.01,0-4.01ZM629.99-17.99h-8.01v3.99h8.01v-3.99ZM621.99-9.99V10h4s0-4.01,0-4.01h4.02s0-3.99,0-3.99l-4.03-.58v-7.43s4.03,0,4.03,0v-3.99s-8.01,0-8.01,0ZM478.01,6.01h-12.01v3.99h12.01v-3.99ZM462.01,42h-8.01v3.99h8.01v-3.99ZM813.96,61.99h-3.99v8.01h3.99v-8.01Z"/>
    <rect class="cls-1" x="545.99" y="18.01" width="8.01" height="3.99"/>
    <rect class="cls-1" x="833.95" y="34" width="8.01" height="3.99"/>
  </g>
  <g>
    <path class="cls-1" d="M370.02,778.04c-2.66-.05-5.35.04-8,0v-12.01s4.01.02,4.01.02l-.02-4.02,4.02.02-.02-4.02,8.01.02-.02-4.02,4.02.02-.02-4.02,4.02.02-.02-4.02,12.01.02-.02-4.02,4.02.02v-8.01s-4,0-4,0l-.58,4.03-11.43-.03v-3.99s4.01,0,4.01,0l-.02-4.02,4.02.02-.02-4.02,4.02.02-.02-4.02,8.01.02v-4.02s3.99,0,3.99,0v4.02s4,0,4,0v-4.01h16v4s-4.01,0-4.01,0l.02,4.02h-8.01s0,3.99,0,3.99h8.01s0,4,0,4h-4.02s.02,4.01.02,4.01h-8.01s.01-4.02.01-4.02h-8.01s0,8.01,0,8.01h4.02s0,3.99,0,3.99h-4.02s.02,4.01.02,4.01l-16.01-.02.02,4.02-4.02-.02v8.01s-8-.01-8-.01l.02,4.02-4.02-.02.02,8.01h-4.02c-.06,1.32.08,2.66,0,3.99,1.33.03,2.67-.04,4,0l.02,11.43-4.03.58v3.99s8.01,0,8.01,0v-12.01s4,.02,4,.02l-.02-4.02,4.02.02-.02-4.02,8.01.02-.02-4.02,4.02.02v-8.01s8,.01,8,.01l-.02-4.02,4.02.02-.02-4.02,4.02.02-.02-4.02h8.01s0,8.01,0,8.01h3.99s0-4.01,0-4.01h3.99s0,8.01,0,8.01h-8.01s0,8,0,8h3.99s0-4.01,0-4.01l12.01.02v-4.02s8,.02,8,.02l-.02-4.02,4.02.02-.02-4.02,4.02.02-.02-4.02,4.02.02v-4.02s3.99,0,3.99,0v4.02s4,0,4,0v-8.01s8.01.01,8.01.01v-4.02s8,.02,8,.02v-4.02s12,.02,12,.02v-4.02s12,0,12,0l-.02,4.02,4.02-.02v12.01s8,0,8,0v-4.02s3.99,0,3.99,0v4.02s4.01-.02,4.01-.02l-.02,4.02h12.01s0-4.02,0-4.02h3.99s0,4.02,0,4.02h8.01s-.01,8-.01,8l4.02-.02-.02,4.02,12.01-.02-.02,4.02,4.02-.02v8.01s-4.02,0-4.02,0v3.99s8.01,0,8.01,0v4.02s8-.01,8-.01v8.01s7.99,0,7.99,0v16h-4.01s.02,4.01.02,4.01l-4.02-.02.02,4.02-4.02-.02.02,4.02-4.02-.02.02,4.02-4.02-.02.02,4.02-8.01-.02.02,4.02-4.02-.02.02,4.02-8.01-.02v4.02s-8-.02-8-.02v4.02s-8,0-8,0v-4.02s-3.99,0-3.99,0v4.02s-8.01-.01-8.01-.01v8.01s-3.99,0-3.99,0v-4.02s-4,0-4,0v4.02s-4,0-4,0v-8h-20v4.01s-12-.02-12-.02v4.02s-8-.02-8-.02l.02,4.02-4.02-.02.02,4.02-4.02-.02.02,4.02h-8.01s.01-4.02.01-4.02c-1.33-.03-2.67.04-4,0,0,1.33.02,2.67,0,4h-8.01s0-4,0-4c2.66.03,5.35-.07,8,0,0-1.33.02-2.67,0-4h-16.01s.01-8,.01-8l-7.43-.02-.57,4.03-4.02-.02.02,4.02-4.02-.02.02,4.02h-12.01s0-12.01,0-12.01l4.03-.57-.03-7.43h-3.99s0,4.01,0,4.01l-4.02-.02.02,4.02-4.02-.02.02,4.02-4.02-.02.02,4.02-4.02-.02.02,4.02-4.02-.02.02,4.02-4.02-.02.02,4.02-12.01-.02v4.02c-1.31.06-2.67-.09-3.99,0,0,2.66,0,5.34,0,8h-8.01s0-4,0-4h4.02s-.02-4.01-.02-4.01c1.33-.06,2.68.09,4.01,0,0-2.66.01-5.34,0-8h-3.99s0,4.01,0,4.01l-4.02-.02.02,4.02-8.01-.02.02,4.02-4.02-.02v4.02s-3.99,0-3.99,0v-4.02s-4,0-4,0v4.02s-4.01-.02-4.01-.02l.02,12.01-4.02-.02.02,4.02h-4.02s0,3.99,0,3.99h4.02s-.02,4.01-.02,4.01l4.02-.02v4.02s3.99,0,3.99,0v-4.02s12.01,0,12.01,0v12.01s-4.01-.01-4.01-.01c-.02,2.66.05,5.34,0,8.01-1.33.07-2.68-.07-4,0v8.01s4,0,4,0c.05-2.66-.04-5.34,0-8,1.33-.07,2.68.07,4.01,0v-4.02s8,.01,8,.01v-8.01s4,0,4,0v-3.99s-4.02,0-4.02,0v-3.99s4.02,0,4.02,0l-.02-8.01h4.02s0-3.99,0-3.99h-4.02s0-8.01,0-8.01h8.01s0,8.01,0,8.01h3.99s0-4.01,0-4.01l4.02.02-.02-4.02,4.02.02-.02-4.02h8.01s0-7.99,0-7.99h3.99s0,8.01,0,8.01h4.02c-.12,2.64.15,5.35,0,7.99-1.33-.08-2.68.07-4,0v-4.02s-3.99,0-3.99,0v8.01s8,0,8,0c.07-1.32-.09-2.68,0-4,1.33.08,2.68-.07,4.01,0v4.02s8,0,8,0v3.99s-4.01,0-4.01,0v3.99s4.02,0,4.02,0v4.02s3.99,0,3.99,0v-4.02s12.01.02,12.01.02l.57-4.03h7.43s-.01,4.03-.01,4.03c4.78.8,14.64-2.55,15.97,3.53.3,1.37-.04,3.03.04,4.47h-8.01s.01,12,.01,12l-4.02-.02.02,4.02-4.02-.02.02,8.01h-4.02s0,3.99,0,3.99h4.02s0,4,0,4h-8.01s.01,8.01.01,8.01l-4.02-.02.02,4.02-4.02-.02.02,4.02-4.02-.02v8.01s-3.99,0-3.99,0v-16h-4.01s-.01-11.42-.01-11.42l4.03-.58v-3.99s-8.01,0-8.01,0v-3.99s4.01,0,4.01,0v-8.01s3.49,0,3.49,0l.51,8.01h3.99s0-12.01,0-12.01h-12.01s.01,8.01.01,8.01l-4.02-.02.02,4.02-4.02-.02.02,4.02-4.02-.02.02,4.02h-8.01s.01,8,.01,8h-4.01s0,19.99,0,19.99h-4s0-4.01,0-4.01h-8.01s.01-12,.01-12h-4.02c-.03-1.32.04-2.66,0-3.99,2.66-.06,5.35.06,8,0v-3.99s-4.01,0-4.01,0v-4.02s-3.99,0-3.99,0c.03,2.66-.07,5.35,0,8-1.33.03-2.68-.04-4.01,0l.02,4.02-4.02-.02.02,8.01-4.02-.02.02,4.02c-1.33.03-2.67-.04-4.01,0-.13-2.18.55-15.85-.57-16.02l-7.43.02v3.99s4.01,0,4.01,0v3.99s-4.02,0-4.02,0l.02,4.02-4.02-.02c-.06,1.33.09,2.68,0,4.01-3.99.05-8.01-.04-12,0v12.01s8.01,0,8.01,0v-8.01s4,.01,4,.01c.06-1.33-.09-2.68,0-4.01,3.99-.05,8.01.1,12,0,.08,1.33-.07,2.68,0,4l7.43.02.57-4.03h8.01s-.01,12.01-.01,12.01h4.02s0,3.99,0,3.99h-4.02s0,8.01,0,8.01l4.02-.02-.02,4.02h4.02s0,3.99,0,3.99h-4.02s.02,12.01.02,12.01h-4.02s0,3.99,0,3.99h4.02s0,4,0,4h-4.02s0,4,0,4h4.02s-.02,4.01-.02,4.01h4.02s0,3.99,0,3.99h-4.02s.02,4.01.02,4.01l-4.02-.02.02,4.02h-8.01s0,8,0,8l4.02-.02v4.02s3.99,0,3.99,0v-4.02s4.01.02,4.01.02l-.02-4.02,8.01.02-.02-4.02,4.02.02v-8.01s8,.01,8,.01l-.02-4.02,4.02.02-.02-4.02c1.33-.01,2.67,0,4.01,0,.05-2.66-.04-5.35,0-8.01l4.02.02-.02-4.02h8.01s-.01-8-.01-8l4.02.02-.02-4.02,4.02.02-.02-8.01,4.02.02-.02-4.02h8.01s0-3.99,0-3.99h-4.02s0-4,0-4h12.01s0-4,0-4h-4.02s0-4,0-4h4.02s-.02-4.01-.02-4.01l4.02.02c0-2.66-.02-5.34,0-8.01-1.33,0-2.67.02-4,0v-8.01s4,0,4,0c.01,2.66.01,5.34,0,8,1.33,0,2.67.02,4,0v-8.01s4,.02,4,.02l-.02-4.02,4.02.02-.02-16.01,4.02.02-.02-4.02,4.02.02-.02-4.02h8.01s0-7.99,0-7.99h3.99s0,4.01,0,4.01l8.01-.02-.02,4.02,4.02-.02-.02,4.02,8.01-.02v4.02s3.99,0,3.99,0v-8.01s4,0,4,0v16h8.01s-.02,4.01-.02,4.01l4.02-.02-.02,4.02,4.02-.02-.02,4.02h4.02s0,3.99,0,3.99h-4.02s0,4.01,0,4.01h-3.99s0-4.02,0-4.02l-4.02.02v-4.02s-3.99,0-3.99,0v8.01s4-.02,4-.02l-.02,4.02,8.01-.02v4.02s3.99,0,3.99,0v-4.02s8.01,0,8.01,0v8.01s-8.01-.01-8.01-.01v8h20v4s-4.01,0-4.01,0l.02,8.01h-4.02s0,3.99,0,3.99h4.02s0,4,0,4h-32v4.01s-8,0-8,0v-8.01s-3.99,0-3.99,0v4.02s-12.01-.02-12.01-.02v4.02s-8-.02-8-.02v4.02s-12-.02-12-.02v4.02s-3.99,0-3.99,0v-4.02s-12.01,0-12.01,0v4.02s-8-.02-8-.02l.02,4.02-4.02-.02.02,4.02h-12.01s.01-4.02.01-4.02h-8.01s.01,8.01.01,8.01l-4.02-.02.02,4.02h-8.01s.01-4.02.01-4.02c-1.33-.01-2.67,0-4,0-.05,2.66.04,5.35,0,8.01h-4.02s0,3.99,0,3.99h8.01s0,4,0,4h-4.02s0,4,0,4h8.01s-.01,12.01-.01,12.01h8.01s-.01-8.01-.01-8.01l4.02.02-.02-4.02,8.01.02v-4.02s3.99,0,3.99,0v4.02s4,0,4,0v-4.02s4.01.02,4.01.02v-4.02s3.99,0,3.99,0v4.02s4,0,4,0v-4.02s12.01.02,12.01.02v-4.02s3.99,0,3.99,0v12.01s4.02.57,4.02.57v7.43s-4.03,0-4.03,0v3.99s8.01.01,8.01.01v-4.02s3.99,0,3.99,0v8.01s4,0,4,0v-4.02s4,0,4,0v8h20v4h16v8.01s-4.01-.02-4.01-.02l.02,4.02-4.02-.02.02,4.02-4.02-.02.02,4.02-4.02-.02.02,4.02-4.02-.02.02,4.02-4.02-.02.02,4.02h-8.01s0,3.99,0,3.99h4.02s0,4,0,4h-4.02s.02,4.01.02,4.01l-4.02-.02.02,4.02-4.02-.02.02,4.02-4.02-.02.02,4.02h-4.02s0,3.98,0,3.98h8.01s-.02-4-.02-4l4.02.02-.02-4.02,4.02.02-.02-4.02,4.02.02-.02-4.02,4.02.02-.02-4.02,4.02.02v-4.02s3.99,0,3.99,0v4.02s4,0,4,0v-16h4.01s-.02-4.01-.02-4.01l4.02.02-.02-4.02,4.02.02-.02-4.02,4.02.02-.02-4.02,8.01.02-.02-4.02,4.02.02v-4.02s3.99,0,3.99,0v4.02s8.01,0,8.01,0v-8.01s3.99,0,3.99,0v4.02s7.43.01,7.43.01l.57-4.03h8.01l.57,4.03h7.43s0-4.03,0-4.03h3.99s0,8.01,0,8.01h8.01s0,3.99,0,3.99h-4.02s.02,4.01.02,4.01l-4.02-.02v8.01s-8-.01-8-.01v4.02s-8-.02-8-.02v4.02s-12-.02-12-.02v4.02s-3.99,0-3.99,0v-4.02s-8.01,0-8.01,0v12s-27.99,0-27.99,0v4h16v4.01s4,0,4,0v-4.02s8.01,0,8.01,0v4.01s15.99,0,15.99,0v4.01s8,0,8,0v-8.01s3.99,0,3.99,0v4.02s4,0,4,0v-8.01s4,0,4,0v4.02s4,0,4,0v-8.01s7.43-.02,7.43-.02l.57,4.03,4.02-.02v4.02s3.99,0,3.99,0v-4.02s12.01,0,12.01,0l-.02,4.02,4.02-.02-.02,4.02h8.01s0,19.99,0,19.99h4s0-12,0-12h4.02c.06-1.31-.09-2.67,0-3.99,2.64.16,5.36-.11,8.01,0l-.02-4.02h4.02s0-3.99,0-3.99h-8.01s.02,4,.02,4l-4.02-.02c-.06,1.33.09,2.68,0,4.01-1.33-.08-2.68.07-4,0v-8.01s-4,0-4,0v-3.99s8.01,0,8.01,0v-3.99s-4,0-4,0v-24h-4.01s0-4,0-4h4.02s-.01-12.01-.01-12.01h12.01s-.02-4-.02-4l4.02.02-.02-4.02,8.01.02-.02-4.02,4.02.02v-8.01s-4.02,0-4.02,0v-3.99s4.02,0,4.02,0v-3.99s-4.02,0-4.02,0v-3.99s4.02,0,4.02,0l-.02-4.02,4.02.02-.02-4.02,4.02.02v-11.43s-4.02-.58-4.02-.58v-3.99s4.02,0,4.02,0v-3.99s-4.02,0-4.02,0v-3.99s4.02,0,4.02,0v-3.99s-8.01,0-8.01,0v-3.99s8.01,0,8.01,0v-12.01s4,.02,4,.02v-4.02s3.99,0,3.99,0v4.02s4.01-.02,4.01-.02v8.01s8-.01,8-.01v4.02s8,0,8,0c.04-2.66-.07-5.35,0-8-1.33-.08-2.68.07-4.01,0l.02-4.02h-4.02s0-3.99,0-3.99h12.01s0,3.99,0,3.99h-4.02c-.03,1.33.04,2.67,0,4,1.33.08,2.68-.07,4.01,0l-.02,4.02,4.02-.02-.02,4.02,4.02-.02-.02,4.02h8.01s0,3.99,0,3.99h-4.02s.02,4.01.02,4.01l-4.02-.02v4.02s-3.99,0-3.99,0v-4.02s-4,0-4,0v4.02s-4.01,0-4.01,0v4h16.01v4s-4.01,0-4.01,0l.02,4.02-4.02-.02c-.06,1.33.08,2.68,0,4.01-2.66.04-5.34-.04-8,0v3.99s8.01,0,8.01,0c.06-1.33-.08-2.68,0-4,2.66-.04,5.35.03,8.01,0v-4.02s8,.02,8,.02v-4.02s3.99,0,3.99,0v8.01s-8-.01-8-.01v4.02s-8-.02-8-.02l.02,4.02-4.02-.02.02,4.02-8.01-.02.02,4.02h-4.02s0,3.99,0,3.99h8.01s-.01-4-.01-4l8.01.02v-4.02s8,.02,8,.02v-4.02s8,.02,8,.02l-.02-4.02,4.02.02-.02-4.02,4.02.02-.02-4.02,4.02.02-.02-4.02,4.02.02-.02-4.02,4.02.02-.02-4.02,4.02.02-.02-4.02,8.01.02-.02-4.02,4.02.02-.02-4.02h8.01s0,8.01,0,8.01h3.99s0-4.01,0-4.01l8.01.02-.02-4.02,4.02.02-.02-4.02,4.02.02-.02-4.02,4.02.02v-8.01s3.99,0,3.99,0v4.02s4.01-.02,4.01-.02v8.01s7.99,0,7.99,0v3.99s-4.01,0-4.01,0v8h16.01v8.01s4.01-.02,4.01-.02l-.02,4.02,4.02-.02-.02,8.01,4.02-.02-.02,4.02,4.02-.02v8.01s-8.01-.01-8.01-.01l.02,4.02h-4.02s0,3.99,0,3.99h12.01s-.02,4.01-.02,4.01h4.02s0,3.99,0,3.99h-4.02s.02,12.01.02,12.01l-4.02-.02.02,4.02-4.02-.02.02,4.02-4.02-.02.02,4.02-4.02-.02.02,4.02-4.02-.02.02,4.02-4.02-.02.02,4.02-4.02-.02.02,4.02-4.02-.02.02,4.02h-4.02s0,3.98,0,3.98h8.01s-.02-4-.02-4l4.02.02-.02-4.02,4.02.02-.02-4.02,4.02.02-.02-4.02,8.01.02v-4.02s3.99,0,3.99,0v8.01s4.01,0,4.01,0v3.99s-4.02,0-4.02,0l.02,4.02-4.02-.02.02,4.02-4.02-.02.02,4.02-4.02-.02.02,4.02-4.02-.02.02,4.02-4.02-.02.02,4.02-4.02-.02.02,4.02-8.01-.02.02,4.02-4.02-.02.02,4.02-4.02-.02.02,4.02-4.02-.02.02,4.02-4.02-.02.02,4.02-4.02-.02.02,4.02-8.01-.02.02,4.02-4.02-.02.02,4.02-4.02-.02.02,4.02-8.01-.02v4.02s-8-.01-8-.01v8.01s-8-.01-8-.01v4.02s-3.99,0-3.99,0v-4.02s-4,0-4,0v4.02s-8.01-.02-8.01-.02l.02,4.02h-4.02s0,3.99,0,3.99h8.01s-.01-4-.01-4h8.01s0,4,0,4h-4.02s0,4,0,4h8.01s-.02-4-.02-4l4.02.02-.02-4.02,4.02.02-.02-4.02,16.01.02-.02-4.02,4.02.02-.02-4.02,8.01.02-.02-4.02,4.02.02-.02-4.02,8.01.02-.02-4.02,4.02.02-.02-4.02,8.01.02-.02-4.02,4.02.02-.02-4.02,4.02.02-.02-4.02,4.02.02-.02-4.02,4.02.02-.02-4.02,4.02.02-.02-4.02,4.02.02-.02-4.02,8.01.02-.02-4.02,4.02.02-.02-4.02,4.02.02-.02-4.02h8.01s0,8.01,0,8.01h3.99s0-4.01,0-4.01h3.99s0,8.01,0,8.01h-12.01s.01,12,.01,12h-12s0,19.99,0,19.99h4.01s-.02,4.01-.02,4.01h7.43s.58-4.02.58-4.02h3.99s0,4.02,0,4.02h3.99s0-4.02,0-4.02h8.01s-.01,8.01-.01,8.01l4.02-.02-.02,4.02,4.02-.02v8.01s-4.02,0-4.02,0v3.99s4.01,0,4.01,0v16h-4.01s.02,8,.02,8h-4.02s.02,8,.02,8h-4.02s.02,8,.02,8l-4.02-.02.02,4.02-4.02-.02.02,4.02-4.02-.02.02,4.02-4.02-.02.02,4.02-4.02-.02v8.01s-8-.01-8-.01v8.01s-8-.01-8-.01v8.01s-4-.02-4-.02l.02,4.02-4.02-.02.02,4.02h-8.01s.01,8,.01,8l-4.02-.02.02,4.02-4.02-.02.02,4.02-8.01-.02.02,4.02-4.02-.02v8.01s-8-.01-8-.01l.02,4.02-4.02-.02.02,4.02-4.02-.02.02,4.02-4.02-.02.02,4.02-4.02-.02.02,4.02-4.02-.02.02,4.02-4.02-.02.02,4.02-4.02-.02.02,4.02-4.02-.02.02,4.02-4.02-.02.02,4.02-4.02-.02.02,4.02-4.02-.02.02,4.02-4.02-.02.02,4.02-4.02-.02.02,4.02-4.02-.02.02,4.02-4.02-.02.02,4.02-4.02-.02.02,4.02-4.02-.02.02,4.02-4.02-.02.02,4.02-4.02-.02.02,4.02-4.02-.02.02,4.02-4.02-.02.02,4.02-4.02-.02.02,8.01-4.02-.02.02,4.02-4.02-.02.02,4.02-4.02-.02.02,4.02-4.02-.02.02,4.02-4.02-.02.02,4.02-4.02-.02.02,8.01-4.02-.02.02,4.02-4.02-.02.02,8.01-4.02-.02.02,4.02-4.02-.02.02,4.02-4.02-.02.02,4.02-4.02-.02v8.01c-4.07.58-9.36-2.45-7.99,3.99h-20c.32-4.19.47-4.39-4.01-3.99l.02-4.02-4.02.02.02-4.02-4.02.02.02-4.02-4.02.02.02-4.02-4.02.02.02-8.01-4.02.02.02-4.02-4.02.02.02-4.02-4.02.02.02-8.01-4.02.02.02-4.02-4.02.02.02-4.02-4.02.02.02-4.02-4.02.02.02-4.02-4.02.02.02-4.02-4.02.02v-8.01s-8,.01-8,.01v-8.01s-4,.02-4,.02l.02-4.02-4.02.02.02-4.02-4.02.02.02-4.02-4.02.02.02-4.02-4.02.02.02-4.02-4.02.02.02-4.02-4.02.02.02-4.02-4.02.02.02-4.02-4.02.02.02-4.02-4.02.02.02-4.02-4.02.02.02-4.02-4.02.02.02-4.02-4.02.02.02-4.02-4.02.02.02-4.02-4.02.02.02-4.02-8.01.02.02-4.02-4.02.02.02-4.02-4.02.02.02-4.02-4.02.02.02-4.02-4.02.02.02-4.02-4.02.02.02-4.02-4.02.02.02-4.02-4.02.02.02-4.02-4.02.02.02-4.02-8.01.02.02-4.02-4.02.02.02-4.02-4.02.02.02-4.02-4.02.02.02-4.02-4.02.02.02-4.02-4.02.02.02-4.02-4.02.02.02-4.02-4.02.02.02-4.02-8.01.02.02-4.02-4.02.02.02-4.02-4.02.02.02-4.02-4.02.02.02-4.02-8.01.02.02-4.02-4.02.02.02-4.02-4.02.02.02-4.02-4.02.02.02-4.02-4.02.02.02-4.02-4.02.02.02-4.02-4.02.02.02-4.02-4.02.02.02-4.02-4.02.02.02-4.02-8.01.02.02-4.02-4.02.02.02-8.01-4.02.02.02-4.02-4.02.02.02-4.02-4.02.02.02-8.01-4.02.02.02-4.02-4.02.02.02-4.02-4.02.02.02-4.02-4.02.02.02-4.02-4.02.02.02-4.02-4.02.02.02-4.02-4.02.02.02-4.02-4.02.02.02-4.02-4.02.02.02-4.02-4.02.02.02-8.01-4.02.02.02-4.02-4.02.02.02-4.02-4.02.02.02-12.01-4.02.02.02-4.02-4.02.02.02-8.01h-4.02s.02-8,.02-8h-4.02s.02-8,.02-8h-4.02s.02-8,.02-8h-4.02s.02-8,.02-8l-4.02.02.02-4.02-4.02.02.02-8.01h-4.01s0-19.99,0-19.99h-4v-20h4.01s0-4,0-4h-4.01v-16h-4v-32h-8v-4c4.19.32,4.39.47,3.99-4.01l4.02.02-.02-8.01h4.01s0-23.99,0-23.99h4s0,4.01,0,4.01h8.01s0-4,0-4h-4.02s0-4,0-4h8.01s-.02-4.01-.02-4.01l4.02.02-.02-4.02,4.02.02-.02-4.02h12.01s-.01-11.99-.01-11.99h8.01s-.01-8-.01-8h4.02s0-3.99,0-3.99h-8.01s.02,4,.02,4l-4.02-.02v4.02s-3.98,0-3.98,0l-.03-7.43,4.03-.57-.02-4.02,4.02.02-.02-4.02h4.02s0-3.99,0-3.99h-4.02s0-4,0-4h4.02c.13-7.98-.2-16.02,0-24,1.33-.08,2.68.07,4,0v-8.01s-4,0-4,0c-.06,2.66.06,5.35,0,8-2.64.16-5.35-.11-8,0v-20h4.01s-.02-12-.02-12h4.02s-.02-8-.02-8l4.02.02-.02-4.02,4.02.02-.02-8.01,4.02.02-.02-4.02,8.01.02-.02-4.02,4.02.02-.02-4.02h8.01s.57,4.03.57,4.03h7.43s0-4.02,0-4.02h16v-4.01s4,0,4,0v16h-4v16h8s-.01-12-.01-12h4.02s0-3.99,0-3.99h-4.02s0-8.01,0-8.01l4.02.02-.02-4.02h8.01s0,4,0,4h-4.02s.01,12.01.01,12.01h3.99s0-4.01,0-4.01h12.01s0,12.01,0,12.01h-4.02s0,3.99,0,3.99h4.02s0,4,0,4h-4.02c-.06,1.32.09,2.68,0,4-2.66.07-5.35-.05-8.01,0l.02,4.02-4.02-.02.02,4.02-4.02-.02.02,4.02-4.02-.02c-.06,1.33.09,2.68,0,4.01-3.99.1-8.02-.07-12,0v8.01s-4-.02-4-.02l.02,4.02h-8.01s.01,8,.01,8l-4.02-.02.02,4.02-4.02-.02.02,4.02-4.02-.02.02,4.02-8.01-.02.02,4.02-4.02-.02.02,4.02h-4.02s0,3.98,0,3.98h8.01s-.02-4-.02-4l4.02.02v-4.02s3.98,0,3.98,0v8.01s-3.99,0-3.99,0v16h-8s0,8,0,8h4.02s-.02,12-.02,12h4.02s0,12,0,12h-4.02s0,12,0,12h4.02s-.01,12-.01,12h8.01s-.02,4-.02,4l4.02-.02-.02,8.01h4.01s0,23.99,0,23.99h8s0-8,0-8h-4.02s.01-8,.01-8h3.99s0,4.01,0,4.01h4v-36l-4.02-.58v-7.43s4.03,0,4.03,0v-4h-20.01v-4h16v-16h-8s0-12,0-12h4.02s0-3.99,0-3.99h-4.02s0-4,0-4h4.02s-.02-8.01-.02-8.01h4.02s-.02-12-.02-12l4.02.02-.02-4.02,4.02.02v-12.01s-4.02,0-4.02,0v-3.99s4.02,0,4.02,0l-.02-4.02,4.02.02-.02-4.02,4.02.02c.06-1.33-.09-2.68,0-4.01,2.66-.07,5.35.05,8.01,0l-.02-4.02,4.02.02-.02-4.02,4.02.02-.02-4.02,4.02.02c.06-1.33-.09-2.68,0-4.01,2.65-.07,5.35-.05,8,0-.08,1.33.07,2.68,0,4.01l-4.02-.02.02,4.02h-4.02s0,3.98,0,3.98h8.01s-.02-4-.02-4l4.02.02v-8.01c-1.33-.03-2.67.03-4.01,0,.08-1.33-.07-2.68,0-4.01h4.02s-.01-8-.01-8h8.01c.06-1.32-.08-2.67,0-3.99ZM330.02,794.04c2.66-.05,5.35.04,8.01,0v-4.02s8,.01,8,.01v-12.01s-4,0-4,0v4.02s-4.01-.02-4.01-.02l.02,4.02-4.02-.02.02,4.02-4.02-.02c-.06,1.33.09,2.68,0,4.01-2.66.05-5.35-.04-8.01,0v4.02s-8,0-8,0v3.99s12.01.01,12.01.01l-.02-4.02,4.02.02c.06-1.33-.09-2.68,0-4.01ZM398.02,898.03h-8.01v3.99h8.01v-3.99ZM426.01,902.03h-8.01s0,8,0,8h3.99s0-4.01,0-4.01h4.02s0-3.99,0-3.99ZM282.03,910.02h-8.01s0,4,0,4h4.02s0,4.01,0,4.01h3.99s0-8.01,0-8.01ZM338.02,914.02h-3.99v8.01h3.99v-8.01ZM234.03,918.02h-3.99v12.01h3.99s0-4.01,0-4.01h4.02s0-3.99,0-3.99h-4.02s0-4.01,0-4.01ZM474,946.02h-16v4s4.01,0,4.01,0v4.02s3.99,0,3.99,0v-4.02s4,0,4,0l.51,8.01h3.49s0-12,0-12ZM350.02,970.02h-8.01v3.99h8.01v-3.99ZM354.02,978.01h-8.01s0,4,0,4h4.02s0,4.01,0,4.01h3.99s0-8.01,0-8.01ZM765.96,998.01h-3.99s0,4.01,0,4.01h-8.01s0,3.99,0,3.99h12.01s0-8,0-8ZM757.97,1022.02h-8.01s.02,4,.02,4h-4.02s0,3.99,0,3.99h8.01s-.02-4-.02-4h4.02s0-3.99,0-3.99ZM454,1050h-3.99s0,4.02,0,4.02l-4.02-.02v8.01s-11.99,0-11.99,0v3.99s4.01,0,4.01,0v12.01s8,0,8,0v-8.01s4,.02,4,.02l-.02-4.02h4.02s0-3.99,0-3.99h-4.02s0-4,0-4h8.01s0-4,0-4h-4.02s0-4.01,0-4.01ZM629.99,1062.01h-8.01v3.99h8.01v-3.99ZM621.99,1070.01v20h4s0-4.01,0-4.01h4.02s0-3.99,0-3.99l-4.03-.58v-7.43s4.03,0,4.03,0v-3.99s-8.01,0-8.01,0ZM478.01,1086.01h-12.01v3.99h12.01v-3.99ZM462.01,1122h-8.01v3.99h8.01v-3.99ZM813.96,1141.99h-3.99v8.01h3.99v-8.01Z"/>
    <path class="cls-1" d="M538,878.03c-.07-2.66.05-5.35,0-8.01h-4.02s.02-8,.02-8h-4.02s0-3.99,0-3.99h4.02s-.02-4.01-.02-4.01l4.02.02-.02-4.02,8.01.02-.02-4.02,4.02.02-.02-4.02,4.02.02-.02-4.02,8.01.02v-4.02s8,.02,8,.02v-4.02s8,.02,8,.02v-4.02s12,.02,12,.02l-.02-4.02,4.02.02-.02-12.01,4.02.02-.02-4.02,4.02.02-.02-4.02,4.02.02-.02-4.02h12.01s0,4,0,4h-4.02s.02,4.01.02,4.01l-4.02-.02.02,4.02-8.01-.02.02,4.02-4.02-.02v12.01s8.01,0,8.01,0v-4.01s15.99,0,15.99,0v-4h24v8s-4.02.57-4.02.57l.03,7.43h3.99s0-4.01,0-4.01l4.02.02v-8.01s8,.01,8,.01l-.02-4.02,4.02.02v-8.01s3.99,0,3.99,0v4.02s4,0,4,0v-4.02s4,0,4,0v8.01s-4-.01-4-.01l.02,8.01-4.02-.02.02,4.02-8.01-.02v4.02s-8-.02-8-.02l.02,4.02-4.02-.02.02,4.02-16.01-.02.02,4.02h-4.02s0,3.99,0,3.99h8.01s0,4,0,4h-4.02s.02,4.01.02,4.01l-4.02-.02.02,4.02-4.02-.02.02,4.02-4.02-.02.02,4.02-4.02-.02.02,4.02h-8.01v-20.01h-4s0,8,0,8h-8.01s.02-4.01.02-4.01l-4.02.02v-4.02s-3.99,0-3.99,0v4.02s-8.01-.02-8.01-.02v4.02s-12,0-12,0v-4.02s-3.99,0-3.99,0v4.02s-4.01-.02-4.01-.02l.02,8.01h-4.02s.01,8,.01,8c-5.3.22-10.72-.32-16,0,.1,3.99-.06,8.02,0,12h-3.99s0-12.01,0-12.01c1.32-.07,2.68.09,4,0Z"/>
    <path class="cls-1" d="M757.97,894.03c.08-1.33-.07-2.68,0-4.01l4.02.02-.02-4.02,4.02.02-.02-4.02h8.01s0-3.99,0-3.99h-4.02s0-4,0-4h12.01s0-4,0-4h-4.02s.02-4.01.02-4.01h-8.01s.02,4.02.02,4.02l-4.02-.02.02,4.02-4.02-.02.02,8.01-4.02-.02v4.02s-3.99,0-3.99,0v-8.01s-4,0-4,0v12.01s-4.01-.02-4.01-.02l.02,4.02-4.02-.02.02,4.02-4.02-.02v4.02s-3.99,0-3.99,0v-4.02s-12.01.02-12.01.02v-4.02s-8,.01-8,.01v-20.01s4.01.01,4.01.01l-.02-8.01,4.02.02-.02-4.02,4.02.02-.02-4.02,8.01.02v-4.02s8,.01,8,.01v3.99s-4.01,0-4.01,0v3.99s4.02,0,4.02,0l-.02,4.02,4.02-.02-.02,4.02,4.02-.02v4.02s3.98,0,3.98,0v-8.01s4,0,4,0v4.02s4,0,4,0v-8.01s8.01.01,8.01.01v-4.02s8,.02,8,.02l-.02-4.02,4.02.02v-4.02s3.98,0,3.98,0v8.01s4,0,4,0v-8.01s4,0,4,0v-24h4.01s-.02-4.01-.02-4.01l8.01.02-.02-4.02,4.02.02-.02-4.02h8.01s0-7.99,0-7.99h4v20h-8s.01,8,.01,8h-8.01s.01,8,.01,8h-4.02s0,3.99,0,3.99h4.02s0,4,0,4h-8.01s0,8.01,0,8.01h4.02s0,3.99,0,3.99h-4.02s.02,8.01.02,8.01l-4.02-.02.02,4.02-4.02-.02.02,4.02-4.02-.02v16.01s4.02,0,4.02,0v3.99s-8.01,0-8.01,0v16h-12s0-4,0-4h4.02s0-4,0-4h-4.02s.02-4.01.02-4.01c-2.66-.02-5.34.05-8.01,0,.08-1.33-.07-2.68,0-4h4.02s0-3.99,0-3.99c-2.66-.02-5.34,0-8,0Z"/>
    <path class="cls-1" d="M757.97,894.03c-.08,1.33.07,2.68,0,4h-4.02s0,3.99,0,3.99c2.66.05,5.34-.04,8,0-.08,1.33.07,2.68,0,4.01l-4.02-.02.02,4.02h-8.01s0-16.01,0-16.01c2.66,0,5.34,0,8,0Z"/>
    <path class="cls-1" d="M741.97,818.04c.03,1.33-.04,2.68,0,4h4.02s0,3.99,0,3.99h-4.02s.02,4.01.02,4.01l-4.02-.02.02,4.02-4.02-.02.02,4.02-4.02-.02.02,4.02-12.01-.02v4.02s-12,0-12,0v-8.01s4.01.02,4.01.02l-.02-4.02,4.02.02-.02-12.01,4.02.02-.02-4.02,8.01.02v-4.02s8,.02,8,.02v-4.02s3.99,0,3.99,0v8.01c1.33.01,2.67,0,4,0-.06-2.66.03-5.35,0-8h3.99s0,8.01,0,8.01c-1.33.01-2.67,0-4,0Z"/>
    <path class="cls-1" d="M805.96,798.04c2.64.16,5.36-.11,8.01,0l-.02-4.02,4.02.02v-20.01s-4.02,0-4.02,0v-3.99s8.01,0,8.01,0v-8.01s3.99,0,3.99,0v4.02s4.02.57,4.02.57v11.43s-4.02,0-4.02,0v20h-4.01s.02,4.01.02,4.01l-8.01-.02.02,4.02-4.02-.02.02,4.02-4.02-.02v4.02s-3.98,0-3.98,0l-.03-11.43,4.03-.57c.06-1.33-.09-2.68,0-4.01-1.33-.08-2.68.07-4,0v-8.01s4.01.01,4.01.01v-8.01s3.99,0,3.99,0v12.01s-4-.01-4-.01c-.06,1.33.09,2.68,0,4.01Z"/>
    <polygon class="cls-1" points="402.01 974.01 402.02 986.02 398 986.01 398.02 990.03 394.01 990.01 394.02 998.02 390 998 390.02 1002.02 382.01 1002 382.03 1006.02 378.01 1006 378.02 1010.02 370.01 1010.02 370.01 1002.01 374.03 1002.02 374.01 994.01 382.02 994.02 382.01 990.01 386.02 990.03 386.01 986.01 390.02 986.03 390 982.01 394.02 982.03 394 978.01 398.02 978.03 398.02 974.01 402.01 974.01"/>
    <polygon class="cls-1" points="701.97 826.03 701.98 834.04 697.97 834.03 697.98 842.04 689.97 842.02 689.99 846.04 685.97 846.02 685.99 850.04 681.97 850.03 681.98 858.04 673.97 858.04 673.97 846.03 677.99 846.04 677.97 842.02 681.99 842.04 681.97 838.02 685.99 838.04 685.97 834.03 693.98 834.04 693.97 830.03 697.99 830.04 697.98 826.03 701.97 826.03"/>
    <polygon class="cls-1" points="869.96 1022.02 869.96 1026.01 865.95 1026 865.96 1030.02 861.95 1030 861.97 1034.02 857.95 1034 857.97 1038.02 853.95 1038 853.95 1042.02 849.96 1042.01 849.95 1034 853.97 1034.02 853.95 1030 857.97 1030.02 857.95 1026 861.97 1026.02 861.95 1022 869.96 1022.02"/>
    <polygon class="cls-1" points="833.96 858.02 833.95 862.04 837.97 862.03 837.96 866.03 829.95 866.02 829.97 870.04 825.95 870.02 825.96 878.03 821.97 878.03 821.95 866.02 825.97 866.04 825.95 862.02 829.97 862.04 829.96 858.02 833.96 858.02"/>
    <polygon class="cls-1" points="797.96 930.02 797.97 942.03 793.95 942.01 793.97 946.03 785.96 946.03 785.96 938.02 789.97 938.03 789.95 934.01 793.97 934.03 793.97 930.01 797.96 930.02"/>
    <polygon class="cls-1" points="657.98 778.04 657.99 786.05 653.97 786.03 653.99 794.05 649.97 794.03 649.98 798.05 645.99 798.04 645.97 790.03 649.99 790.05 649.97 782.04 653.99 782.05 653.99 778.03 657.98 778.04"/>
    <polygon class="cls-1" points="641.99 794.03 641.99 802.04 633.98 802.03 633.98 806.05 629.99 806.04 629.98 798.03 633.99 798.05 633.98 794.03 641.99 794.03"/>
    <path class="cls-1" d="M817.96,890.03c.04-2.66-.04-5.34,0-8h3.99s0,8.01,0,8.01c-1.33.07-2.68-.09-4,0-.04,2.66.03,5.35,0,8.01l-4.02-.02v4.02s-3.99,0-3.99,0v-12.01c2.64-.11,5.35.16,7.99,0Z"/>
    <rect class="cls-1" x="673.98" y="862.03" width="3.99" height="8.01"/>
    <rect class="cls-1" x="633.98" y="974.02" width="8.01" height="3.99"/>
    <rect class="cls-1" x="538" y="934.02" width="3.99" height="8.01"/>
    <rect class="cls-1" x="837.96" y="762.04" width="3.99" height="8.01"/>
    <path class="cls-1" d="M669.98,766.04c.03-2.66-.04-5.34,0-8h3.99s0,8.01,0,8.01c-1.33.05-2.67-.07-4,0-.03,2.66.04,5.34,0,8h-3.99s0-8.01,0-8.01c1.33-.05,2.67.07,4,0Z"/>
    <rect class="cls-1" x="553.99" y="990.02" width="8.01" height="3.99"/>
    <rect class="cls-1" x="350.02" y="746.05" width="8.01" height="3.99"/>
    <path class="cls-1" d="M370.02,738.05c.06-1.33-.06-2.68,0-4h8.01s0,4,0,4c-2.66.04-5.34-.03-8,0-.06,1.33.06,2.68,0,4h-8.01s0-4,0-4c2.66-.04,5.34.03,8,0Z"/>
    <rect class="cls-1" x="310.03" y="930.02" width="3.99" height="12.01"/>
  </g>
  <g>
    <path class="cls-1" d="M910.02,238.04c-2.66-.05-5.35.04-8,0v-12.01s4.01.02,4.01.02l-.02-4.02,4.02.02-.02-4.02,8.01.02-.02-4.02,4.02.02-.02-4.02,4.02.02-.02-4.02,12.01.02-.02-4.02,4.02.02v-8.01s-4,0-4,0l-.58,4.03-11.43-.03v-3.99s4.01,0,4.01,0l-.02-4.02,4.02.02-.02-4.02,4.02.02-.02-4.02,8.01.02v-4.02s3.99,0,3.99,0v4.02s4,0,4,0v-4.01h16v4s-4.01,0-4.01,0l.02,4.02h-8.01s0,3.99,0,3.99h8.01s0,4,0,4h-4.02s.02,4.01.02,4.01h-8.01s.01-4.02.01-4.02h-8.01s0,8.01,0,8.01h4.02s0,3.99,0,3.99h-4.02s.02,4.01.02,4.01l-16.01-.02.02,4.02-4.02-.02v8.01s-8-.01-8-.01l.02,4.02-4.02-.02.02,8.01h-4.02c-.06,1.32.08,2.66,0,3.99,1.33.03,2.67-.04,4,0l.02,11.43-4.03.58v3.99s8.01,0,8.01,0v-12.01s4,.02,4,.02l-.02-4.02,4.02.02-.02-4.02,8.01.02-.02-4.02,4.02.02v-8.01s8,.01,8,.01l-.02-4.02,4.02.02-.02-4.02,4.02.02-.02-4.02h8.01s0,8.01,0,8.01h3.99s0-4.01,0-4.01h3.99s0,8.01,0,8.01h-8.01s0,8,0,8h3.99s0-4.01,0-4.01l12.01.02v-4.02s8,.02,8,.02l-.02-4.02,4.02.02-.02-4.02,4.02.02-.02-4.02,4.02.02v-4.02s3.99,0,3.99,0v4.02s4,0,4,0v-8.01s8.01.01,8.01.01v-4.02s8,.02,8,.02v-4.02s12,.02,12,.02v-4.02s12,0,12,0l-.02,4.02,4.02-.02v12.01s8,0,8,0v-4.02s3.99,0,3.99,0v4.02s4.01-.02,4.01-.02l-.02,4.02h12.01s0-4.02,0-4.02h3.99s0,4.02,0,4.02h8.01s-.01,8-.01,8l4.02-.02-.02,4.02,12.01-.02-.02,4.02,4.02-.02v8.01s-4.02,0-4.02,0v3.99s8.01,0,8.01,0v4.02s8-.01,8-.01v8.01s7.99,0,7.99,0v16h-4.01s.02,4.01.02,4.01l-4.02-.02.02,4.02-4.02-.02.02,4.02-4.02-.02.02,4.02-4.02-.02.02,4.02-8.01-.02.02,4.02-4.02-.02.02,4.02-8.01-.02v4.02s-8-.02-8-.02v4.02s-8,0-8,0v-4.02s-3.99,0-3.99,0v4.02s-8.01-.01-8.01-.01v8.01s-3.99,0-3.99,0v-4.02s-4,0-4,0v4.02s-4,0-4,0v-8h-20v4.01s-12-.02-12-.02v4.02s-8-.02-8-.02l.02,4.02-4.02-.02.02,4.02-4.02-.02.02,4.02h-8.01s.01-4.02.01-4.02c-1.33-.03-2.67.04-4,0,0,1.33.02,2.67,0,4h-8.01s0-4,0-4c2.66.03,5.35-.07,8,0,0-1.33.02-2.67,0-4h-16.01s.01-8,.01-8l-7.43-.02-.57,4.03-4.02-.02.02,4.02-4.02-.02.02,4.02h-12.01s0-12.01,0-12.01l4.03-.57-.03-7.43h-3.99s0,4.01,0,4.01l-4.02-.02.02,4.02-4.02-.02.02,4.02-4.02-.02.02,4.02-4.02-.02.02,4.02-4.02-.02.02,4.02-4.02-.02.02,4.02-12.01-.02v4.02c-1.31.06-2.67-.09-3.99,0,0,2.66,0,5.34,0,8h-8.01s0-4,0-4h4.02s-.02-4.01-.02-4.01c1.33-.06,2.68.09,4.01,0,0-2.66.01-5.34,0-8h-3.99s0,4.01,0,4.01l-4.02-.02.02,4.02-8.01-.02.02,4.02-4.02-.02v4.02s-3.99,0-3.99,0v-4.02s-4,0-4,0v4.02s-4.01-.02-4.01-.02l.02,12.01-4.02-.02.02,4.02h-4.02s0,3.99,0,3.99h4.02s-.02,4.01-.02,4.01l4.02-.02v4.02s3.99,0,3.99,0v-4.02s12.01,0,12.01,0v12.01s-4.01-.01-4.01-.01c-.02,2.66.05,5.34,0,8.01-1.33.07-2.68-.07-4,0v8.01s4,0,4,0c.05-2.66-.04-5.34,0-8,1.33-.07,2.68.07,4.01,0v-4.02s8,.01,8,.01v-8.01s4,0,4,0v-3.99s-4.02,0-4.02,0v-3.99s4.02,0,4.02,0l-.02-8.01h4.02s0-3.99,0-3.99h-4.02s0-8.01,0-8.01h8.01s0,8.01,0,8.01h3.99s0-4.01,0-4.01l4.02.02-.02-4.02,4.02.02-.02-4.02h8.01s0-7.99,0-7.99h3.99s0,8.01,0,8.01h4.02c-.12,2.64.15,5.35,0,7.99-1.33-.08-2.68.07-4,0v-4.02s-3.99,0-3.99,0v8.01s8,0,8,0c.07-1.32-.09-2.68,0-4,1.33.08,2.68-.07,4.01,0v4.02s8,0,8,0v3.99s-4.01,0-4.01,0v3.99s4.02,0,4.02,0v4.02s3.99,0,3.99,0v-4.02s12.01.02,12.01.02l.57-4.03h7.43s-.01,4.03-.01,4.03c4.78.8,14.64-2.55,15.97,3.53.3,1.37-.04,3.03.04,4.47h-8.01s.01,12,.01,12l-4.02-.02.02,4.02-4.02-.02.02,8.01h-4.02s0,3.99,0,3.99h4.02s0,4,0,4h-8.01s.01,8.01.01,8.01l-4.02-.02.02,4.02-4.02-.02.02,4.02-4.02-.02v8.01s-3.99,0-3.99,0v-16h-4.01s-.01-11.42-.01-11.42l4.03-.58v-3.99s-8.01,0-8.01,0v-3.99s4.01,0,4.01,0v-8.01s3.49,0,3.49,0l.51,8.01h3.99s0-12.01,0-12.01h-12.01s.01,8.01.01,8.01l-4.02-.02.02,4.02-4.02-.02.02,4.02-4.02-.02.02,4.02h-8.01s.01,8,.01,8h-4.01s0,19.99,0,19.99h-4s0-4.01,0-4.01h-8.01s.01-12,.01-12h-4.02c-.03-1.32.04-2.66,0-3.99,2.66-.06,5.35.06,8,0v-3.99s-4.01,0-4.01,0v-4.02s-3.99,0-3.99,0c.03,2.66-.07,5.35,0,8-1.33.03-2.68-.04-4.01,0l.02,4.02-4.02-.02.02,8.01-4.02-.02.02,4.02c-1.33.03-2.67-.04-4.01,0-.13-2.18.55-15.85-.57-16.02l-7.43.02v3.99s4.01,0,4.01,0v3.99s-4.02,0-4.02,0l.02,4.02-4.02-.02c-.06,1.33.09,2.68,0,4.01-3.99.05-8.01-.04-12,0v12.01s8.01,0,8.01,0v-8.01s4,.01,4,.01c.06-1.33-.09-2.68,0-4.01,3.99-.05,8.01.1,12,0,.08,1.33-.07,2.68,0,4l7.43.02.57-4.03h8.01s-.01,12.01-.01,12.01h4.02s0,3.99,0,3.99h-4.02s0,8.01,0,8.01l4.02-.02-.02,4.02h4.02s0,3.99,0,3.99h-4.02s.02,12.01.02,12.01h-4.02s0,3.99,0,3.99h4.02s0,4,0,4h-4.02s0,4,0,4h4.02s-.02,4.01-.02,4.01h4.02s0,3.99,0,3.99h-4.02s.02,4.01.02,4.01l-4.02-.02.02,4.02h-8.01s0,8,0,8l4.02-.02v4.02s3.99,0,3.99,0v-4.02s4.01.02,4.01.02l-.02-4.02,8.01.02-.02-4.02,4.02.02v-8.01s8,.01,8,.01l-.02-4.02,4.02.02-.02-4.02c1.33-.01,2.67,0,4.01,0,.05-2.66-.04-5.35,0-8.01l4.02.02-.02-4.02h8.01s-.01-8-.01-8l4.02.02-.02-4.02,4.02.02-.02-8.01,4.02.02-.02-4.02h8.01s0-3.99,0-3.99h-4.02s0-4,0-4h12.01s0-4,0-4h-4.02s0-4,0-4h4.02s-.02-4.01-.02-4.01l4.02.02c0-2.66-.02-5.34,0-8.01-1.33,0-2.67.02-4,0v-8.01s4,0,4,0c.01,2.66.01,5.34,0,8,1.33,0,2.67.02,4,0v-8.01s4,.02,4,.02l-.02-4.02,4.02.02-.02-16.01,4.02.02-.02-4.02,4.02.02-.02-4.02h8.01s0-7.99,0-7.99h3.99s0,4.01,0,4.01l8.01-.02-.02,4.02,4.02-.02-.02,4.02,8.01-.02v4.02s3.99,0,3.99,0v-8.01s4,0,4,0v16h8.01s-.02,4.01-.02,4.01l4.02-.02-.02,4.02,4.02-.02-.02,4.02h4.02s0,3.99,0,3.99h-4.02s0,4.01,0,4.01h-3.99s0-4.02,0-4.02l-4.02.02v-4.02s-3.99,0-3.99,0v8.01s4-.02,4-.02l-.02,4.02,8.01-.02v4.02s3.99,0,3.99,0v-4.02s8.01,0,8.01,0v8.01s-8.01-.01-8.01-.01v8h20v4s-4.01,0-4.01,0l.02,8.01h-4.02s0,3.99,0,3.99h4.02s0,4,0,4h-32v4.01s-8,0-8,0v-8.01s-3.99,0-3.99,0v4.02s-12.01-.02-12.01-.02v4.02s-8-.02-8-.02v4.02s-12-.02-12-.02v4.02s-3.99,0-3.99,0v-4.02s-12.01,0-12.01,0v4.02s-8-.02-8-.02l.02,4.02-4.02-.02.02,4.02h-12.01s.01-4.02.01-4.02h-8.01s.01,8.01.01,8.01l-4.02-.02.02,4.02h-8.01s.01-4.02.01-4.02c-1.33-.01-2.67,0-4,0-.05,2.66.04,5.35,0,8.01h-4.02s0,3.99,0,3.99h8.01s0,4,0,4h-4.02s0,4,0,4h8.01s-.01,12.01-.01,12.01h8.01s-.01-8.01-.01-8.01l4.02.02-.02-4.02,8.01.02v-4.02s3.99,0,3.99,0v4.02s4,0,4,0v-4.02s4.01.02,4.01.02v-4.02s3.99,0,3.99,0v4.02s4,0,4,0v-4.02s12.01.02,12.01.02v-4.02s3.99,0,3.99,0v12.01s4.02.57,4.02.57v7.43s-4.03,0-4.03,0v3.99s8.01.01,8.01.01v-4.02s3.99,0,3.99,0v8.01s4,0,4,0v-4.02s4,0,4,0v8h20v4h16v8.01s-4.01-.02-4.01-.02l.02,4.02-4.02-.02.02,4.02-4.02-.02.02,4.02-4.02-.02.02,4.02-4.02-.02.02,4.02-4.02-.02.02,4.02h-8.01s0,3.99,0,3.99h4.02s0,4,0,4h-4.02s.02,4.01.02,4.01l-4.02-.02.02,4.02-4.02-.02.02,4.02-4.02-.02.02,4.02h-4.02s0,3.98,0,3.98h8.01s-.02-4-.02-4l4.02.02-.02-4.02,4.02.02-.02-4.02,4.02.02-.02-4.02,4.02.02-.02-4.02,4.02.02v-4.02s3.99,0,3.99,0v4.02s4,0,4,0v-16h4.01s-.02-4.01-.02-4.01l4.02.02-.02-4.02,4.02.02-.02-4.02,4.02.02-.02-4.02,8.01.02-.02-4.02,4.02.02v-4.02s3.99,0,3.99,0v4.02s8.01,0,8.01,0v-8.01s3.99,0,3.99,0v4.02s7.43.01,7.43.01l.57-4.03h8.01l.57,4.03h7.43s0-4.03,0-4.03h3.99s0,8.01,0,8.01h8.01s0,3.99,0,3.99h-4.02s.02,4.01.02,4.01l-4.02-.02v8.01s-8-.01-8-.01v4.02s-8-.02-8-.02v4.02s-12-.02-12-.02v4.02s-3.99,0-3.99,0v-4.02s-8.01,0-8.01,0v12s-27.99,0-27.99,0v4h16v4.01s4,0,4,0v-4.02s8.01,0,8.01,0v4.01s15.99,0,15.99,0v4.01s8,0,8,0v-8.01s3.99,0,3.99,0v4.02s4,0,4,0v-8.01s4,0,4,0v4.02s4,0,4,0v-8.01s7.43-.02,7.43-.02l.57,4.03,4.02-.02v4.02s3.99,0,3.99,0v-4.02s12.01,0,12.01,0l-.02,4.02,4.02-.02-.02,4.02h8.01s0,19.99,0,19.99h4s0-12,0-12h4.02c.06-1.31-.09-2.67,0-3.99,2.64.16,5.36-.11,8.01,0l-.02-4.02h4.02s0-3.99,0-3.99h-8.01s.02,4,.02,4l-4.02-.02c-.06,1.33.09,2.68,0,4.01-1.33-.08-2.68.07-4,0v-8.01s-4,0-4,0v-3.99s8.01,0,8.01,0v-3.99s-4,0-4,0v-24h-4.01s0-4,0-4h4.02s-.01-12.01-.01-12.01h12.01s-.02-4-.02-4l4.02.02-.02-4.02,8.01.02-.02-4.02,4.02.02v-8.01s-4.02,0-4.02,0v-3.99s4.02,0,4.02,0v-3.99s-4.02,0-4.02,0v-3.99s4.02,0,4.02,0l-.02-4.02,4.02.02-.02-4.02,4.02.02v-11.43s-4.02-.58-4.02-.58v-3.99s4.02,0,4.02,0v-3.99s-4.02,0-4.02,0v-3.99s4.02,0,4.02,0v-3.99s-8.01,0-8.01,0v-3.99s8.01,0,8.01,0v-12.01s4,.02,4,.02v-4.02s3.99,0,3.99,0v4.02s4.01-.02,4.01-.02v8.01s8-.01,8-.01v4.02s8,0,8,0c.04-2.66-.07-5.35,0-8-1.33-.08-2.68.07-4.01,0l.02-4.02h-4.02s0-3.99,0-3.99h12.01s0,3.99,0,3.99h-4.02c-.03,1.33.04,2.67,0,4,1.33.08,2.68-.07,4.01,0l-.02,4.02,4.02-.02-.02,4.02,4.02-.02-.02,4.02h8.01s0,3.99,0,3.99h-4.02s.02,4.01.02,4.01l-4.02-.02v4.02s-3.99,0-3.99,0v-4.02s-4,0-4,0v4.02s-4.01,0-4.01,0v4h16.01v4s-4.01,0-4.01,0l.02,4.02-4.02-.02c-.06,1.33.08,2.68,0,4.01-2.66.04-5.34-.04-8,0v3.99s8.01,0,8.01,0c.06-1.33-.08-2.68,0-4,2.66-.04,5.35.03,8.01,0v-4.02s8,.02,8,.02v-4.02s3.99,0,3.99,0v8.01s-8-.01-8-.01v4.02s-8-.02-8-.02l.02,4.02-4.02-.02.02,4.02-8.01-.02.02,4.02h-4.02s0,3.99,0,3.99h8.01s-.01-4-.01-4l8.01.02v-4.02s8,.02,8,.02v-4.02s8,.02,8,.02l-.02-4.02,4.02.02-.02-4.02,4.02.02-.02-4.02,4.02.02-.02-4.02,4.02.02-.02-4.02,4.02.02-.02-4.02,4.02.02-.02-4.02,8.01.02-.02-4.02,4.02.02-.02-4.02h8.01s0,8.01,0,8.01h3.99s0-4.01,0-4.01l8.01.02-.02-4.02,4.02.02-.02-4.02,4.02.02-.02-4.02,4.02.02v-8.01s3.99,0,3.99,0v4.02s4.01-.02,4.01-.02v8.01s7.99,0,7.99,0v3.99s-4.01,0-4.01,0v8h16.01v8.01s4.01-.02,4.01-.02l-.02,4.02,4.02-.02-.02,8.01,4.02-.02-.02,4.02,4.02-.02v8.01s-8.01-.01-8.01-.01l.02,4.02h-4.02s0,3.99,0,3.99h12.01s-.02,4.01-.02,4.01h4.02s0,3.99,0,3.99h-4.02s.02,12.01.02,12.01l-4.02-.02.02,4.02-4.02-.02.02,4.02-4.02-.02.02,4.02-4.02-.02.02,4.02-4.02-.02.02,4.02-4.02-.02.02,4.02-4.02-.02.02,4.02-4.02-.02.02,4.02h-4.02s0,3.98,0,3.98h8.01s-.02-4-.02-4l4.02.02-.02-4.02,4.02.02-.02-4.02,4.02.02-.02-4.02,8.01.02v-4.02s3.99,0,3.99,0v8.01s4.01,0,4.01,0v3.99s-4.02,0-4.02,0l.02,4.02-4.02-.02.02,4.02-4.02-.02.02,4.02-4.02-.02.02,4.02-4.02-.02.02,4.02-4.02-.02.02,4.02-4.02-.02.02,4.02-8.01-.02.02,4.02-4.02-.02.02,4.02-4.02-.02.02,4.02-4.02-.02.02,4.02-4.02-.02.02,4.02-4.02-.02.02,4.02-8.01-.02.02,4.02-4.02-.02.02,4.02-4.02-.02.02,4.02-8.01-.02v4.02s-8-.01-8-.01v8.01s-8-.01-8-.01v4.02s-3.99,0-3.99,0v-4.02s-4,0-4,0v4.02s-8.01-.02-8.01-.02l.02,4.02h-4.02s0,3.99,0,3.99h8.01s-.01-4-.01-4h8.01s0,4,0,4h-4.02s0,4,0,4h8.01s-.02-4-.02-4l4.02.02-.02-4.02,4.02.02-.02-4.02,16.01.02-.02-4.02,4.02.02-.02-4.02,8.01.02-.02-4.02,4.02.02-.02-4.02,8.01.02-.02-4.02,4.02.02-.02-4.02,8.01.02-.02-4.02,4.02.02-.02-4.02,4.02.02-.02-4.02,4.02.02-.02-4.02,4.02.02-.02-4.02,4.02.02-.02-4.02,4.02.02-.02-4.02,8.01.02-.02-4.02,4.02.02-.02-4.02,4.02.02-.02-4.02h8.01s0,8.01,0,8.01h3.99s0-4.01,0-4.01h3.99s0,8.01,0,8.01h-12.01s.01,12,.01,12h-12s0,19.99,0,19.99h4.01s-.02,4.01-.02,4.01h7.43s.58-4.02.58-4.02h3.99s0,4.02,0,4.02h3.99s0-4.02,0-4.02h8.01s-.01,8.01-.01,8.01l4.02-.02-.02,4.02,4.02-.02v8.01s-4.02,0-4.02,0v3.99s4.01,0,4.01,0v16h-4.01s.02,8,.02,8h-4.02s.02,8,.02,8h-4.02s.02,8,.02,8l-4.02-.02.02,4.02-4.02-.02.02,4.02-4.02-.02.02,4.02-4.02-.02.02,4.02-4.02-.02v8.01s-8-.01-8-.01v8.01s-8-.01-8-.01v8.01s-4-.02-4-.02l.02,4.02-4.02-.02.02,4.02h-8.01s.01,8,.01,8l-4.02-.02.02,4.02-4.02-.02.02,4.02-8.01-.02.02,4.02-4.02-.02v8.01s-8-.01-8-.01l.02,4.02-4.02-.02.02,4.02-4.02-.02.02,4.02-4.02-.02.02,4.02-4.02-.02.02,4.02-4.02-.02.02,4.02-4.02-.02.02,4.02-4.02-.02.02,4.02-4.02-.02.02,4.02-4.02-.02.02,4.02-4.02-.02.02,4.02-4.02-.02.02,4.02-4.02-.02.02,4.02-4.02-.02.02,4.02-4.02-.02.02,4.02-4.02-.02.02,4.02-4.02-.02.02,4.02-4.02-.02.02,4.02-4.02-.02.02,4.02-4.02-.02.02,4.02-4.02-.02.02,4.02-4.02-.02.02,4.02-4.02-.02.02,8.01-4.02-.02.02,4.02-4.02-.02.02,4.02-4.02-.02.02,4.02-4.02-.02.02,4.02-4.02-.02.02,4.02-4.02-.02.02,8.01-4.02-.02.02,4.02-4.02-.02.02,8.01-4.02-.02.02,4.02-4.02-.02.02,4.02-4.02-.02.02,4.02-4.02-.02v8.01c-4.07.58-9.36-2.45-7.99,3.99h-20c.32-4.19.47-4.39-4.01-3.99l.02-4.02-4.02.02.02-4.02-4.02.02.02-4.02-4.02.02.02-4.02-4.02.02.02-8.01-4.02.02.02-4.02-4.02.02.02-4.02-4.02.02.02-8.01-4.02.02.02-4.02-4.02.02.02-4.02-4.02.02.02-4.02-4.02.02.02-4.02-4.02.02.02-4.02-4.02.02v-8.01s-8,.01-8,.01v-8.01s-4,.02-4,.02l.02-4.02-4.02.02.02-4.02-4.02.02.02-4.02-4.02.02.02-4.02-4.02.02.02-4.02-4.02.02.02-4.02-4.02.02.02-4.02-4.02.02.02-4.02-4.02.02.02-4.02-4.02.02.02-4.02-4.02.02.02-4.02-4.02.02.02-4.02-4.02.02.02-4.02-4.02.02.02-4.02-4.02.02.02-4.02-8.01.02.02-4.02-4.02.02.02-4.02-4.02.02.02-4.02-4.02.02.02-4.02-4.02.02.02-4.02-4.02.02.02-4.02-4.02.02.02-4.02-4.02.02.02-4.02-4.02.02.02-4.02-8.01.02.02-4.02-4.02.02.02-4.02-4.02.02.02-4.02-4.02.02.02-4.02-4.02.02.02-4.02-4.02.02.02-4.02-4.02.02.02-4.02-4.02.02.02-4.02-8.01.02.02-4.02-4.02.02.02-4.02-4.02.02.02-4.02-4.02.02.02-4.02-8.01.02.02-4.02-4.02.02.02-4.02-4.02.02.02-4.02-4.02.02.02-4.02-4.02.02.02-4.02-4.02.02.02-4.02-4.02.02.02-4.02-4.02.02.02-4.02-4.02.02.02-4.02-8.01.02.02-4.02-4.02.02.02-8.01-4.02.02.02-4.02-4.02.02.02-4.02-4.02.02.02-8.01-4.02.02.02-4.02-4.02.02.02-4.02-4.02.02.02-4.02-4.02.02.02-4.02-4.02.02.02-4.02-4.02.02.02-4.02-4.02.02.02-4.02-4.02.02.02-4.02-4.02.02.02-4.02-4.02.02.02-8.01-4.02.02.02-4.02-4.02.02.02-4.02-4.02.02.02-12.01-4.02.02.02-4.02-4.02.02.02-8.01h-4.02s.02-8,.02-8h-4.02s.02-8,.02-8h-4.02s.02-8,.02-8h-4.02s.02-8,.02-8l-4.02.02.02-4.02-4.02.02.02-8.01h-4.01s0-19.99,0-19.99h-4v-20h4.01s0-4,0-4h-4.01v-16h-4v-32h-8v-4c4.19.32,4.39.47,3.99-4.01l4.02.02-.02-8.01h4.01s0-23.99,0-23.99h4s0,4.01,0,4.01h8.01s0-4,0-4h-4.02s0-4,0-4h8.01s-.02-4.01-.02-4.01l4.02.02-.02-4.02,4.02.02-.02-4.02h12.01s-.01-11.99-.01-11.99h8.01s-.01-8-.01-8h4.02s0-3.99,0-3.99h-8.01s.02,4,.02,4l-4.02-.02v4.02s-3.98,0-3.98,0l-.03-7.43,4.03-.57-.02-4.02,4.02.02-.02-4.02h4.02s0-3.99,0-3.99h-4.02s0-4,0-4h4.02c.13-7.98-.2-16.02,0-24,1.33-.08,2.68.07,4,0v-8.01s-4,0-4,0c-.06,2.66.06,5.35,0,8-2.64.16-5.35-.11-8,0v-20h4.01s-.02-12-.02-12h4.02s-.02-8-.02-8l4.02.02-.02-4.02,4.02.02-.02-8.01,4.02.02-.02-4.02,8.01.02-.02-4.02,4.02.02-.02-4.02h8.01s.57,4.03.57,4.03h7.43s0-4.02,0-4.02h16v-4.01s4,0,4,0v16h-4v16h8s-.01-12-.01-12h4.02s0-3.99,0-3.99h-4.02s0-8.01,0-8.01l4.02.02-.02-4.02h8.01s0,4,0,4h-4.02s.01,12.01.01,12.01h3.99s0-4.01,0-4.01h12.01s0,12.01,0,12.01h-4.02s0,3.99,0,3.99h4.02s0,4,0,4h-4.02c-.06,1.32.09,2.68,0,4-2.66.07-5.35-.05-8.01,0l.02,4.02-4.02-.02.02,4.02-4.02-.02.02,4.02-4.02-.02c-.06,1.33.09,2.68,0,4.01-3.99.1-8.02-.07-12,0v8.01s-4-.02-4-.02l.02,4.02h-8.01s.01,8,.01,8l-4.02-.02.02,4.02-4.02-.02.02,4.02-4.02-.02.02,4.02-8.01-.02.02,4.02-4.02-.02.02,4.02h-4.02s0,3.98,0,3.98h8.01s-.02-4-.02-4l4.02.02v-4.02s3.98,0,3.98,0v8.01s-3.99,0-3.99,0v16h-8s0,8,0,8h4.02s-.02,12-.02,12h4.02s0,12,0,12h-4.02s0,12,0,12h4.02s-.01,12-.01,12h8.01s-.02,4-.02,4l4.02-.02-.02,8.01h4.01s0,23.99,0,23.99h8s0-8,0-8h-4.02s.01-8,.01-8h3.99s0,4.01,0,4.01h4v-36l-4.02-.58v-7.43s4.03,0,4.03,0v-4h-20.01v-4h16v-16h-8s0-12,0-12h4.02s0-3.99,0-3.99h-4.02s0-4,0-4h4.02s-.02-8.01-.02-8.01h4.02s-.02-12-.02-12l4.02.02-.02-4.02,4.02.02v-12.01s-4.02,0-4.02,0v-3.99s4.02,0,4.02,0l-.02-4.02,4.02.02-.02-4.02,4.02.02c.06-1.33-.09-2.68,0-4.01,2.66-.07,5.35.05,8.01,0l-.02-4.02,4.02.02-.02-4.02,4.02.02-.02-4.02,4.02.02c.06-1.33-.09-2.68,0-4.01,2.65-.07,5.35-.05,8,0-.08,1.33.07,2.68,0,4.01l-4.02-.02.02,4.02h-4.02s0,3.98,0,3.98h8.01s-.02-4-.02-4l4.02.02v-8.01c-1.33-.03-2.67.03-4.01,0,.08-1.33-.07-2.68,0-4.01h4.02s-.01-8-.01-8h8.01c.06-1.32-.08-2.67,0-3.99ZM870.02,254.04c2.66-.05,5.35.04,8.01,0v-4.02s8,.01,8,.01v-12.01s-4,0-4,0v4.02s-4.01-.02-4.01-.02l.02,4.02-4.02-.02.02,4.02-4.02-.02c-.06,1.33.09,2.68,0,4.01-2.66.05-5.35-.04-8.01,0v4.02s-8,0-8,0v3.99s12.01.01,12.01.01l-.02-4.02,4.02.02c.06-1.33-.09-2.68,0-4.01ZM938.02,358.03h-8.01v3.99h8.01v-3.99ZM966.01,362.03h-8.01s0,8,0,8h3.99s0-4.01,0-4.01h4.02s0-3.99,0-3.99ZM822.03,370.02h-8.01s0,4,0,4h4.02s0,4.01,0,4.01h3.99s0-8.01,0-8.01ZM878.02,374.02h-3.99v8.01h3.99v-8.01ZM774.03,378.02h-3.99v12.01h3.99s0-4.01,0-4.01h4.02s0-3.99,0-3.99h-4.02s0-4.01,0-4.01ZM1014,406.02h-16v4s4.01,0,4.01,0v4.02s3.99,0,3.99,0v-4.02s4,0,4,0l.51,8.01h3.49s0-12,0-12ZM890.02,430.02h-8.01v3.99h8.01v-3.99ZM894.02,438.01h-8.01s0,4,0,4h4.02s0,4.01,0,4.01h3.99s0-8.01,0-8.01ZM1305.96,458.01h-3.99s0,4.01,0,4.01h-8.01s0,3.99,0,3.99h12.01s0-8,0-8ZM1297.97,482.02h-8.01s.02,4,.02,4h-4.02s0,3.99,0,3.99h8.01s-.02-4-.02-4h4.02s0-3.99,0-3.99ZM994,510h-3.99s0,4.02,0,4.02l-4.02-.02v8.01s-11.99,0-11.99,0v3.99s4.01,0,4.01,0v12.01s8,0,8,0v-8.01s4,.02,4,.02l-.02-4.02h4.02s0-3.99,0-3.99h-4.02s0-4,0-4h8.01s0-4,0-4h-4.02s0-4.01,0-4.01ZM1169.99,522.01h-8.01v3.99h8.01v-3.99ZM1161.99,530.01v20h4s0-4.01,0-4.01h4.02s0-3.99,0-3.99l-4.03-.58v-7.43s4.03,0,4.03,0v-3.99s-8.01,0-8.01,0ZM1018.01,546.01h-12.01v3.99h12.01v-3.99ZM1002.01,582h-8.01v3.99h8.01v-3.99ZM1353.96,601.99h-3.99v8.01h3.99v-8.01Z"/>
    <path class="cls-1" d="M1078,338.03c-.07-2.66.05-5.35,0-8.01h-4.02s.02-8,.02-8h-4.02s0-3.99,0-3.99h4.02s-.02-4.01-.02-4.01l4.02.02-.02-4.02,8.01.02-.02-4.02,4.02.02-.02-4.02,4.02.02-.02-4.02,8.01.02v-4.02s8,.02,8,.02v-4.02s8,.02,8,.02v-4.02s12,.02,12,.02l-.02-4.02,4.02.02-.02-12.01,4.02.02-.02-4.02,4.02.02-.02-4.02,4.02.02-.02-4.02h12.01s0,4,0,4h-4.02s.02,4.01.02,4.01l-4.02-.02.02,4.02-8.01-.02.02,4.02-4.02-.02v12.01s8.01,0,8.01,0v-4.01s15.99,0,15.99,0v-4h24v8s-4.02.57-4.02.57l.03,7.43h3.99s0-4.01,0-4.01l4.02.02v-8.01s8,.01,8,.01l-.02-4.02,4.02.02v-8.01s3.99,0,3.99,0v4.02s4,0,4,0v-4.02s4,0,4,0v8.01s-4-.01-4-.01l.02,8.01-4.02-.02.02,4.02-8.01-.02v4.02s-8-.02-8-.02l.02,4.02-4.02-.02.02,4.02-16.01-.02.02,4.02h-4.02s0,3.99,0,3.99h8.01s0,4,0,4h-4.02s.02,4.01.02,4.01l-4.02-.02.02,4.02-4.02-.02.02,4.02-4.02-.02.02,4.02-4.02-.02.02,4.02h-8.01v-20.01h-4s0,8,0,8h-8.01s.02-4.01.02-4.01l-4.02.02v-4.02s-3.99,0-3.99,0v4.02s-8.01-.02-8.01-.02v4.02s-12,0-12,0v-4.02s-3.99,0-3.99,0v4.02s-4.01-.02-4.01-.02l.02,8.01h-4.02s.01,8,.01,8c-5.3.22-10.72-.32-16,0,.1,3.99-.06,8.02,0,12h-3.99s0-12.01,0-12.01c1.32-.07,2.68.09,4,0Z"/>
    <polygon class="cls-1" points="942.01 434.01 942.02 446.02 938 446.01 938.02 450.03 934.01 450.01 934.02 458.02 930 458 930.02 462.02 922.01 462 922.03 466.02 918.01 466 918.02 470.02 910.01 470.02 910.01 462.01 914.03 462.02 914.01 454.01 922.02 454.02 922.01 450.01 926.02 450.03 926.01 446.01 930.02 446.03 930 442.01 934.02 442.03 934 438.01 938.02 438.03 938.02 434.01 942.01 434.01"/>
    <rect class="cls-1" x="1078" y="394.02" width="3.99" height="8.01"/>
    <rect class="cls-1" x="890.02" y="206.05" width="8.01" height="3.99"/>
    <path class="cls-1" d="M910.02,198.05c.06-1.33-.06-2.68,0-4h8.01s0,4,0,4c-2.66.04-5.34-.03-8,0-.06,1.33.06,2.68,0,4h-8.01s0-4,0-4c2.66-.04,5.34.03,8,0Z"/>
    <rect class="cls-1" x="850.03" y="390.02" width="3.99" height="12.01"/>
  </g>
</svg>